<svg width="1440" height="345" viewBox="0 0 1440 345" xmlns="http://www.w3.org/2000/svg"><defs><linearGradient x1="50%" y1="0%" x2="50%" y2="99.043%" id="linearGradient-1"><stop stop-color="#233250" offset="0%"/><stop stop-color="#261A37" offset="100%"/></linearGradient></defs><g id="DEF" fill="none" fill-rule="evenodd" opacity=".2"><g id="01B.Home" transform="translate(0 -5351)" fill="url(#linearGradient-1)"><g id="Group-66" transform="translate(0 5068)"><g id="Group-61"><g id="Group-45" transform="translate(0 283)"><path d="M0 171.599C73.555 99.481 130.852 63.422 171.89 63.422c61.558 0 92.227 243.24 159.29 243.24 67.062 0 103.905-117.186 146.316-145.1 41.153-27.085 101.129-13.095 147.374-13.095C713.597 148.467 775.6.033 812.577 0c36.976-.033 93.228 185.889 190.524 171.599 97.296-14.29 116.876 19.755 153.128-23.132 36.251-42.888 116.114 203.464 270.099 196.006 102.656-4.972-372.786-4.972-1426.328 0V171.599z" id="Path-3" transform="matrix(-1 0 0 1 1440 0)"/></g></g></g></g></g></svg>