<svg width="100" height="183" viewBox="0 0 100 183" xmlns="http://www.w3.org/2000/svg"><defs><linearGradient x1="0%" y1="50%" x2="79.147%" y2="50%" id="linearGradient-1"><stop stop-color="#FF76DE" offset="0%"/><stop stop-color="#FF76DE" stop-opacity="0" offset="100%"/></linearGradient><linearGradient x1="0%" y1="50%" x2="69.425%" y2="50%" id="linearGradient-2"><stop stop-color="#FF76DE" offset="0%"/><stop stop-color="#FF76DE" stop-opacity="0" offset="100%"/></linearGradient><linearGradient x1="0%" y1="50%" x2="73.984%" y2="50%" id="linearGradient-3"><stop stop-color="#FF76DE" offset="0%"/><stop stop-color="#FF76DE" stop-opacity=".02" offset="100%"/></linearGradient><linearGradient x1="49.144%" y1=".856%" x2="49.144%" y2="99.144%" id="linearGradient-4"><stop stop-color="#9657FF" offset="0%"><animate attributeName="stop-color" values="#9657FF; #EF57FF; #9657FF" dur="2s" repeatCount="indefinite"/></stop><stop stop-color="#EF57FF" offset="85.165%"><animate attributeName="stop-color" values="#EF57FF; #A757FF; #EF57FF" dur="2s" repeatCount="indefinite"/></stop><stop stop-color="#FF57FF" stop-opacity="0" offset="100%"><animate attributeName="stop-color" values="#A757FF; #EF57FF; #A757FF" dur="2s" repeatCount="indefinite"/></stop></linearGradient></defs><g id="DEF" fill="none" fill-rule="evenodd"><g id="01B.Home" transform="translate(-286 -3925)"><g id="Group-52" transform="translate(269 3505)"><g id="Group-69" transform="translate(17 419)"><g id="Group-34" transform="rotate(90 -2.5 102.5)"><g id="Waves---Pink---Left"><g id="Waves---Purple"><circle id="Waves---big" fill="url(#linearGradient-1)" opacity=".212" cx="50" cy="50" r="50"/><circle id="Waves---med" fill="url(#linearGradient-2)" opacity=".251" cx="50" cy="50" r="35.714"/><circle id="Waves--sm" fill="url(#linearGradient-3)" opacity=".39" cx="50" cy="50" r="21.429"/></g></g></g><path d="M53 20v149h-8V20h-9.004a.999.999 0 0 1-.579-.184.98.98 0 0 1-.231-1.375L48.19.413a1.002 1.002 0 0 1 1.62 0l13.004 18.028a.98.98 0 0 1 .186.573.991.991 0 0 1-.996.986H53z" id="Combined-Shape" fill="url(#linearGradient-4)" transform="matrix(1 0 0 -1 0 169)"/></g></g></g></g></svg>