<svg width="100" height="182" viewBox="0 0 100 182" xmlns="http://www.w3.org/2000/svg"><defs><linearGradient x1="0%" y1="50%" x2="79.147%" y2="50%" id="linearGradient-1"><stop stop-color="#FF76DE" offset="0%"/><stop stop-color="#FF76DE" stop-opacity="0" offset="100%"/></linearGradient><linearGradient x1="0%" y1="50%" x2="69.425%" y2="50%" id="linearGradient-2"><stop stop-color="#FF76DE" offset="0%"/><stop stop-color="#FF76DE" stop-opacity="0" offset="100%"/></linearGradient><linearGradient x1="0%" y1="50%" x2="73.984%" y2="50%" id="linearGradient-3"><stop stop-color="#FF76DE" offset="0%"/><stop stop-color="#FF76DE" stop-opacity=".02" offset="100%"/></linearGradient><linearGradient x1="49.144%" y1="99.144%" x2="49.144%" y2=".856%" id="linearGradient-4"><stop stop-color="#9657FF" stop-opacity="0" offset="0%"><animate attributeName="stop-color" values="#9657FF; #FF57FF; #9657FF" dur="2s" repeatCount="indefinite"/></stop><stop stop-color="#A757FF" offset="15.867%"><animate attributeName="stop-color" values="#A757FF; #FF57FF; #A757FF" dur="2s" repeatCount="indefinite"/></stop><stop stop-color="#FF57FF" offset="100%"><animate attributeName="stop-color" values="#FF57FF; #A757FF; #FF57FF" dur="2s" repeatCount="indefinite"/></stop></linearGradient></defs><g id="DEF" fill="none" fill-rule="evenodd"><g id="01B.Home" transform="translate(-436 -3907)"><g id="Group-52" transform="translate(269 3505)"><g id="Group-71" transform="translate(167 381)"><g id="Group-34" transform="matrix(0 -1 -1 0 100 100)"><g id="Waves---Pink---Left"><g id="Waves---Purple"><circle id="Waves---big" fill="url(#linearGradient-1)" opacity=".212" cx="50" cy="50" r="50"/><circle id="Waves---med" fill="url(#linearGradient-2)" opacity=".251" cx="50" cy="50" r="35.714"/><circle id="Waves--sm" fill="url(#linearGradient-3)" opacity=".39" cx="50" cy="50" r="21.429"/></g></g></g><path d="M54 55v149h-8V55h-9.004a.999.999 0 0 1-.579-.184.98.98 0 0 1-.231-1.375L49.19 35.413a1.002 1.002 0 0 1 1.62 0l13.004 18.028a.98.98 0 0 1 .186.573.991.991 0 0 1-.996.986H54z" id="Combined-Shape" fill="url(#linearGradient-4)"/></g></g></g></g></svg>