<svg width="198" height="189" viewBox="0 0 198 189" xmlns="http://www.w3.org/2000/svg"><defs><radialGradient cx="88.787%" cy="11.213%" fx="88.787%" fy="11.213%" r="143.083%" gradientTransform="matrix(-.62053 .62053 -.78419 -.49102 1.527 -.384)" id="radialGradient-1"><stop stop-color="#3CA1FF" offset="0%"/><stop stop-color="#8B42FF" offset="100%"/></radialGradient><filter x="-12.8%" y="-10.1%" width="125.6%" height="120.2%" filterUnits="objectBoundingBox" id="filter-2"><feGaussianBlur stdDeviation="4.651" in="SourceGraphic"/></filter><filter x="-12.8%" y="-10.1%" width="125.6%" height="120.2%" filterUnits="objectBoundingBox" id="filter-3"><feGaussianBlur stdDeviation="4.651" in="SourceGraphic"/></filter><linearGradient x1="0%" y1="50%" y2="50%" id="linearGradient-4"><stop stop-color="#00B6F2" offset="0%"/><stop stop-color="#00E0B7" offset="100%"/></linearGradient><linearGradient x1="0%" y1="100%" x2="50%" y2="0%" id="linearGradient-5"><stop stop-color="#57EE8D" offset="0%"/><stop stop-color="#BAFF84" offset="100%"/></linearGradient></defs><g id="DEF" fill="none" fill-rule="evenodd"><g id="01B.Home" transform="translate(-288 -5719)"><g id="Group-24" transform="translate(0 5696)"><g id="Group-56"><g id="Group-21"><g id="Group-2"><g id="Group-60"><g id="bg-web-services-ico-launchpad-icon-technical-business-whitepaper" transform="translate(300 35)"><g id="Group-9-Copy" opacity=".2" transform="translate(53 27)" fill="url(#radialGradient-1)"><path id="Shape" fill-opacity=".6" d="M132.526 149.619H23.333V11.628h90.52l18.673 16.447z"/><path id="Shape" d="M109.192 137.991H0V0h90.52l18.672 16.447z"/><path id="Shape" filter="url(#filter-2)" d="M109.192 137.991H0V0h90.52l18.672 16.447z"/></g><path id="Shape" fill-opacity=".6" fill="url(#radialGradient-1)" d="M132.526 149.619H23.333V11.628h90.52l18.673 16.447z"/><path id="Shape" fill="url(#radialGradient-1)" d="M109.192 137.991H0V0h90.52l18.672 16.447z"/><path id="Shape" fill="url(#radialGradient-1)" filter="url(#filter-3)" d="M109.192 137.991H0V0h90.52l18.672 16.447z"/><path id="Shape" stroke="url(#linearGradient-4)" stroke-width="2.969" stroke-linecap="round" stroke-linejoin="round" d="M62.036 77.13H17.784l27.535-14.785h42.296zm0 20.782H17.784l27.535-14.785h42.296zm1.986 20.782H17.784l27.535-14.785h42.296z"/><path d="M60.998 21.82l4.18 5.226-4.18-5.225zm3.765-2.85l4.179 5.226-4.18-5.225zm5.987-5.313L40.37 37.853l-5.425 9.054 9.84-3.206L75.048 19.18l-4.298-5.522z" id="Shape" stroke="url(#linearGradient-5)" stroke-width="2.969" stroke-linecap="round" stroke-linejoin="round"/></g></g></g></g></g></g></g></g></svg>