<svg width="156" height="156" viewBox="0 0 156 156" xmlns="http://www.w3.org/2000/svg"><defs><linearGradient x1="87.872%" y1="0%" x2="87.872%" y2="114.041%" id="linearGradient-1"><stop stop-color="#5372FF" offset="0%"/><stop stop-color="#2F1D69" stop-opacity="0" offset="100%"/></linearGradient><linearGradient x1="0%" y1="0%" x2="95.503%" y2="100%" id="linearGradient-2"><stop stop-color="#00DDB6" offset="0%"/><stop stop-color="#00CADA" offset="49.583%"/><stop stop-color="#00B6FF" offset="100%"/></linearGradient><filter x="-12.1%" y="-12.1%" width="124.1%" height="124.1%" filterUnits="objectBoundingBox" id="filter-3"><feGaussianBlur stdDeviation="4.615" in="SourceGraphic"/></filter><radialGradient cx="100%" cy="100%" fx="100%" fy="100%" r="122.288%" id="radialGradient-4"><stop stop-color="#0070FF" offset="0%"/><stop stop-color="#1AFFF7" stop-opacity="0" offset="100%"/></radialGradient><linearGradient x1="0%" y1="100%" x2="50%" y2="0%" id="linearGradient-5"><stop stop-color="#57EE8D" offset="0%"/><stop stop-color="#BAFF84" offset="100%"/></linearGradient><linearGradient x1="0%" y1="0%" y2="100%" id="linearGradient-6"><stop stop-color="#32FBFC" offset="0%"/><stop stop-color="#147AFF" offset="100%"/></linearGradient></defs><g id="DEF" fill="none" fill-rule="evenodd"><g id="01B.Home" transform="translate(-1078 -4620)"><g id="Group-57" transform="translate(1080 4622)"><g id="Group-29-Copy-2"><g id="Group-24-Copy"><circle id="Oval-51" stroke="url(#linearGradient-1)" stroke-width="2.308" stroke-linecap="round" stroke-linejoin="round" cx="76.154" cy="73.846" r="50.769"/><path d="M76.154 140.77c35.686 0 64.615-28.93 64.615-64.616s-28.93-64.616-64.615-64.616c-35.686 0-64.616 28.93-64.616 64.616s28.93 64.615 64.616 64.615zm0 0c35.686 0 64.615-28.93 64.615-64.616s-28.93-64.616-64.615-64.616c-35.686 0-64.616 28.93-64.616 64.616s28.93 64.615 64.616 64.615zm0 0c35.686 0 64.615-28.93 64.615-64.616s-28.93-64.616-64.615-64.616c-35.686 0-64.616 28.93-64.616 64.616s28.93 64.615 64.616 64.615z" id="Oval-49" stroke="url(#linearGradient-2)" stroke-width="3.462" filter="url(#filter-3)"/><path d="M76.154 140.77c35.686 0 64.615-28.93 64.615-64.616s-28.93-64.616-64.615-64.616c-35.686 0-64.616 28.93-64.616 64.616s28.93 64.615 64.616 64.615zm0 0c35.686 0 64.615-28.93 64.615-64.616s-28.93-64.616-64.615-64.616c-35.686 0-64.616 28.93-64.616 64.616s28.93 64.615 64.616 64.615zm0 0c35.686 0 64.615-28.93 64.615-64.616s-28.93-64.616-64.615-64.616c-35.686 0-64.616 28.93-64.616 64.616s28.93 64.615 64.616 64.615z" id="Oval-49" stroke="url(#linearGradient-2)" stroke-width="3.462"/><circle id="Oval-50" stroke="url(#radialGradient-4)" stroke-width="2.308" stroke-linecap="round" stroke-linejoin="round" cx="75" cy="75" r="75"/></g></g><g id="finance" transform="translate(43 55)"><ellipse id="Oval" fill="url(#linearGradient-5)" cx="4.027" cy="37.536" rx="3.247" ry="3.313"/><ellipse id="Oval" fill="url(#linearGradient-5)" cx="32.905" cy="17.313" rx="3.247" ry="3.313"/><ellipse id="Oval" fill="url(#linearGradient-5)" transform="rotate(-26.61 15.291 5.537)" cx="15.291" cy="5.537" rx="3.325" ry="3.236"/><path d="M24.854 22.165c-.58 1.742-2.424 2.698-4.12 2.134-1.695-.564-2.6-2.433-2.02-4.176.579-1.742 2.423-2.698 4.118-2.134 1.696.564 2.601 2.433 2.022 4.176zm14.074 8.402c-1.603.803-3.567.128-4.387-1.508-.82-1.636-.184-3.613 1.42-4.417 1.602-.803 3.566-.128 4.386 1.508.82 1.636.185 3.614-1.419 4.417zm23.658-9.097c-.566 1.701-2.432 2.613-4.168 2.035-1.737-.577-2.686-2.424-2.12-4.126.566-1.701 2.432-2.613 4.168-2.036 1.737.578 2.686 2.425 2.12 4.127zM13.128 11.23L6.556 31.453l6.572-20.222zm6.494-2.614L28.3 14.14l-8.678-5.524zM53.854 7l-16.39 7.687L53.853 7zM32.109 24.982l-4.995-2.566 4.995 2.566zm-15.719.685L9.366 31.95l7.024-6.284zm37.464-3.111l-11.068 3.78 11.068-3.78z" id="Combined-Shape" stroke="url(#linearGradient-6)" stroke-width="1.561" stroke-linecap="round" stroke-linejoin="round"/><ellipse id="Oval" fill="url(#linearGradient-5)" transform="rotate(-26.61 59.52 4.791)" cx="59.52" cy="4.791" rx="3.325" ry="3.236"/></g></g></g></g></svg>