<svg width="156" height="156" viewBox="0 0 156 156" xmlns="http://www.w3.org/2000/svg"><defs><linearGradient x1="87.872%" y1="0%" x2="87.872%" y2="114.041%" id="linearGradient-1"><stop stop-color="#5372FF" offset="0%"/><stop stop-color="#2F1D69" stop-opacity="0" offset="100%"/></linearGradient><linearGradient x1="0%" y1="0%" x2="95.503%" y2="100%" id="linearGradient-2"><stop stop-color="#00DDB6" offset="0%"/><stop stop-color="#00CADA" offset="49.583%"/><stop stop-color="#00B6FF" offset="100%"/></linearGradient><filter x="-12.1%" y="-12.1%" width="124.1%" height="124.1%" filterUnits="objectBoundingBox" id="filter-3"><feGaussianBlur stdDeviation="4.615" in="SourceGraphic"/></filter><radialGradient cx="100%" cy="100%" fx="100%" fy="100%" r="122.288%" id="radialGradient-4"><stop stop-color="#0070FF" offset="0%"/><stop stop-color="#1AFFF7" stop-opacity="0" offset="100%"/></radialGradient><linearGradient x1="0%" y1="100%" x2="50%" y2="0%" id="linearGradient-5"><stop stop-color="#0070FF" offset="0%"/><stop stop-color="#0FFFF7" offset="100%"/></linearGradient><linearGradient x1="0%" y1="100%" x2="50%" y2="0%" id="linearGradient-6"><stop stop-color="#57EE8D" offset="0%"/><stop stop-color="#BAFF84" offset="100%"/></linearGradient></defs><g id="DEF" fill="none" fill-rule="evenodd"><g id="01B.Home" transform="translate(-773 -4620)"><g id="Group-55" transform="translate(775 4622)"><g id="Group-29-Copy-2"><g id="Group-24-Copy"><circle id="Oval-51" stroke="url(#linearGradient-1)" stroke-width="2.308" stroke-linecap="round" stroke-linejoin="round" cx="76.154" cy="73.846" r="50.769"/><path d="M76.154 140.77c35.686 0 64.615-28.93 64.615-64.616s-28.93-64.616-64.615-64.616c-35.686 0-64.616 28.93-64.616 64.616s28.93 64.615 64.616 64.615zm0 0c35.686 0 64.615-28.93 64.615-64.616s-28.93-64.616-64.615-64.616c-35.686 0-64.616 28.93-64.616 64.616s28.93 64.615 64.616 64.615zm0 0c35.686 0 64.615-28.93 64.615-64.616s-28.93-64.616-64.615-64.616c-35.686 0-64.616 28.93-64.616 64.616s28.93 64.615 64.616 64.615z" id="Oval-49" stroke="url(#linearGradient-2)" stroke-width="3.462" filter="url(#filter-3)"/><path d="M76.154 140.77c35.686 0 64.615-28.93 64.615-64.616s-28.93-64.616-64.615-64.616c-35.686 0-64.616 28.93-64.616 64.616s28.93 64.615 64.616 64.615zm0 0c35.686 0 64.615-28.93 64.615-64.616s-28.93-64.616-64.615-64.616c-35.686 0-64.616 28.93-64.616 64.616s28.93 64.615 64.616 64.615zm0 0c35.686 0 64.615-28.93 64.615-64.616s-28.93-64.616-64.615-64.616c-35.686 0-64.616 28.93-64.616 64.616s28.93 64.615 64.616 64.615z" id="Oval-49" stroke="url(#linearGradient-2)" stroke-width="3.462"/><circle id="Oval-50" stroke="url(#radialGradient-4)" stroke-width="2.308" stroke-linecap="round" stroke-linejoin="round" cx="75" cy="75" r="75"/></g></g><g id="consumer-product-tracking" transform="translate(46 45)" fill-rule="nonzero"><path d="M56.971 13.954L29.543.79a1.006 1.006 0 0 0-.732 0L1.383 13.954a.823.823 0 0 0-.503.777v32a.823.823 0 0 0 .503.778L28.81 60.674a.777.777 0 0 0 .732 0L56.97 47.51a.823.823 0 0 0 .503-.778v-32a.823.823 0 0 0-.503-.777zM29.543 2.571l25.234 12.16-7.314 3.566L22.366 6.183l7.177-3.612zm26.514 43.566L30 58.48V28.491l6.263-3.062a.869.869 0 0 0-.732-1.555l-6.217 2.972-1.874-.869a1.051 1.051 0 0 0-1.371.32c-.229.412.228 1.052.64 1.28l1.737.823v29.989L2.89 46.09V16.286l18.286 8.868c.437.153.923.066 1.28-.228a1.189 1.189 0 0 0-.503-1.372L4.034 14.87l8.732-4.206L39.143 23.28v10.56c.024.292.174.56.411.731a.914.914 0 0 0 .503 0h.366l6.583-3.2a.823.823 0 0 0 .503-.777V20.08l8.182-3.794V46.32l.366-.183z" id="Shape" fill="url(#linearGradient-5)"/><path d="M11.714 42.571l-4.023-1.965a.914.914 0 0 0-1.142.411.869.869 0 0 0 .411 1.189l3.977 1.92a.686.686 0 0 0 .412 0 .823.823 0 0 0 .822-.412.823.823 0 0 0-.457-1.143zm3.703-4.251l-7.68-3.749a.869.869 0 0 0-.731 1.555l7.68 3.748h.365a.869.869 0 0 0 .778-.457.869.869 0 0 0-.412-1.097z" id="Shape" stroke="url(#linearGradient-6)" stroke-width="1.5" fill="url(#linearGradient-6)"/></g></g></g></g></svg>