<svg width="156" height="156" viewBox="0 0 156 156" xmlns="http://www.w3.org/2000/svg"><defs><linearGradient x1="87.872%" y1="0%" x2="87.872%" y2="114.041%" id="linearGradient-1"><stop stop-color="#5372FF" offset="0%"/><stop stop-color="#2F1D69" stop-opacity="0" offset="100%"/></linearGradient><linearGradient x1="0%" y1="0%" x2="95.503%" y2="100%" id="linearGradient-2"><stop stop-color="#00DDB6" offset="0%"/><stop stop-color="#00CADA" offset="49.583%"/><stop stop-color="#00B6FF" offset="100%"/></linearGradient><filter x="-12.1%" y="-12.1%" width="124.1%" height="124.1%" filterUnits="objectBoundingBox" id="filter-3"><feGaussianBlur stdDeviation="4.615" in="SourceGraphic"/></filter><radialGradient cx="100%" cy="100%" fx="100%" fy="100%" r="122.288%" id="radialGradient-4"><stop stop-color="#0070FF" offset="0%"/><stop stop-color="#1AFFF7" stop-opacity="0" offset="100%"/></radialGradient><linearGradient x1="0%" y1="100%" x2="50%" y2="0%" id="linearGradient-5"><stop stop-color="#0070FF" offset="0%"/><stop stop-color="#0FFFF7" offset="100%"/></linearGradient><linearGradient x1="0%" y1="100%" x2="50%" y2="0%" id="linearGradient-6"><stop stop-color="#0070FF" offset="0%"/><stop stop-color="#0FFFF7" offset="100%"/></linearGradient><linearGradient x1="0%" y1="100%" x2="50%" y2="0%" id="linearGradient-7"><stop stop-color="#57EE8D" offset="0%"/><stop stop-color="#BAFF84" offset="100%"/></linearGradient><radialGradient cy="100%" fx="50%" fy="100%" r="100%" id="radialGradient-8"><stop stop-color="#0070FF" offset="0%"/><stop stop-color="#0FFFF7" offset="100%"/></radialGradient><linearGradient x1="0%" y1="0%" y2="100%" id="linearGradient-9"><stop stop-color="#32FBFC" offset="0%"/><stop stop-color="#147AFF" offset="100%"/></linearGradient></defs><g id="DEF" fill="none" fill-rule="evenodd"><g id="01B.Home" transform="translate(-163 -4620)"><g id="Group-53" transform="translate(165 4622)"><g id="Group-42"><g id="Group-29"><g id="Group-24-Copy"><circle id="Oval-51" stroke="url(#linearGradient-1)" stroke-width="2.308" stroke-linecap="round" stroke-linejoin="round" cx="76.154" cy="73.846" r="50.769"/><path d="M76.154 140.77c35.686 0 64.615-28.93 64.615-64.616s-28.93-64.616-64.615-64.616c-35.686 0-64.616 28.93-64.616 64.616s28.93 64.615 64.616 64.615zm0 0c35.686 0 64.615-28.93 64.615-64.616s-28.93-64.616-64.615-64.616c-35.686 0-64.616 28.93-64.616 64.616s28.93 64.615 64.616 64.615zm0 0c35.686 0 64.615-28.93 64.615-64.616s-28.93-64.616-64.615-64.616c-35.686 0-64.616 28.93-64.616 64.616s28.93 64.615 64.616 64.615z" id="Oval-49" stroke="url(#linearGradient-2)" stroke-width="3.462" filter="url(#filter-3)"/><path d="M76.154 140.77c35.686 0 64.615-28.93 64.615-64.616s-28.93-64.616-64.615-64.616c-35.686 0-64.616 28.93-64.616 64.616s28.93 64.615 64.616 64.615zm0 0c35.686 0 64.615-28.93 64.615-64.616s-28.93-64.616-64.615-64.616c-35.686 0-64.616 28.93-64.616 64.616s28.93 64.615 64.616 64.615zm0 0c35.686 0 64.615-28.93 64.615-64.616s-28.93-64.616-64.615-64.616c-35.686 0-64.616 28.93-64.616 64.616s28.93 64.615 64.616 64.615z" id="Oval-49" stroke="url(#linearGradient-2)" stroke-width="3.462"/><circle id="Oval-50" stroke="url(#radialGradient-4)" stroke-width="2.308" stroke-linecap="round" stroke-linejoin="round" cx="75" cy="75" r="75"/></g></g><g id="b2b" transform="translate(39 39)"><g id="Group-30" transform="translate(6 6)" stroke-linecap="round" stroke-linejoin="round" stroke-width="1.5"><path d="M29.76.27v14.61M14.985 30.12H.555m58.215 0H45.48" id="Shape" stroke="url(#linearGradient-5)" stroke-dasharray="7.5"/><path d="M12.84 12.96l6.495 6.495" id="Shape" stroke="url(#linearGradient-6)"/><path d="M46.215 13.41l-5.145 5.145m5.655 28.275l-5.655-5.64" id="Shape" stroke="url(#linearGradient-5)"/><path d="M12.84 46.77l6.24-6.24" id="Shape" stroke="url(#linearGradient-6)"/></g><path d="M35.76 51.885v13.32" id="Shape" stroke="url(#linearGradient-5)" stroke-width="1.5" stroke-linecap="round" stroke-linejoin="round" stroke-dasharray="7.5"/><circle id="Oval" fill="url(#linearGradient-7)" cx="68.43" cy="36.12" r="2.985"/><circle id="Oval" fill="url(#linearGradient-7)" cx="35.88" cy="3.285" r="2.985"/><circle id="Oval" fill="url(#linearGradient-7)" cx="3.57" cy="36.12" r="2.985"/><circle id="Oval" fill="url(#linearGradient-7)" cx="35.76" cy="68.715" r="2.985"/><circle id="Oval" fill="url(#radialGradient-8)" cx="57.885" cy="13.365" r="8.295"/><circle id="Oval" fill="url(#radialGradient-8)" cx="57.885" cy="59.31" r="8.295"/><circle id="Oval" fill="url(#radialGradient-8)" cx="12.735" cy="59.13" r="8.295"/><circle id="Oval" fill="url(#radialGradient-8)" cx="12.735" cy="13.365" r="8.295"/></g><path d="M88.432 77.844a21.934 21.934 0 0 1-7.894 3.26 22.993 22.993 0 0 1-11.747-.73v-.13c0-.444.026-.887.053-1.305.319-4.512 2.232-8.582 5.183-11.686.372.287.744.574 1.063.887-2.844 2.974-4.678 6.913-4.89 11.269 1.86.522 3.827.809 5.847.809 1.541 0 3.056-.157 4.518-.47a20.71 20.71 0 0 0 7.07-2.974c.08.444.372.835.797 1.07zm-5.874-3c-.425.183-.877.34-1.302.496-1.196-4.096-3.88-7.565-7.415-9.86-2.552 2.4-4.492 5.4-5.555 8.79a20.38 20.38 0 0 0-.904 6c0 .495.027.991.053 1.46.027 0-.345-.104-.585-.104-.292 0-.558.078-.797.183-.026-.522-.053-1.044-.053-1.565 0-2.348.372-4.591 1.063-6.704a21.705 21.705 0 0 1 5.555-8.817c.345-.34.718-.652 1.09-.965.425.235.824.495 1.249.756 3.588 2.452 6.325 6.078 7.601 10.33zm3.216 1.409a20.3 20.3 0 0 1-1.302.678c-1.276.6-2.631 1.07-4.04 1.408-.452.105-.904.183-1.382.261-.452.079-.93.13-1.382.157-.532.052-1.09.078-1.648.078-.532 0-1.063-.026-1.595-.052a11.77 11.77 0 0 1-1.382-.157c-.452-.078-.93-.156-1.382-.26.053-.47.133-.913.213-1.357.452.104.903.183 1.382.261.452.078.93.13 1.382.157.452.026.904.052 1.382.052.478 0 .957-.026 1.435-.052.479-.027.93-.079 1.382-.157.479-.078.93-.157 1.382-.26a17.479 17.479 0 0 0 3.96-1.436c-.212-.913-.505-1.8-.824-2.66-.584-1.513-1.382-2.948-2.285-4.252-.266-.391-.558-.757-.824-1.096a17.094 17.094 0 0 0-.904-1.043 21.16 21.16 0 0 0-6.166-4.565c.319-.313.532-.757.532-1.226v-.052a21.79 21.79 0 0 1 6.883 5.139c.32.365.612.704.904 1.095.292.365.558.73.824 1.122.904 1.304 1.674 2.687 2.26 4.173.345.861.664 1.774.903 2.687.08.418.186.887.292 1.357zM72.618 60.68a.68.68 0 0 1-.691.678.68.68 0 0 1-.691-.678c0-.365.319-.678.69-.678.373-.027.692.286.692.678zM90 76.33a.68.68 0 0 1-.691.68.697.697 0 0 1-.691-.68c0-.364.319-.677.691-.677.372 0 .691.313.691.678zm-22.485 6.992a.697.697 0 0 1-.691.678.68.68 0 0 1-.691-.678.68.68 0 0 1 .69-.678c.373 0 .692.313.692.678z" id="Combined-Shape-Copy-3" fill="url(#linearGradient-9)" fill-rule="nonzero" opacity=".9"/></g></g></g></g></svg>