<svg width="243" height="248" viewBox="0 0 243 248" xmlns="http://www.w3.org/2000/svg"><g id="DEF" fill="none" fill-rule="evenodd"><g id="01A.Home" transform="translate(-603 -57)"><g id="net-logo" transform="translate(602 57)"><g id="Group"><path d="M218.785 172.284c.98 4.78 4.042 8.946 8.085 11.397" id="Shape" stroke="#FFF" stroke-width="1.225"/><path d="M217.438 172.652c-.123-.735.367-1.47 1.102-1.593.735-.123 1.47.367 1.593 1.103.122.735-.368 1.47-1.103 1.593-.735.122-1.47-.368-1.593-1.103zm8.819 12.255c.613.368 1.47.122 1.838-.49.368-.613.123-1.47-.49-1.839-.612-.367-1.47-.122-1.837.49-.49.613-.245 1.471.49 1.839z" id="Shape" fill="#FFF" fill-rule="nonzero"/><path d="M215.11 174.735c1.225-.858 2.45-1.593 3.675-2.45" id="Shape" stroke="#FFF" stroke-width="1.225"/><path d="M215.845 175.96a1.529 1.529 0 0 1-1.96-.367c-.49-.613-.245-1.47.368-1.96a1.529 1.529 0 0 1 1.96.367c.49.613.245 1.47-.368 1.96zm3.675-2.45c.612-.368.857-1.226.367-1.961-.367-.613-1.225-.858-1.96-.368-.612.368-.857 1.226-.367 1.961.49.735 1.347.735 1.96.368z" id="Shape" fill="#FFF" fill-rule="nonzero"/><path d="M208.005 179.147c2.45-1.348 4.778-2.819 7.105-4.412" id="Shape" stroke="#FFF" stroke-width="1.225"/><path d="M208.74 180.373c-.613.367-1.47.122-1.838-.49-.367-.613-.122-1.471.49-1.839.613-.368 1.47-.122 1.838.49.368.613.123 1.348-.49 1.839z" id="Shape" fill="#FFF" fill-rule="nonzero"/><ellipse id="Oval" fill="#FFF" fill-rule="nonzero" transform="rotate(-59.643 215.074 174.72)" cx="215.074" cy="174.72" rx="1.348" ry="1.348"/><path d="M198.205 184.54a250.628 250.628 0 0 0 9.8-5.393" id="Shape" stroke="#FFF" stroke-width="1.225"/><path d="M198.817 185.765c-.734.367-1.47.122-1.837-.613s-.123-1.47.613-1.838c.734-.368 1.47-.123 1.837.612.368.613.123 1.471-.613 1.839zm9.923-5.392c.612-.368.857-1.226.49-1.839-.367-.612-1.225-.858-1.837-.49-.613.368-.858 1.226-.49 1.838.367.613 1.102.858 1.837.49z" id="Shape" fill="#FFF" fill-rule="nonzero"/><path d="M187.303 189.809c3.674-1.593 7.35-3.432 10.902-5.27" id="Shape" stroke="#FFF" stroke-width="1.225"/><path d="M187.915 191.034c-.735.368-1.47 0-1.838-.735-.367-.735 0-1.47.736-1.838.735-.368 1.47 0 1.837.735.245.735-.123 1.47-.735 1.838zm10.902-5.269c.736-.368.98-1.226.613-1.839-.368-.735-1.225-.98-1.838-.612-.735.367-.98 1.225-.612 1.838.368.735 1.225.98 1.838.613z" id="Shape" fill="#FFF" fill-rule="nonzero"/><path d="M170.887 196.304c5.636-1.96 11.025-4.044 16.416-6.495" id="Shape" stroke="#FFF" stroke-width="1.225"/><path d="M171.377 197.53a1.324 1.324 0 0 1-1.715-.858 1.325 1.325 0 0 1 .858-1.716 1.324 1.324 0 0 1 1.715.858 1.325 1.325 0 0 1-.858 1.715zm16.538-6.496c.735-.367.98-1.103.735-1.838-.368-.735-1.102-.98-1.838-.735-.735.367-.98 1.103-.735 1.838.245.735 1.103 1.103 1.838.735z" id="Shape" fill="#FFF" fill-rule="nonzero"/><path d="M147.98 202.676c7.84-1.715 15.435-3.921 22.907-6.495" id="Shape" stroke="#FFF" stroke-width="1.225"/><path d="M148.347 204.025c-.734.122-1.47-.246-1.592-1.103-.123-.736.245-1.471 1.102-1.594.736-.122 1.47.246 1.593 1.103.123.858-.367 1.471-1.102 1.594zm23.03-6.495a1.325 1.325 0 0 0 .858-1.716 1.324 1.324 0 0 0-1.715-.858 1.325 1.325 0 0 0-.858 1.716c.245.735.98 1.103 1.715.857z" id="Shape" fill="#FFF" fill-rule="nonzero"/><path d="M123.112 206.72c8.453-.857 16.783-2.205 24.99-3.921" id="Shape" stroke="#FFF" stroke-width="1.225"/><path d="M123.235 208.069c-.735.122-1.47-.49-1.47-1.226-.123-.735.49-1.47 1.225-1.47.735-.123 1.47.49 1.47 1.225.123.735-.49 1.348-1.225 1.47zm25.112-4.044c.736-.123 1.225-.858 1.103-1.594-.123-.735-.857-1.225-1.593-1.103-.734.123-1.225.858-1.102 1.594.123.857.858 1.348 1.593 1.103z" id="Shape" fill="#FFF" fill-rule="nonzero"/><path d="M102.9 207.701c6.737 0 13.475-.368 20.212-.98" id="Shape" stroke="#FFF" stroke-width="1.225"/><path d="M102.9 209.049a1.36 1.36 0 0 1-1.348-1.348 1.36 1.36 0 0 1 1.348-1.348 1.36 1.36 0 0 1 1.347 1.348 1.36 1.36 0 0 1-1.347 1.348zm20.335-.98c.735-.123 1.347-.736 1.225-1.471-.122-.735-.735-1.348-1.47-1.225-.735.122-1.347.735-1.225 1.47 0 .735.735 1.348 1.47 1.226z" id="Shape" fill="#FFF" fill-rule="nonzero"/><path d="M70.927 205.25a212.32 212.32 0 0 0 31.973 2.451" id="Shape" stroke="#FFF" stroke-width="1.225"/><path d="M70.683 206.598c-.736-.123-1.226-.858-1.103-1.593s.858-1.226 1.593-1.103c.734.123 1.224.858 1.102 1.593-.123.613-.858 1.226-1.593 1.103zm32.217 2.451a1.36 1.36 0 0 0 1.347-1.348 1.36 1.36 0 0 0-1.347-1.348 1.36 1.36 0 0 0-1.348 1.348 1.36 1.36 0 0 0 1.348 1.348z" id="Shape" fill="#FFF" fill-rule="nonzero"/><path d="M57.82 202.676c4.288.98 8.697 1.839 13.107 2.451" id="Shape" stroke="#FFF" stroke-width="1.225"/><path d="M57.575 204.025c-.735-.123-1.225-.858-1.103-1.594.123-.735.858-1.225 1.593-1.103.735.123 1.225.858 1.102 1.594-.122.857-.857 1.348-1.592 1.103zm13.108 2.573c.734.123 1.47-.368 1.592-1.103.122-.735-.368-1.47-1.103-1.593-.734-.123-1.47.368-1.592 1.103-.123.735.368 1.47 1.103 1.593z" id="Shape" fill="#FFF" fill-rule="nonzero"/><path d="M49.123 200.593c2.817.735 5.757 1.47 8.697 2.083" id="Shape" stroke="#FFF" stroke-width="1.225"/><path d="M48.755 201.941c-.735-.245-1.225-.98-.98-1.716.245-.735.98-1.225 1.715-.98.735.245 1.225.98.98 1.716-.245.735-.98 1.225-1.715.98zm8.82 2.084c.735.122 1.47-.246 1.592-1.103.123-.736-.245-1.471-1.102-1.594-.735-.122-1.47.246-1.593 1.103-.122.736.245 1.471 1.103 1.594z" id="Shape" fill="#FFF" fill-rule="nonzero"/><path d="M44.468 199.245c1.592.49 3.184.858 4.777 1.348" id="Shape" stroke="#FFF" stroke-width="1.225"/><path d="M44.1 200.593c-.735-.245-1.102-.98-.98-1.716.245-.735.98-1.102 1.715-.98.735.245 1.102.98.98 1.716-.245.858-.98 1.225-1.715.98zm4.655 1.348c.735.245 1.47-.245 1.715-.98.245-.736-.245-1.47-.98-1.716-.735-.245-1.47.245-1.715.98-.245.736.245 1.471.98 1.716z" id="Shape" fill="#FFF" fill-rule="nonzero"/><path d="M45.08 189.931c-.367 3.064-.49 6.25-.735 9.314" id="Shape" stroke="#FFF" stroke-width="1.225"/><path d="M43.733 189.809c.122-.735.735-1.348 1.47-1.226.734.123 1.347.736 1.224 1.47-.122.736-.734 1.349-1.47 1.226-.735 0-1.224-.735-1.224-1.47z" id="Shape" fill="#FFF" fill-rule="nonzero"/><ellipse id="Oval" fill="#FFF" fill-rule="nonzero" cx="44.468" cy="199.245" rx="1.347" ry="1.348"/><path d="M46.55 179.147a162.708 162.708 0 0 0-1.47 10.784" id="Shape" stroke="#FFF" stroke-width="1.225"/><path d="M45.203 178.902c.122-.735.857-1.226 1.592-1.103.735.123 1.225.858 1.102 1.593-.122.735-.857 1.226-1.592 1.103-.735-.122-1.225-.858-1.102-1.593zm-1.47 10.907c-.123.735.49 1.47 1.225 1.47.735.123 1.47-.49 1.47-1.225.122-.735-.49-1.47-1.225-1.47-.736 0-1.348.49-1.47 1.225z" id="Shape" fill="#FFF" fill-rule="nonzero"/><path d="M48.388 169.466a122.86 122.86 0 0 0-1.838 9.681" id="Shape" stroke="#FFF" stroke-width="1.225"/><path d="M47.04 169.22c.123-.735.858-1.225 1.593-1.102.734.122 1.224.857 1.102 1.593-.123.735-.858 1.225-1.593 1.103-.857-.123-1.225-.858-1.102-1.593zm-1.837 9.682c-.123.735.367 1.47 1.102 1.593.735.123 1.47-.368 1.593-1.103.122-.735-.368-1.47-1.103-1.593s-1.47.368-1.593 1.103z" id="Shape" fill="#FFF" fill-rule="nonzero"/><path d="M53.042 152.186c-1.837 5.638-3.43 11.397-4.654 17.402" id="Shape" stroke="#FFF" stroke-width="1.225"/><path d="M51.818 151.696a1.324 1.324 0 0 1 1.715-.858c.734.245 1.102.98.857 1.716a1.324 1.324 0 0 1-1.715.858 1.325 1.325 0 0 1-.857-1.716z" id="Shape" fill="#FFF" fill-rule="nonzero"/><ellipse id="Oval" fill="#FFF" fill-rule="nonzero" cx="48.388" cy="169.466" rx="1.347" ry="1.348"/><path d="M58.678 137.113c-2.083 4.902-3.92 9.926-5.636 14.95" id="Shape" stroke="#FFF" stroke-width="1.225"/><path d="M57.453 136.623c.244-.736 1.102-.98 1.837-.736.735.245.98 1.103.735 1.838-.245.736-1.102.98-1.837.736-.736-.368-.98-1.103-.736-1.838zm-5.635 15.073c-.245.735.122 1.47.857 1.716a1.324 1.324 0 0 0 1.715-.858 1.325 1.325 0 0 0-.858-1.716 1.324 1.324 0 0 0-1.714.858z" id="Shape" fill="#FFF" fill-rule="nonzero"/><path d="M77.91 103.167c-7.472 10.539-13.965 21.936-19.11 33.946" id="Shape" stroke="#FFF" stroke-width="1.225"/><path d="M76.685 102.431a1.529 1.529 0 0 1 1.96-.367 1.53 1.53 0 0 1 .368 1.96 1.529 1.529 0 0 1-1.96.368 1.53 1.53 0 0 1-.368-1.96zm-19.232 34.192c-.245.735 0 1.47.734 1.838.736.245 1.47 0 1.838-.736.245-.735 0-1.47-.735-1.838-.735-.245-1.47 0-1.837.736z" id="Shape" fill="#FFF" fill-rule="nonzero"/><path d="M81.585 98.265c-1.225 1.593-2.45 3.309-3.675 5.024" id="Shape" stroke="#FFF" stroke-width="1.225"/><path d="M80.483 97.407c.49-.613 1.347-.735 1.96-.245.612.49.734 1.348.245 1.96-.49.613-1.348.736-1.96.246-.613-.49-.735-1.348-.245-1.961zm-3.798 5.024c-.49.613-.245 1.471.367 1.961.613.49 1.47.245 1.96-.367.49-.613.245-1.471-.367-1.961a1.529 1.529 0 0 0-1.96.367z" id="Shape" fill="#FFF" fill-rule="nonzero"/><path d="M86.853 91.77c-1.838 2.083-3.553 4.289-5.268 6.495" id="Shape" stroke="#FFF" stroke-width="1.225"/><path d="M85.75 90.79c.49-.614 1.347-.614 1.96-.123.613.49.613 1.348.123 1.96-.49.613-1.348.613-1.96.123-.49-.49-.613-1.348-.123-1.96zm-5.267 6.617c-.49.613-.368 1.47.245 1.96.612.49 1.47.368 1.96-.244.49-.613.367-1.471-.246-1.961-.612-.49-1.47-.368-1.96.245z" id="Shape" fill="#FFF" fill-rule="nonzero"/><path d="M91.017 86.868c-1.47 1.593-2.817 3.186-4.164 4.78" id="Shape" stroke="#FFF" stroke-width="1.225"/><path d="M90.037 86.01c.49-.613 1.348-.613 1.96-.123.613.49.613 1.348.123 1.961s-1.348.613-1.96.123c-.612-.49-.735-1.471-.123-1.961zm-4.287 4.78c-.49.612-.368 1.47.123 1.96.49.49 1.47.368 1.96-.123.49-.612.367-1.47-.123-1.96s-1.47-.49-1.96.122z" id="Shape" fill="#FFF" fill-rule="nonzero"/><path d="M93.345 84.417c-.735.858-1.593 1.593-2.328 2.45" id="Shape" stroke="#FFF" stroke-width="1.225"/><path d="M92.243 83.436c.49-.612 1.347-.612 1.96 0 .612.49.612 1.348 0 1.961-.49.613-1.348.613-1.96 0-.49-.49-.49-1.348 0-1.96zm-2.206 2.574c-.49.613-.49 1.47.123 1.96.612.49 1.47.49 1.96-.122.49-.613.49-1.47-.123-1.96-.612-.49-1.47-.49-1.96.122z" id="Shape" fill="#FFF" fill-rule="nonzero"/><path d="M88.935 80.618c1.47 1.225 2.94 2.45 4.287 3.799" id="Shape" stroke="#FFF" stroke-width="1.225"/><path d="M88.078 81.72c-.613-.49-.613-1.347-.123-1.96s1.347-.613 1.96-.123c.612.49.612 1.348.122 1.961-.49.49-1.347.613-1.96.123zm4.287 3.8c.613.49 1.47.49 1.96-.123s.49-1.47-.123-1.96c-.612-.49-1.47-.49-1.96.122-.49.49-.49 1.348.123 1.96z" id="Shape" fill="#FFF" fill-rule="nonzero"/><path d="M84.647 77.186a59.952 59.952 0 0 1 4.288 3.554" id="Shape" stroke="#FFF" stroke-width="1.225"/><path d="M83.79 78.167c-.613-.49-.735-1.348-.245-1.961s1.347-.735 1.96-.245.735 1.348.245 1.96c-.49.613-1.347.736-1.96.246zm4.288 3.553c.612.49 1.47.368 1.96-.122.49-.613.367-1.47-.123-1.96-.613-.49-1.47-.368-1.96.122-.49.613-.49 1.47.123 1.96z" id="Shape" fill="#FFF" fill-rule="nonzero"/><path d="M82.565 75.47c.735.49 1.47 1.104 2.082 1.594" id="Shape" stroke="#FFF" stroke-width="1.225"/><path d="M81.707 76.574c-.612-.49-.734-1.349-.244-1.961.49-.613 1.347-.736 1.96-.245.612.49.734 1.348.245 1.96-.49.613-1.348.736-1.96.246z" id="Shape" fill="#FFF" fill-rule="nonzero"/><ellipse id="Oval" fill="#FFF" fill-rule="nonzero" transform="rotate(-65.329 84.696 77.166)" cx="84.696" cy="77.166" rx="1.347" ry="1.348"/><path d="M73.132 86.255a195.828 195.828 0 0 1 9.31-10.784" id="Shape" stroke="#FFF" stroke-width="1.225"/><path d="M74.235 87.113c-.49.612-1.347.735-1.96.245s-.735-1.348-.245-1.96c.49-.614 1.347-.736 1.96-.246s.735 1.348.245 1.96zm9.31-10.662c.49-.613.49-1.47-.123-1.96-.612-.491-1.47-.491-1.96.122-.49.612-.49 1.47.123 1.96s1.47.368 1.96-.122z" id="Shape" fill="#FFF" fill-rule="nonzero"/><path d="M56.718 110.152c4.9-8.333 10.412-16.422 16.414-23.897" id="Shape" stroke="#FFF" stroke-width="1.225"/><path d="M57.943 110.887c-.368.613-1.225.858-1.838.49-.612-.367-.857-1.225-.49-1.838s1.225-.858 1.837-.49c.613.368.858 1.103.49 1.838zm16.292-23.774c.49-.613.368-1.47-.245-1.961-.612-.49-1.47-.368-1.96.245s-.368 1.47.245 1.96c.612.491 1.47.368 1.96-.244z" id="Shape" fill="#FFF" fill-rule="nonzero"/><path d="M46.917 129.27c2.94-6.618 6.248-12.99 9.8-19.118" id="Shape" stroke="#FFF" stroke-width="1.225"/><path d="M48.142 129.882c-.367.736-1.102.98-1.837.736-.735-.368-.98-1.103-.735-1.839.367-.735 1.102-.98 1.837-.735.736.368 1.103 1.103.736 1.838zm9.801-18.995c.367-.612.122-1.47-.49-1.838-.613-.368-1.47-.123-1.838.49-.367.613-.123 1.47.49 1.838.613.368 1.47.123 1.838-.49z" id="Shape" fill="#FFF" fill-rule="nonzero"/><path d="M40.792 144.956c1.838-5.27 3.92-10.54 6.125-15.686" id="Shape" stroke="#FFF" stroke-width="1.225"/><path d="M42.017 145.446a1.324 1.324 0 0 1-1.715.858 1.325 1.325 0 0 1-.857-1.716 1.324 1.324 0 0 1 1.715-.858c.735.245 1.103.98.858 1.716zm6.125-15.564c.368-.735 0-1.47-.735-1.838-.734-.368-1.47 0-1.837.735-.367.736 0 1.471.735 1.839.735.245 1.593 0 1.837-.736z" id="Shape" fill="#FFF" fill-rule="nonzero"/><path d="M35.28 164.074c1.47-6.496 3.307-12.868 5.512-18.996" id="Shape" stroke="#FFF" stroke-width="1.225"/><path d="M36.627 164.319c-.122.735-.857 1.225-1.715.98-.734-.123-1.224-.858-.98-1.716.123-.735.858-1.225 1.715-.98.736.245 1.103.98.98 1.716zm5.39-18.873a1.325 1.325 0 0 0-.857-1.716 1.324 1.324 0 0 0-1.715.858c-.245.736.123 1.47.858 1.716a1.324 1.324 0 0 0 1.715-.858z" id="Shape" fill="#FFF" fill-rule="nonzero"/><path d="M33.075 174.98a156.135 156.135 0 0 1 2.205-10.906" id="Shape" stroke="#FFF" stroke-width="1.225"/><path d="M34.422 175.225c-.122.736-.857 1.226-1.592 1.103-.735-.122-1.225-.857-1.102-1.593.122-.735.857-1.225 1.592-1.103.735.123 1.225.858 1.102 1.593zm2.205-10.906c.123-.736-.245-1.471-.98-1.716-.734-.123-1.47.245-1.715.98-.122.736.245 1.47.98 1.716.858.245 1.593-.245 1.715-.98z" id="Shape" fill="#FFF" fill-rule="nonzero"/><path d="M31.605 185.275a151.41 151.41 0 0 1 1.47-10.417" id="Shape" stroke="#FFF" stroke-width="1.225"/><path d="M32.953 185.52c-.123.735-.736 1.348-1.593 1.225-.735-.122-1.348-.735-1.225-1.593.122-.735.735-1.348 1.592-1.226.858.123 1.348.858 1.226 1.594z" id="Shape" fill="#FFF" fill-rule="nonzero"/><ellipse id="Oval" fill="#FFF" fill-rule="nonzero" transform="rotate(-25.297 33.094 174.97)" cx="33.094" cy="174.97" rx="1.347" ry="1.348"/><path d="M30.747 194.71c.245-3.185.49-6.25.858-9.435" id="Shape" stroke="#FFF" stroke-width="1.225"/><path d="M32.095 194.833c0 .736-.735 1.348-1.47 1.226-.735 0-1.348-.735-1.225-1.47 0-.736.735-1.349 1.47-1.226.735 0 1.225.735 1.225 1.47zm.858-9.313c.122-.736-.49-1.471-1.226-1.594-.735-.122-1.47.49-1.592 1.226-.123.735.49 1.47 1.225 1.593.858 0 1.47-.49 1.593-1.225z" id="Shape" fill="#FFF" fill-rule="nonzero"/><path d="M30.38 201.451l.367-6.618" id="Shape" stroke="#FFF" stroke-width="1.225"/><ellipse id="Oval" fill="#FFF" fill-rule="nonzero" cx="30.38" cy="201.451" rx="1.347" ry="1.348"/><path d="M32.095 194.833c0-.735-.49-1.47-1.348-1.47-.735 0-1.47.49-1.47 1.348 0 .735.49 1.47 1.348 1.47.735 0 1.47-.612 1.47-1.348z" id="Shape" fill="#FFF" fill-rule="nonzero"/><path d="M30.258 208.069c0-2.206 0-4.412.122-6.74" id="Shape" stroke="#FFF" stroke-width="1.225"/><path d="M31.605 208.069a1.36 1.36 0 0 1-1.348 1.348 1.36 1.36 0 0 1-1.347-1.348 1.36 1.36 0 0 1 1.348-1.348 1.36 1.36 0 0 1 1.347 1.348zm.122-6.618c0-.735-.612-1.348-1.347-1.47-.735 0-1.348.612-1.47 1.347 0 .736.613 1.348 1.348 1.471.857 0 1.47-.613 1.47-1.348z" id="Shape" fill="#FFF" fill-rule="nonzero"/><path d="M30.258 209.417v-1.348" id="Shape" stroke="#FFF" stroke-width="1.225"/><path d="M31.605 209.417a1.36 1.36 0 0 1-1.348 1.348 1.36 1.36 0 0 1-1.347-1.348 1.36 1.36 0 0 1 1.348-1.348 1.36 1.36 0 0 1 1.347 1.348z" id="Shape" fill="#FFF" fill-rule="nonzero"/><path d="M31.605 208.069a1.36 1.36 0 0 0-1.348-1.348 1.36 1.36 0 0 0-1.347 1.348 1.36 1.36 0 0 0 1.348 1.348c.735.122 1.347-.49 1.347-1.348z" id="Shape" fill="#FFF" fill-rule="nonzero"/><path d="M36.873 211.623l-6.615-2.206" id="Shape" stroke="#FFF" stroke-width="1.225"/><path d="M37.362 210.275c.735.245 1.103.98.858 1.715a1.324 1.324 0 0 1-1.715.858 1.325 1.325 0 0 1-.858-1.716c.123-.612.98-1.103 1.715-.857zm-6.615-2.206a1.324 1.324 0 0 0-1.715.857c-.244.736.123 1.471.858 1.716a1.324 1.324 0 0 0 1.715-.858c.245-.612-.122-1.348-.858-1.715z" id="Shape" fill="#FFF" fill-rule="nonzero"/><path d="M44.345 213.828c-2.45-.735-5.023-1.47-7.472-2.205" id="Shape" stroke="#FFF" stroke-width="1.225"/><path d="M44.712 212.48c.735.245 1.225.98.98 1.716-.245.735-.98 1.226-1.715.98-.734-.245-1.224-.98-.98-1.715.245-.736.98-1.226 1.715-.98zm-7.35-2.205a1.324 1.324 0 0 0-1.715.857c-.244.736.123 1.47.858 1.716a1.324 1.324 0 0 0 1.715-.858 1.325 1.325 0 0 0-.858-1.715z" id="Shape" fill="#FFF" fill-rule="nonzero"/><path d="M50.837 215.422c-2.205-.49-4.287-1.103-6.492-1.716" id="Shape" stroke="#FFF" stroke-width="1.225"/><path d="M51.083 214.074c.735.122 1.224.98.98 1.715-.245.736-.98 1.226-1.716.98-.735-.122-1.224-.98-.98-1.715.245-.613.98-1.103 1.716-.98zm-6.371-1.594c-.735-.245-1.47.245-1.715.98-.245.736.245 1.471.98 1.716.736.246 1.47-.245 1.716-.98.122-.735-.245-1.47-.98-1.716z" id="Shape" fill="#FFF" fill-rule="nonzero"/><path d="M102.9 221.672c-18.008 0-35.403-2.084-52.063-6.128" id="Shape" stroke="#FFF" stroke-width="1.225"/><path d="M102.9 220.201a1.36 1.36 0 0 1 1.347 1.348 1.36 1.36 0 0 1-1.347 1.348 1.36 1.36 0 0 1-1.348-1.348 1.36 1.36 0 0 1 1.348-1.348zm-51.817-6.127c-.736-.123-1.47.245-1.715.98-.123.735.244 1.47.98 1.716.735.122 1.47-.245 1.715-.98.244-.736-.245-1.471-.98-1.716z" id="Shape" fill="#FFF" fill-rule="nonzero"/><path d="M147.857 217.015a225.548 225.548 0 0 1-44.957 4.534" id="Shape" stroke="#FFF" stroke-width="1.225"/><ellipse id="Oval" fill="#FFF" fill-rule="nonzero" cx="147.857" cy="217.015" rx="1.347" ry="1.348"/><path d="M102.9 220.201a1.36 1.36 0 0 0-1.348 1.348 1.36 1.36 0 0 0 1.348 1.348 1.36 1.36 0 0 0 1.347-1.348 1.36 1.36 0 0 0-1.347-1.348z" id="Shape" fill="#FFF" fill-rule="nonzero"/><path d="M197.225 200.593c-15.558 7.353-32.095 12.868-49.368 16.422" id="Shape" stroke="#FFF" stroke-width="1.225"/><path d="M196.613 199.368c.734-.368 1.47 0 1.837.612.368.736 0 1.471-.612 1.839-.736.367-1.47 0-1.838-.613-.368-.735 0-1.47.613-1.838zm-49 16.299c-.736.122-1.226.858-1.103 1.593s.858 1.225 1.593 1.103c.734-.123 1.224-.858 1.102-1.593-.123-.736-.858-1.226-1.593-1.103z" id="Shape" fill="#FFF" fill-rule="nonzero"/><path d="M203.472 197.53c-2.082 1.102-4.165 2.083-6.247 3.063" id="Shape" stroke="#FFF" stroke-width="1.225"/><path d="M202.86 196.304c.735-.368 1.47-.123 1.837.613.368.735.123 1.47-.612 1.838-.735.368-1.47.122-1.838-.613-.367-.613-.122-1.47.613-1.838zm-6.247 3.064c-.736.367-.98 1.103-.613 1.838.368.735 1.102.98 1.838.613.734-.368.98-1.103.612-1.839-.245-.612-1.102-.98-1.837-.612z" id="Shape" fill="#FFF" fill-rule="nonzero"/><path d="M210.7 193.608c-2.45 1.348-4.777 2.573-7.227 3.921" id="Shape" stroke="#FFF" stroke-width="1.225"/><path d="M210.088 192.505c.612-.368 1.47-.123 1.837.49s.123 1.47-.49 1.838c-.613.368-1.47.123-1.838-.49-.367-.735-.245-1.47.49-1.838zm-7.228 3.799c-.735.368-.98 1.225-.613 1.838.368.735 1.225.98 1.838.613.735-.368.98-1.226.612-1.838-.367-.736-1.225-.98-1.837-.613z" id="Shape" fill="#FFF" fill-rule="nonzero"/><path d="M217.315 189.809c-2.205 1.348-4.41 2.573-6.615 3.799" id="Shape" stroke="#FFF" stroke-width="1.225"/><path d="M216.702 188.583c.613-.367 1.47-.245 1.838.49.368.736.245 1.471-.49 1.839-.735.367-1.47.245-1.838-.49-.367-.736-.244-1.348.49-1.839z" id="Shape" fill="#FFF" fill-rule="nonzero"/><ellipse id="Oval" fill="#FFF" fill-rule="nonzero" transform="rotate(-32.446 210.678 193.662)" cx="210.678" cy="193.662" rx="1.347" ry="1.348"/><path d="M222.827 186.377c-1.837 1.226-3.674 2.329-5.512 3.432" id="Shape" stroke="#FFF" stroke-width="1.225"/><path d="M222.093 185.275a1.529 1.529 0 0 1 1.96.367 1.53 1.53 0 0 1-.368 1.96 1.529 1.529 0 0 1-1.96-.367c-.49-.735-.245-1.593.368-1.96zm-5.391 3.308c-.612.368-.857 1.226-.49 1.839.368.612 1.226.857 1.838.49.612-.368.857-1.226.49-1.838-.367-.613-1.225-.858-1.838-.49z" id="Shape" fill="#FFF" fill-rule="nonzero"/><path d="M226.87 183.681c-1.347.858-2.695 1.839-4.043 2.696" id="Shape" stroke="#FFF" stroke-width="1.225"/><ellipse id="Oval" fill="#FFF" fill-rule="nonzero" transform="rotate(-39.205 226.87 183.721)" cx="226.869" cy="183.721" rx="1.348" ry="1.348"/><ellipse id="Oval" fill="#FFF" fill-rule="nonzero" cx="222.827" cy="186.377" rx="1.347" ry="1.348"/><path d="M75.46 43.24c1.348-1.225 2.573-2.328 3.92-3.431" id="Shape" stroke="#FFF" stroke-width="1.225"/><path d="M76.317 44.343c-.612.49-1.47.49-1.96-.122-.49-.613-.49-1.471.123-1.961.612-.49 1.47-.49 1.96.122.49.49.49 1.47-.123 1.961zm3.92-3.431c.613-.49.613-1.348.123-1.961s-1.347-.613-1.96-.123-.613 1.348-.123 1.961c.49.49 1.47.613 1.96.123z" id="Shape" fill="#FFF" fill-rule="nonzero"/><path d="M68.6 49.735a171.78 171.78 0 0 1 6.86-6.495" id="Shape" stroke="#FFF" stroke-width="1.225"/><path d="M69.58 50.716c-.49.49-1.47.49-1.96 0s-.49-1.47 0-1.961c.49-.49 1.47-.49 1.96 0 .49.613.49 1.47 0 1.96zm6.737-6.373c.613-.49.613-1.348.123-1.96-.49-.613-1.347-.613-1.96-.123-.612.49-.612 1.348-.123 1.96.49.613 1.47.613 1.96.123z" id="Shape" fill="#FFF" fill-rule="nonzero"/><path d="M59.535 59.172c2.94-3.187 5.88-6.373 8.943-9.437" id="Shape" stroke="#FFF" stroke-width="1.225"/><path d="M60.638 60.152c-.49.613-1.348.613-1.96.123-.613-.49-.613-1.349-.123-1.961.49-.613 1.348-.613 1.96-.123.49.49.612 1.348.123 1.961zm8.942-9.436c.49-.49.49-1.47 0-1.961-.49-.49-1.47-.49-1.96 0s-.49 1.47 0 1.96c.49.613 1.347.613 1.96 0z" id="Shape" fill="#FFF" fill-rule="nonzero"/><path d="M46.917 74.49c4.043-5.27 8.208-10.416 12.618-15.318" id="Shape" stroke="#FFF" stroke-width="1.225"/><path d="M48.02 75.348c-.49.613-1.348.735-1.96.245-.613-.49-.735-1.348-.245-1.96.49-.613 1.348-.736 1.96-.246.613.49.735 1.348.245 1.961zm12.618-15.196c.49-.613.49-1.47-.123-1.96-.612-.491-1.47-.491-1.96.122-.49.612-.49 1.47.123 1.96.612.49 1.347.368 1.96-.122z" id="Shape" fill="#FFF" fill-rule="nonzero"/><path d="M40.792 83.069c1.96-2.942 4.043-5.76 6.125-8.579" id="Shape" stroke="#FFF" stroke-width="1.225"/><path d="M41.895 83.926a1.529 1.529 0 0 1-1.96.368 1.53 1.53 0 0 1-.367-1.96 1.529 1.529 0 0 1 1.96-.368 1.53 1.53 0 0 1 .367 1.96zm6.125-8.578c.49-.613.367-1.47-.245-1.96s-1.47-.368-1.96.244c-.49.613-.367 1.47.245 1.961.612.49 1.47.368 1.96-.245z" id="Shape" fill="#FFF" fill-rule="nonzero"/><path d="M30.747 99.245C33.81 93.73 37.24 88.338 40.792 83.07" id="Shape" stroke="#FFF" stroke-width="1.225"/><path d="M31.973 99.98c-.368.613-1.226.858-1.838.49-.613-.367-.858-1.225-.49-1.838.367-.612 1.225-.857 1.838-.49.612.368.857 1.226.49 1.838zm9.922-16.054c.49-.612.245-1.47-.367-1.96-.613-.49-1.47-.245-1.96.367-.49.613-.245 1.47.367 1.961.612.368 1.47.245 1.96-.368z" id="Shape" fill="#FFF" fill-rule="nonzero"/><path d="M15.313 132.946a218.797 218.797 0 0 1 15.312-33.578" id="Shape" stroke="#FFF" stroke-width="1.225"/><path d="M16.66 133.436c-.245.736-1.103 1.103-1.715.858-.613-.245-1.103-1.103-.857-1.716.245-.735 1.102-1.103 1.715-.857.612.245 1.102.98.857 1.715zM31.973 99.98c.367-.612.122-1.47-.49-1.838-.613-.367-1.47-.122-1.838.49-.367.613-.122 1.47.49 1.839.612.367 1.47.122 1.837-.49z" id="Shape" fill="#FFF" fill-rule="nonzero"/><path d="M12.985 139.809a150.91 150.91 0 0 1 2.328-6.863" id="Shape" stroke="#FFF" stroke-width="1.225"/><path d="M14.332 140.176a1.324 1.324 0 0 1-1.715.858 1.325 1.325 0 0 1-.857-1.715 1.324 1.324 0 0 1 1.715-.858c.735.245 1.103.98.857 1.715zm2.328-6.74a1.325 1.325 0 0 0-.857-1.715 1.324 1.324 0 0 0-1.716.857 1.325 1.325 0 0 0 .858 1.716c.612.245 1.47-.122 1.715-.858z" id="Shape" fill="#FFF" fill-rule="nonzero"/><path d="M5.268 171.794c1.837-10.907 4.41-21.691 7.717-31.985" id="Shape" stroke="#FFF" stroke-width="1.225"/><path d="M6.615 172.04c-.123.735-.857 1.225-1.593 1.102-.735-.122-1.225-.858-1.102-1.593s.857-1.225 1.593-1.103c.734.123 1.224.735 1.102 1.593zm7.717-31.864a1.325 1.325 0 0 0-.857-1.715 1.324 1.324 0 0 0-1.715.858c-.245.735.123 1.47.857 1.715a1.324 1.324 0 0 0 1.715-.858z" id="Shape" fill="#FFF" fill-rule="nonzero"/><path d="M2.572 196.672c.368-8.456 1.348-16.79 2.696-24.878" id="Shape" stroke="#FFF" stroke-width="1.225"/><path d="M4.043 196.794c0 .735-.736 1.348-1.47 1.348-.736 0-1.348-.735-1.348-1.47 0-.736.735-1.348 1.47-1.348s1.348.612 1.348 1.47zm2.572-24.754c.122-.736-.368-1.471-1.103-1.594-.734-.122-1.47.368-1.592 1.103-.123.735.367 1.47 1.103 1.593.735.123 1.47-.367 1.592-1.103z" id="Shape" fill="#FFF" fill-rule="nonzero"/><path d="M2.328 208.069c0-3.8.122-7.598.244-11.397" id="Shape" stroke="#FFF" stroke-width="1.225"/><path d="M3.675 208.069a1.36 1.36 0 0 1-1.347 1.348 1.36 1.36 0 0 1-1.348-1.348 1.36 1.36 0 0 1 1.348-1.348 1.36 1.36 0 0 1 1.347 1.348z" id="Shape" fill="#FFF" fill-rule="nonzero"/><ellipse id="Oval" fill="#FFF" fill-rule="nonzero" cx="2.572" cy="196.672" rx="1.347" ry="1.348"/><path d="M2.94 224c-.368-5.27-.612-10.54-.612-15.931" id="Shape" stroke="#FFF" stroke-width="1.225"/><ellipse id="Oval" fill="#FFF" fill-rule="nonzero" cx="2.94" cy="224" rx="1.347" ry="1.348"/><path d="M3.675 208.069a1.36 1.36 0 0 0-1.347-1.348 1.36 1.36 0 0 0-1.348 1.348 1.36 1.36 0 0 0 1.348 1.348c.735.122 1.347-.49 1.347-1.348z" id="Shape" fill="#FFF" fill-rule="nonzero"/><path d="M6.737 222.652c-1.347.368-2.694.858-3.797 1.47" id="Shape" stroke="#FFF" stroke-width="1.225"/><path d="M6.37 221.304c.735-.123 1.47.245 1.715.98.122.736-.245 1.47-.98 1.716-.735.123-1.47-.245-1.715-.98-.122-.858.245-1.594.98-1.716z" id="Shape" fill="#FFF" fill-rule="nonzero"/><ellipse id="Oval" fill="#FFF" fill-rule="nonzero" cx="2.94" cy="224" rx="1.347" ry="1.348"/><path d="M10.902 222.04c-1.47 0-2.817.122-4.164.49" id="Shape" stroke="#FFF" stroke-width="1.225"/><path d="M10.902 220.691a1.36 1.36 0 0 1 1.348 1.348 1.36 1.36 0 0 1-1.348 1.348 1.36 1.36 0 0 1-1.347-1.348 1.36 1.36 0 0 1 1.348-1.348zm-4.532.613c-.735.122-1.225.98-.98 1.716.123.735.98 1.225 1.715.98.735-.123 1.225-.98.98-1.716-.245-.735-.98-1.225-1.715-.98z" id="Shape" fill="#FFF" fill-rule="nonzero"/><path d="M14.21 222.53a16.071 16.071 0 0 0-3.308-.368" id="Shape" stroke="#FFF" stroke-width="1.225"/><path d="M14.455 221.181c.735.123 1.225.858 1.102 1.594-.122.735-.857 1.225-1.592 1.102-.735-.122-1.225-.857-1.102-1.593.122-.858.857-1.348 1.592-1.103zm-3.553-.49a1.36 1.36 0 0 0-1.347 1.348 1.36 1.36 0 0 0 1.348 1.348 1.36 1.36 0 0 0 1.347-1.348 1.36 1.36 0 0 0-1.348-1.348z" id="Shape" fill="#FFF" fill-rule="nonzero"/><path d="M16.782 223.142c.123.123-1.102-.245-2.572-.613" id="Shape" stroke="#FFF" stroke-width="1.225"/><path d="M16.415 224.368c-.735-.245-1.102-1.103-.857-1.716.245-.735 1.102-1.103 1.715-.858.735.245 1.102 1.103.857 1.716-.245.735-1.102 1.103-1.715.858z" id="Shape" fill="#FFF" fill-rule="nonzero"/><path d="M14.455 221.181c-.735-.122-1.47.368-1.592 1.103-.123.736.367 1.47 1.102 1.593.735.123 1.47-.367 1.592-1.102.123-.736-.367-1.471-1.102-1.594z" id="Shape" fill="#FFF" fill-rule="nonzero"/><path d="M16.293 208.069c0 5.024.122 10.049.49 14.95" id="Shape" stroke="#FFF" stroke-width="1.225"/><path d="M14.945 208.069a1.36 1.36 0 0 1 1.348-1.348 1.36 1.36 0 0 1 1.347 1.348 1.36 1.36 0 0 1-1.348 1.348c-.735 0-1.347-.49-1.347-1.348zm.49 15.196c0 .735.735 1.348 1.47 1.225.735 0 1.348-.735 1.225-1.47 0-.736-.735-1.348-1.47-1.226-.735 0-1.225.613-1.225 1.47z" id="Shape" fill="#FFF" fill-rule="nonzero"/><path d="M25.358 147.04a209.603 209.603 0 0 0-9.066 61.029" id="Shape" stroke="#FFF" stroke-width="1.225"/><path d="M24.133 146.549a1.324 1.324 0 0 1 1.715-.858c.735.245 1.102.98.857 1.716a1.324 1.324 0 0 1-1.715.858 1.325 1.325 0 0 1-.857-1.716zm-9.188 61.52a1.36 1.36 0 0 0 1.348 1.348 1.36 1.36 0 0 0 1.347-1.348 1.36 1.36 0 0 0-1.348-1.348 1.36 1.36 0 0 0-1.347 1.348z" id="Shape" fill="#FFF" fill-rule="nonzero"/><path d="M69.213 69.466C49.368 91.525 34.3 117.873 25.358 147.039" id="Shape" stroke="#FFF" stroke-width="1.225"/><path d="M68.11 68.485c.49-.612 1.347-.612 1.96-.122s.613 1.348.123 1.96c-.49.613-1.348.613-1.96.123-.49-.49-.613-1.348-.123-1.96zm-43.977 78.064c-.245.735.245 1.47.857 1.716.735.245 1.47-.245 1.715-.858.245-.735-.245-1.47-.857-1.716-.735-.245-1.593.245-1.715.858z" id="Shape" fill="#FFF" fill-rule="nonzero"/><path d="M74.235 63.951c-1.715 1.838-3.43 3.554-5.022 5.392" id="Shape" stroke="#FFF" stroke-width="1.225"/><path d="M73.255 62.97c.49-.49 1.348-.612 1.96 0 .612.613.612 1.349 0 1.961-.49.49-1.347.613-1.96 0-.612-.49-.612-1.348 0-1.96z" id="Shape" fill="#FFF" fill-rule="nonzero"/><ellipse id="Oval" fill="#FFF" fill-rule="nonzero" transform="rotate(-84.95 69.235 69.373)" cx="69.235" cy="69.373" rx="1.347" ry="1.348"/><path d="M77.91 60.275l-3.675 3.676" id="Shape" stroke="#FFF" stroke-width="1.225"/><path d="M76.93 59.294c.49-.49 1.47-.49 1.96 0s.49 1.47 0 1.96c-.49.491-1.47.491-1.96 0-.49-.49-.613-1.47 0-1.96zm-3.675 3.676c-.49.49-.49 1.471 0 1.961s1.47.49 1.96 0 .49-1.47 0-1.96c-.612-.49-1.47-.49-1.96 0z" id="Shape" fill="#FFF" fill-rule="nonzero"/><path d="M80.972 57.21a36.132 36.132 0 0 0-3.062 3.065" id="Shape" stroke="#FFF" stroke-width="1.225"/><path d="M79.993 56.23c.612-.49 1.47-.49 1.96 0 .49.613.49 1.471 0 1.961-.613.49-1.47.49-1.96 0-.613-.49-.49-1.47 0-1.96zm-3.063 3.064c-.49.49-.49 1.47 0 1.96.49.491 1.47.491 1.96 0 .49-.49.49-1.47 0-1.96-.612-.49-1.47-.49-1.96 0z" id="Shape" fill="#FFF" fill-rule="nonzero"/><path d="M92.978 65.912a164.429 164.429 0 0 0-12.005-8.579" id="Shape" stroke="#FFF" stroke-width="1.225"/><path d="M93.835 64.809c.613.49.735 1.348.245 1.96-.49.613-1.347.736-1.96.246s-.735-1.348-.245-1.961 1.347-.735 1.96-.245zm-12.128-8.701a1.529 1.529 0 0 0-1.96.367 1.53 1.53 0 0 0 .368 1.961c.613.368 1.47.245 1.96-.367.49-.736.245-1.594-.368-1.961z" id="Shape" fill="#FFF" fill-rule="nonzero"/><path d="M106.575 77.676a156.017 156.017 0 0 0-13.597-11.764" id="Shape" stroke="#FFF" stroke-width="1.225"/><path d="M107.555 76.696c.49.49.612 1.348 0 1.96-.49.491-1.348.614-1.96 0-.49-.49-.612-1.347 0-1.96.49-.49 1.347-.49 1.96 0zm-13.72-11.887c-.612-.49-1.47-.368-1.96.245s-.368 1.47.245 1.96c.612.49 1.47.368 1.96-.244.49-.613.368-1.471-.245-1.961z" id="Shape" fill="#FFF" fill-rule="nonzero"/><path d="M137.077 116.157c-8.452-14.216-18.742-27.083-30.502-38.48" id="Shape" stroke="#FFF" stroke-width="1.225"/><path d="M138.303 115.422c.367.612.122 1.47-.49 1.838-.613.367-1.47.122-1.838-.49-.368-.613-.123-1.471.49-1.839.49-.367 1.347-.122 1.838.49zm-30.748-38.726c-.49-.49-1.47-.49-1.96 0s-.49 1.47 0 1.96c.49.491 1.47.491 1.96 0 .49-.49.49-1.47 0-1.96z" id="Shape" fill="#FFF" fill-rule="nonzero"/><path d="M144.795 130.74c-2.327-5.024-4.9-9.926-7.718-14.583" id="Shape" stroke="#FFF" stroke-width="1.225"/><path d="M146.02 130.127c.367.736 0 1.471-.613 1.839-.734.367-1.47 0-1.837-.613-.368-.735 0-1.47.613-1.838.734-.368 1.592 0 1.837.612zm-7.717-14.705c-.368-.613-1.226-.858-1.838-.49-.613.367-.858 1.225-.49 1.838.368.612 1.225.857 1.838.49.612-.368.857-1.103.49-1.838z" id="Shape" fill="#FFF" fill-rule="nonzero"/><path d="M150.675 144.588c-1.715-4.78-3.675-9.313-5.88-13.848" id="Shape" stroke="#FFF" stroke-width="1.225"/><ellipse id="Oval" fill="#FFF" fill-rule="nonzero" transform="rotate(-51.451 150.644 144.617)" cx="150.644" cy="144.617" rx="1.348" ry="1.348"/><path d="M146.02 130.127c-.368-.735-1.103-.98-1.838-.612-.734.367-.98 1.103-.612 1.838.368.735 1.103.98 1.838.613.735-.245.98-1.103.612-1.839z" id="Shape" fill="#FFF" fill-rule="nonzero"/><path d="M153.002 151.328c-.734-2.205-1.47-4.411-2.327-6.617" id="Shape" stroke="#FFF" stroke-width="1.225"/><path d="M154.35 150.838a1.325 1.325 0 0 1-.857 1.716 1.324 1.324 0 0 1-1.715-.858 1.325 1.325 0 0 1 .857-1.716 1.324 1.324 0 0 1 1.715.858zm-2.327-6.618c-.245-.735-1.103-1.102-1.838-.857-.735.245-1.102 1.103-.858 1.838.245.735 1.103 1.103 1.838.858.735-.245 1.103-1.226.858-1.838z" id="Shape" fill="#FFF" fill-rule="nonzero"/><path d="M155.085 157.824c-.613-2.206-1.347-4.412-1.96-6.496" id="Shape" stroke="#FFF" stroke-width="1.225"/><path d="M156.433 157.456c.245.735-.245 1.47-.98 1.716-.736.245-1.47-.246-1.715-.98-.245-.736.244-1.471.98-1.717.734-.245 1.47.246 1.715.98zm-2.083-6.618a1.324 1.324 0 0 0-1.715-.858 1.325 1.325 0 0 0-.857 1.716c.245.735.98 1.103 1.715.858.734-.123 1.102-.98.857-1.716z" id="Shape" fill="#FFF" fill-rule="nonzero"/><path d="M158.76 156.475c-1.225.49-2.45.858-3.797 1.226" id="Shape" stroke="#FFF" stroke-width="1.225"/><path d="M158.393 155.25a1.324 1.324 0 0 1 1.714.858 1.325 1.325 0 0 1-.857 1.716 1.324 1.324 0 0 1-1.715-.858 1.325 1.325 0 0 1 .858-1.716zm-3.798 1.225a1.325 1.325 0 0 0-.857 1.716c.244.735.98 1.103 1.714.858a1.325 1.325 0 0 0 .858-1.716 1.324 1.324 0 0 0-1.715-.858z" id="Shape" fill="#FFF" fill-rule="nonzero"/><path d="M163.537 154.76c-1.592.613-3.062 1.225-4.655 1.715" id="Shape" stroke="#FFF" stroke-width="1.225"/><path d="M162.925 153.534c.735-.245 1.47.123 1.837.736.245.735-.122 1.47-.734 1.838-.736.245-1.47-.123-1.838-.735-.245-.736.123-1.594.735-1.839zm-4.532 1.716c-.736.245-1.103 1.103-.858 1.716.245.735 1.102 1.103 1.715.858.735-.246 1.102-1.103.857-1.716-.244-.735-1.102-1.103-1.714-.858z" id="Shape" fill="#FFF" fill-rule="nonzero"/><path d="M168.192 152.922c-1.592.612-3.062 1.348-4.655 1.96" id="Shape" stroke="#FFF" stroke-width="1.225"/><path d="M167.58 151.574c.735-.246 1.47 0 1.837.735.245.735 0 1.47-.734 1.838-.736.245-1.47 0-1.838-.735-.245-.736.123-1.47.735-1.838zm-4.655 1.96c-.735.245-1.103 1.103-.735 1.839.245.735 1.102 1.102 1.838.735.734-.245 1.102-1.103.734-1.838-.244-.736-1.102-1.103-1.837-.736z" id="Shape" fill="#FFF" fill-rule="nonzero"/><path d="M166.11 146.181c.735 2.206 1.47 4.412 2.082 6.74" id="Shape" stroke="#FFF" stroke-width="1.225"/><path d="M164.762 146.672a1.325 1.325 0 0 1 .858-1.716 1.324 1.324 0 0 1 1.715.858 1.325 1.325 0 0 1-.858 1.715 1.324 1.324 0 0 1-1.715-.857zm2.083 6.618c.245.735.98 1.102 1.715.98.735-.245 1.102-.98.98-1.716-.245-.735-.98-1.103-1.715-.98-.735.245-1.225.98-.98 1.715z" id="Shape" fill="#FFF" fill-rule="nonzero"/><path d="M162.19 135.52c1.47 3.554 2.695 7.107 3.92 10.661" id="Shape" stroke="#FFF" stroke-width="1.225"/><path d="M160.843 136.01c-.245-.735 0-1.47.734-1.838.736-.246 1.47 0 1.838.735.245.735 0 1.47-.735 1.838-.735.368-1.593 0-1.838-.735zm3.919 10.662c.245.735.98 1.103 1.715.857a1.325 1.325 0 0 0 .858-1.715 1.324 1.324 0 0 0-1.715-.858c-.735.122-1.102.98-.858 1.716z" id="Shape" fill="#FFF" fill-rule="nonzero"/><path d="M154.718 119.22c2.695 5.27 5.145 10.662 7.472 16.3" id="Shape" stroke="#FFF" stroke-width="1.225"/><path d="M153.493 119.833c-.368-.735-.123-1.47.612-1.838.735-.368 1.47-.122 1.838.613.367.735.122 1.47-.613 1.838-.613.368-1.47.123-1.838-.613zm7.35 16.177c.245.735 1.102 1.103 1.837.735.735-.245 1.102-1.103.735-1.838-.245-.735-1.102-1.103-1.838-.735-.612.367-.98 1.103-.734 1.838z" id="Shape" fill="#FFF" fill-rule="nonzero"/><path d="M128.625 80.618c10.167 11.764 18.988 24.632 26.093 38.603" id="Shape" stroke="#FFF" stroke-width="1.225"/><path d="M127.645 81.598c-.49-.613-.49-1.47.123-1.96.612-.49 1.47-.49 1.96.122.49.613.49 1.47-.123 1.96-.612.49-1.47.368-1.96-.122zm25.848 38.235c.367.736 1.225.98 1.837.613.612-.368.98-1.225.612-1.838-.367-.613-1.225-.98-1.837-.613-.612.368-.98 1.226-.612 1.838z" id="Shape" fill="#FFF" fill-rule="nonzero"/><path d="M111.843 63.583c5.88 5.392 11.514 11.03 16.782 17.157" id="Shape" stroke="#FFF" stroke-width="1.225"/><path d="M110.985 64.564c-.612-.49-.612-1.348-.123-1.961.49-.613 1.348-.613 1.96-.123.613.49.613 1.348.123 1.961s-1.47.613-1.96.123zm16.66 17.034c.49.613 1.348.613 1.96.123.613-.49.613-1.348.123-1.961s-1.348-.613-1.96-.123c-.613.49-.613 1.348-.123 1.961z" id="Shape" fill="#FFF" fill-rule="nonzero"/><path d="M98.49 52.431c4.655 3.554 9.188 7.23 13.475 11.152" id="Shape" stroke="#FFF" stroke-width="1.225"/><path d="M97.632 53.534c-.612-.49-.735-1.348-.245-1.96.49-.613 1.348-.736 1.96-.246.613.49.736 1.348.246 1.961s-1.348.736-1.96.245zm13.353 11.03c.612.49 1.47.49 1.96-.123s.49-1.47-.122-1.96c-.613-.49-1.47-.49-1.96.122-.49.613-.49 1.47.122 1.96z" id="Shape" fill="#FFF" fill-rule="nonzero"/><path d="M91.752 47.652c2.328 1.593 4.533 3.186 6.738 4.78" id="Shape" stroke="#FFF" stroke-width="1.225"/><path d="M90.895 48.755a1.53 1.53 0 0 1-.367-1.96 1.529 1.529 0 0 1 1.96-.369 1.53 1.53 0 0 1 .367 1.961c-.368.613-1.225.858-1.96.368z" id="Shape" fill="#FFF" fill-rule="nonzero"/><ellipse id="Oval" fill="#FFF" fill-rule="nonzero" cx="98.49" cy="52.431" rx="1.347" ry="1.348"/><path d="M83.668 42.382c2.694 1.716 5.512 3.432 8.084 5.27" id="Shape" stroke="#FFF" stroke-width="1.225"/><path d="M82.933 43.485c-.613-.367-.858-1.225-.49-1.96.367-.613 1.225-.858 1.96-.49.612.367.857 1.225.49 1.96-.49.735-1.348.98-1.96.49z" id="Shape" fill="#FFF" fill-rule="nonzero"/><ellipse id="Oval" fill="#FFF" fill-rule="nonzero" cx="91.752" cy="47.652" rx="1.347" ry="1.348"/><path d="M79.38 39.809c1.47.858 2.818 1.716 4.288 2.573" id="Shape" stroke="#FFF" stroke-width="1.225"/><ellipse id="Oval" fill="#FFF" fill-rule="nonzero" cx="79.38" cy="39.809" rx="1.347" ry="1.348"/><path d="M82.933 43.485c.612.368 1.47.245 1.96-.49.367-.613.245-1.47-.49-1.96-.613-.368-1.47-.246-1.96.49-.368.735-.245 1.593.49 1.96z" id="Shape" fill="#FFF" fill-rule="nonzero"/><path d="M78.767 12.358c.246-1.226.49-2.574.49-3.922V8.07" id="Shape" stroke="#FFF" stroke-width="1.225"/><path d="M80.115 12.603c-.122.735-.858 1.225-1.715.98-.735-.122-1.225-.858-.98-1.715.123-.736.858-1.226 1.715-.98.612.244 1.102.98.98 1.715zm-2.328-4.534a1.36 1.36 0 0 0 1.348 1.348 1.36 1.36 0 0 0 1.347-1.348 1.36 1.36 0 0 0-1.347-1.348c-.735-.123-1.348.49-1.348 1.348z" id="Shape" fill="#FFF" fill-rule="nonzero"/><path d="M77.052 16.77c.735-1.348 1.348-2.819 1.715-4.412" id="Shape" stroke="#FFF" stroke-width="1.225"/><path d="M78.278 17.382c-.368.613-1.226.98-1.838.613-.612-.368-.98-1.225-.612-1.838.367-.613 1.224-.98 1.837-.613.735.368.98 1.226.612 1.838zm1.837-4.779c.123-.735-.245-1.47-.98-1.716-.735-.122-1.47.245-1.715.98-.123.736.245 1.471.98 1.716.735.245 1.47-.122 1.715-.98z" id="Shape" fill="#FFF" fill-rule="nonzero"/><path d="M73.868 21.059a18.595 18.595 0 0 0 3.184-4.29" id="Shape" stroke="#FFF" stroke-width="1.225"/><path d="M74.847 22.04c-.49.49-1.47.49-1.96 0-.49-.491-.49-1.471 0-1.962.49-.49 1.47-.49 1.96 0s.49 1.348 0 1.961zm3.431-4.658c.367-.612.122-1.47-.613-1.838-.613-.368-1.47-.122-1.838.613-.367.613-.122 1.47.613 1.838.612.368 1.47.123 1.838-.613z" id="Shape" fill="#FFF" fill-rule="nonzero"/><path d="M76.563 22.284c-.858-.49-1.716-.858-2.695-1.348" id="Shape" stroke="#FFF" stroke-width="1.225"/><path d="M77.175 21.059c.735.367.98 1.225.612 1.838-.367.735-1.225.98-1.837.613-.735-.368-.98-1.226-.612-1.838.245-.613 1.102-.858 1.837-.613zM74.48 19.71c-.735-.367-1.47 0-1.838.614-.367.735 0 1.47.613 1.838.735.367 1.47 0 1.838-.613.367-.613 0-1.47-.613-1.838z" id="Shape" fill="#FFF" fill-rule="nonzero"/><path d="M81.463 24.98c-1.593-.857-3.308-1.715-5.023-2.573" id="Shape" stroke="#FFF" stroke-width="1.225"/><path d="M82.198 23.755c.612.368.857 1.225.49 1.838-.368.613-1.225.858-1.838.49-.612-.367-.857-1.225-.49-1.838.245-.613 1.103-.858 1.838-.49z" id="Shape" fill="#FFF" fill-rule="nonzero"/><ellipse id="Oval" fill="#FFF" fill-rule="nonzero" cx="76.563" cy="22.284" rx="1.347" ry="1.348"/><path d="M84.647 26.696c-1.102-.613-2.082-1.225-3.184-1.716" id="Shape" stroke="#FFF" stroke-width="1.225"/><path d="M85.382 25.47c.613.368.858 1.226.49 1.839-.367.613-1.225.858-1.837.49-.612-.368-.858-1.225-.49-1.838.245-.613 1.102-.858 1.837-.49zm-3.184-1.715c-.613-.368-1.47-.123-1.838.49-.367.613-.123 1.47.49 1.838.613.368 1.47.123 1.838-.49.367-.613.122-1.47-.49-1.838z" id="Shape" fill="#FFF" fill-rule="nonzero"/><path d="M93.345 31.966c-2.817-1.839-5.757-3.554-8.698-5.147" id="Shape" stroke="#FFF" stroke-width="1.225"/><path d="M94.08 30.74c.612.368.858 1.226.368 1.961-.368.613-1.225.858-1.96.368-.613-.368-.858-1.226-.368-1.961.367-.613 1.225-.735 1.96-.368z" id="Shape" fill="#FFF" fill-rule="nonzero"/><ellipse id="Oval" fill="#FFF" fill-rule="nonzero" cx="84.647" cy="26.696" rx="1.347" ry="1.348"/><path d="M135.607 67.505c-12.495-13.603-26.704-25.613-42.262-35.54" id="Shape" stroke="#FFF" stroke-width="1.225"/><path d="M136.588 66.525c.49.612.49 1.47-.123 1.96s-1.47.49-1.96-.122c-.49-.613-.49-1.47.123-1.961.612-.49 1.47-.368 1.96.123zM94.08 30.74a1.529 1.529 0 0 0-1.96.368 1.53 1.53 0 0 0 .367 1.96c.613.368 1.47.246 1.96-.367a1.53 1.53 0 0 0-.367-1.96z" id="Shape" fill="#FFF" fill-rule="nonzero"/><path d="M163.537 105.985a232.041 232.041 0 0 0-10.29-16.544 382.3 382.3 0 0 0-8.33-11.274c-2.94-3.677-6.002-7.23-9.187-10.785" id="Shape" stroke="#FFF" stroke-width="1.225"/><path d="M164.64 105.373c.368.612.123 1.47-.49 1.838-.613.367-1.47.122-1.838-.49-.367-.613-.122-1.471.49-1.839.613-.49 1.47-.245 1.838.49zm-28.052-38.848c-.49-.613-1.348-.613-1.96-.123-.613.49-.613 1.348-.123 1.96.49.613 1.347.613 1.96.123.612-.49.735-1.348.123-1.96z" id="Shape" fill="#FFF" fill-rule="nonzero"/><path d="M176.155 132.946c-3.553-9.314-7.84-18.26-12.618-26.96" id="Shape" stroke="#FFF" stroke-width="1.225"/><path d="M177.38 132.456c.245.735-.123 1.47-.735 1.838-.735.245-1.47-.122-1.838-.735-.244-.735.123-1.47.736-1.838.857-.368 1.592 0 1.837.735zm-12.74-27.083c-.367-.613-1.225-.858-1.837-.49-.613.367-.858 1.225-.49 1.838.367.612 1.225.857 1.837.49.735-.368.857-1.226.49-1.838z" id="Shape" fill="#FFF" fill-rule="nonzero"/><path d="M182.28 151.328c-1.715-6.25-3.798-12.377-6.125-18.382" id="Shape" stroke="#FFF" stroke-width="1.225"/><path d="M183.627 150.96c.245.736-.245 1.471-.98 1.716-.734.246-1.47-.245-1.714-.98-.245-.735.245-1.47.98-1.716.734-.245 1.47.245 1.714.98zm-6.247-18.504c-.245-.735-1.102-1.103-1.838-.735-.734.245-1.102 1.103-.734 1.838.245.735 1.102 1.103 1.837.735.735-.368 1.102-1.103.735-1.838z" id="Shape" fill="#FFF" fill-rule="nonzero"/><path d="M184.485 160.152c-.735-2.941-1.47-5.882-2.328-8.824" id="Shape" stroke="#FFF" stroke-width="1.225"/><path d="M185.833 159.784c.122.736-.245 1.47-.98 1.716-.736.123-1.47-.245-1.716-.98-.122-.736.245-1.471.98-1.716.736-.245 1.593.245 1.716.98zm-2.206-8.824c-.245-.735-.98-1.102-1.715-.98-.734.245-1.102.98-.98 1.716.246.735.98 1.103 1.716.98.734-.122 1.102-.98.98-1.715z" id="Shape" fill="#FFF" fill-rule="nonzero"/><path d="M179.708 162.48c1.592-.735 3.185-1.593 4.777-2.328" id="Shape" stroke="#FFF" stroke-width="1.225"/><path d="M180.32 163.706c-.735.368-1.47 0-1.838-.613-.367-.735 0-1.47.613-1.838.735-.368 1.47 0 1.838.613.367.735 0 1.593-.613 1.838zm4.777-2.329c.736-.367.98-1.225.613-1.838-.368-.613-1.225-.98-1.838-.613-.612.368-.98 1.226-.612 1.839.368.735 1.225.98 1.838.612z" id="Shape" fill="#FFF" fill-rule="nonzero"/><path d="M144.795 174.735c12.128-2.94 23.888-6.985 34.913-12.255" id="Shape" stroke="#FFF" stroke-width="1.225"/><path d="M145.162 176.083c-.734.123-1.47-.245-1.715-.98-.122-.735.245-1.47.98-1.716.736-.122 1.47.245 1.716.98.244.858-.245 1.594-.98 1.716zm35.158-12.377c.735-.368.98-1.103.613-1.838-.368-.736-1.103-.98-1.838-.613-.735.368-.98 1.103-.613 1.838.245.735 1.103.98 1.838.613z" id="Shape" fill="#FFF" fill-rule="nonzero"/><path d="M131.075 177.431c4.655-.735 9.188-1.593 13.72-2.696" id="Shape" stroke="#FFF" stroke-width="1.225"/><path d="M131.32 178.902c-.735.123-1.47-.368-1.593-1.103-.122-.735.368-1.47 1.103-1.593s1.47.368 1.593 1.103c.122.735-.368 1.47-1.103 1.593zm13.842-2.819c.736-.122 1.225-.98.98-1.715-.122-.736-.98-1.226-1.714-.98-.736.122-1.226.98-.98 1.715.244.735.98 1.225 1.714.98z" id="Shape" fill="#FFF" fill-rule="nonzero"/><path d="M117.233 179.147c4.654-.368 9.31-.98 13.964-1.593" id="Shape" stroke="#FFF" stroke-width="1.225"/><path d="M117.233 180.495c-.736 0-1.47-.49-1.47-1.225 0-.736.49-1.471 1.224-1.471.736 0 1.47.49 1.47 1.226.123.735-.367 1.47-1.224 1.47z" id="Shape" fill="#FFF" fill-rule="nonzero"/><ellipse id="Oval" fill="#FFF" fill-rule="nonzero" transform="rotate(-25.176 131.048 177.456)" cx="131.048" cy="177.456" rx="1.347" ry="1.348"/><path d="M102.9 179.637c4.777 0 9.555-.245 14.21-.612" id="Shape" stroke="#FFF" stroke-width="1.225"/><path d="M102.9 181.108a1.36 1.36 0 0 1-1.348-1.348 1.36 1.36 0 0 1 1.348-1.348 1.36 1.36 0 0 1 1.347 1.348 1.36 1.36 0 0 1-1.347 1.348zm14.333-.613c.734 0 1.347-.735 1.224-1.47-.122-.736-.734-1.349-1.47-1.226-.734 0-1.347.735-1.224 1.47.122.736.734 1.349 1.47 1.226z" id="Shape" fill="#FFF" fill-rule="nonzero"/><path d="M89.18 179.147c4.532.368 9.065.49 13.72.49" id="Shape" stroke="#FFF" stroke-width="1.225"/><path d="M89.058 180.495c-.736 0-1.348-.735-1.226-1.47 0-.736.736-1.349 1.47-1.226.735 0 1.348.735 1.225 1.47 0 .736-.612 1.349-1.47 1.226zm13.842.613a1.36 1.36 0 0 0 1.347-1.348 1.36 1.36 0 0 0-1.347-1.348 1.36 1.36 0 0 0-1.348 1.348 1.36 1.36 0 0 0 1.348 1.348z" id="Shape" fill="#FFF" fill-rule="nonzero"/><path d="M75.215 177.554c4.655.735 9.31 1.225 13.965 1.593" id="Shape" stroke="#FFF" stroke-width="1.225"/><path d="M74.97 178.902c-.735-.123-1.225-.858-1.102-1.593.122-.735.857-1.226 1.592-1.103.735.122 1.225.858 1.103 1.593-.123.735-.736 1.226-1.593 1.103zm14.088 1.593c.734 0 1.47-.49 1.47-1.225 0-.736-.49-1.471-1.226-1.471-.735 0-1.47.49-1.47 1.226-.122.735.49 1.47 1.226 1.47z" id="Shape" fill="#FFF" fill-rule="nonzero"/><path d="M66.028 175.838c3.062.613 6.124 1.226 9.187 1.716" id="Shape" stroke="#FFF" stroke-width="1.225"/><path d="M65.782 177.309c-.734-.123-1.224-.858-1.102-1.593.122-.736.857-1.226 1.592-1.103.735.122 1.225.858 1.103 1.593-.123.735-.858 1.225-1.593 1.103zm9.188 1.593c.735.123 1.47-.368 1.593-1.103.122-.735-.368-1.47-1.103-1.593s-1.47.368-1.592 1.103c-.123.735.367 1.47 1.102 1.593z" id="Shape" fill="#FFF" fill-rule="nonzero"/><path d="M61.495 174.858c1.47.367 2.94.735 4.533.98" id="Shape" stroke="#FFF" stroke-width="1.225"/><ellipse id="Oval" fill="#FFF" fill-rule="nonzero" cx="61.495" cy="174.858" rx="1.347" ry="1.348"/><path d="M65.782 177.309c.736.122 1.47-.368 1.593-1.103s-.368-1.47-1.103-1.593-1.47.367-1.592 1.103c-.123.735.367 1.348 1.102 1.593z" id="Shape" fill="#FFF" fill-rule="nonzero"/><path d="M60.392 181.475c.368-2.205.735-4.411 1.225-6.617" id="Shape" stroke="#FFF" stroke-width="1.225"/><ellipse id="Oval" fill="#FFF" fill-rule="nonzero" cx="60.392" cy="181.475" rx="1.347" ry="1.348"/><ellipse id="Oval" fill="#FFF" fill-rule="nonzero" transform="rotate(-15.819 61.49 174.851)" cx="61.489" cy="174.851" rx="1.347" ry="1.348"/><path d="M59.29 188.706c.245-2.451.613-4.902.98-7.23" id="Shape" stroke="#FFF" stroke-width="1.225"/><path d="M60.76 188.828c-.122.736-.735 1.348-1.47 1.226-.735-.123-1.347-.735-1.225-1.47.123-.736.735-1.349 1.47-1.226.735.122 1.225.735 1.225 1.47zm.98-7.108c.122-.735-.367-1.47-1.102-1.593-.735-.122-1.47.368-1.593 1.103-.123.736.367 1.471 1.102 1.594.736.122 1.47-.368 1.593-1.103z" id="Shape" fill="#FFF" fill-rule="nonzero"/><path d="M64.313 189.809c-1.716-.368-3.308-.735-5.023-1.103" id="Shape" stroke="#FFF" stroke-width="1.225"/><path d="M64.68 188.46c.735.123 1.225.859 1.102 1.594-.122.735-.857 1.225-1.592 1.103-.735-.123-1.225-.858-1.102-1.593.122-.736.857-1.226 1.592-1.103zm-5.023-1.102c-.734-.123-1.47.245-1.714.98-.123.736.245 1.47.98 1.716.734.122 1.47-.245 1.715-.98.245-.736-.245-1.471-.98-1.716z" id="Shape" fill="#FFF" fill-rule="nonzero"/><path d="M73.132 191.402c-2.94-.49-5.88-.98-8.697-1.593" id="Shape" stroke="#FFF" stroke-width="1.225"/><ellipse id="Oval" fill="#FFF" fill-rule="nonzero" cx="73.132" cy="191.402" rx="1.347" ry="1.348"/><path d="M64.68 188.46c-.735-.122-1.47.368-1.593 1.104-.122.735.368 1.47 1.103 1.593.735.122 1.47-.368 1.593-1.103.122-.735-.368-1.47-1.103-1.593z" id="Shape" fill="#FFF" fill-rule="nonzero"/><path d="M86.975 192.995c-4.655-.368-9.31-.98-13.843-1.593" id="Shape" stroke="#FFF" stroke-width="1.225"/><path d="M87.097 191.647c.736.123 1.348.735 1.226 1.47-.123.736-.735 1.349-1.47 1.226-.735-.122-1.348-.735-1.225-1.47 0-.736.734-1.348 1.47-1.226zm-13.842-1.593c-.735-.123-1.47.368-1.593 1.103-.122.735.368 1.47 1.103 1.593s1.47-.368 1.593-1.103c.245-.858-.246-1.47-1.103-1.593z" id="Shape" fill="#FFF" fill-rule="nonzero"/><path d="M102.9 193.608c-5.39 0-10.657-.245-15.925-.613" id="Shape" stroke="#FFF" stroke-width="1.225"/><path d="M102.9 192.26a1.36 1.36 0 0 1 1.347 1.348 1.36 1.36 0 0 1-1.347 1.348 1.36 1.36 0 0 1-1.348-1.348 1.36 1.36 0 0 1 1.348-1.348zm-15.803-.613c-.734-.122-1.47.49-1.47 1.226-.122.735.49 1.47 1.226 1.47.735.123 1.47-.49 1.47-1.225.122-.736-.49-1.47-1.225-1.47z" id="Shape" fill="#FFF" fill-rule="nonzero"/><path d="M119.315 192.995c-5.39.49-10.903.735-16.415.735" id="Shape" stroke="#FFF" stroke-width="1.225"/><path d="M119.192 191.647c.736-.122 1.47.49 1.47 1.226.123.735-.49 1.47-1.225 1.47-.734.123-1.47-.49-1.47-1.225 0-.858.49-1.47 1.225-1.47zm-16.292.613a1.36 1.36 0 0 0-1.348 1.348 1.36 1.36 0 0 0 1.348 1.348 1.36 1.36 0 0 0 1.347-1.348 1.36 1.36 0 0 0-1.347-1.348z" id="Shape" fill="#FFF" fill-rule="nonzero"/><path d="M133.28 191.28c-4.532.735-9.188 1.347-13.843 1.715" id="Shape" stroke="#FFF" stroke-width="1.225"/><path d="M133.035 189.931c.735-.122 1.47.368 1.593 1.103.122.736-.368 1.47-1.103 1.593s-1.47-.367-1.593-1.102c-.122-.736.368-1.471 1.103-1.594zm-13.843 1.716c-.734 0-1.347.735-1.224 1.47 0 .736.734 1.349 1.47 1.226.734 0 1.347-.735 1.224-1.47 0-.736-.612-1.348-1.47-1.226z" id="Shape" fill="#FFF" fill-rule="nonzero"/><path d="M147 188.583c-4.532.98-9.065 1.961-13.72 2.696" id="Shape" stroke="#FFF" stroke-width="1.225"/><path d="M146.632 187.235c.736-.122 1.47.245 1.715.98.123.736-.245 1.471-.98 1.716-.734.123-1.47-.245-1.714-.98-.123-.735.245-1.47.98-1.716zm-13.597 2.696c-.735.123-1.225.858-1.102 1.594.122.735.857 1.225 1.592 1.102.735-.122 1.225-.857 1.102-1.593-.122-.735-.857-1.225-1.592-1.103z" id="Shape" fill="#FFF" fill-rule="nonzero"/><path d="M187.303 174.368c-12.74 6.127-26.215 11.03-40.303 14.338" id="Shape" stroke="#FFF" stroke-width="1.225"/><path d="M186.69 173.142c.735-.367 1.47 0 1.838.613.367.735 0 1.47-.613 1.838-.735.368-1.47 0-1.838-.613-.367-.735 0-1.593.613-1.838zm-40.058 14.093c-.734.123-1.225.858-.98 1.716.123.735.858 1.225 1.716.98.734-.122 1.225-.857.98-1.715-.123-.613-.98-1.103-1.716-.98z" id="Shape" fill="#FFF" fill-rule="nonzero"/><path d="M194.162 170.936c-2.204 1.226-4.532 2.329-6.86 3.432" id="Shape" stroke="#FFF" stroke-width="1.225"/><path d="M193.55 169.71c.612-.367 1.47-.122 1.837.614.368.735.123 1.47-.612 1.838-.735.367-1.47.122-1.838-.613-.367-.735-.122-1.47.613-1.838zm-6.86 3.432c-.735.368-.98 1.103-.613 1.838.368.736 1.103.98 1.838.613.735-.368.98-1.103.613-1.838-.245-.735-1.103-.98-1.838-.613z" id="Shape" fill="#FFF" fill-rule="nonzero"/><path d="M200.287 167.382a153.688 153.688 0 0 1-6.125 3.432" id="Shape" stroke="#FFF" stroke-width="1.225"/><ellipse id="Oval" fill="#FFF" fill-rule="nonzero" transform="rotate(-23.404 200.27 167.38)" cx="200.27" cy="167.38" rx="1.347" ry="1.348"/><path d="M193.55 169.71c-.613.368-.98 1.226-.613 1.839.368.613 1.225.98 1.838.613.612-.368.98-1.226.612-1.838-.367-.736-1.225-.98-1.837-.613z" id="Shape" fill="#FFF" fill-rule="nonzero"/><path d="M199.308 162.235c.367 1.716.734 3.432.98 5.147" id="Shape" stroke="#FFF" stroke-width="1.225"/><path d="M197.96 162.48c-.123-.735.367-1.47 1.102-1.593.736-.122 1.47.368 1.593 1.103s-.368 1.47-1.102 1.593c-.736.123-1.47-.245-1.593-1.103z" id="Shape" fill="#FFF" fill-rule="nonzero"/><ellipse id="Oval" fill="#FFF" fill-rule="nonzero" cx="200.287" cy="167.382" rx="1.347" ry="1.348"/><path d="M197.225 153.044c.735 3.064 1.47 6.128 2.083 9.191" id="Shape" stroke="#FFF" stroke-width="1.225"/><path d="M195.877 153.412c-.245-.736.245-1.47.98-1.716.736-.245 1.47.245 1.715.98.245.736-.245 1.471-.98 1.716-.857.123-1.592-.245-1.715-.98zm2.083 9.068c.123.736.857 1.226 1.593 1.103.734-.122 1.225-.858 1.102-1.593s-.857-1.225-1.593-1.103c-.735.123-1.225.858-1.102 1.593z" id="Shape" fill="#FFF" fill-rule="nonzero"/><path d="M188.282 125.47c3.553 8.947 6.493 18.138 8.943 27.574" id="Shape" stroke="#FFF" stroke-width="1.225"/><path d="M186.935 125.96c-.245-.735.123-1.47.735-1.837.735-.246 1.47.122 1.838.735.244.735-.123 1.47-.736 1.838-.734.368-1.47 0-1.837-.735zm8.942 27.452c.245.735.98 1.225 1.715.98.735-.245 1.225-.98.98-1.716-.245-.735-.98-1.225-1.715-.98-.734.245-1.225.98-.98 1.716z" id="Shape" fill="#FFF" fill-rule="nonzero"/><path d="M165.498 82.824c9.065 13.235 16.66 27.573 22.662 42.647" id="Shape" stroke="#FFF" stroke-width="1.225"/><path d="M164.395 83.681c-.49-.612-.245-1.47.367-1.96.613-.49 1.47-.246 1.96.367s.245 1.47-.367 1.961a1.529 1.529 0 0 1-1.96-.368zm22.54 42.279c.245.736 1.102 1.104 1.838.736.734-.245 1.102-1.103.734-1.838-.245-.735-1.102-1.103-1.837-.735-.612.367-.98 1.225-.735 1.838z" id="Shape" fill="#FFF" fill-rule="nonzero"/><path d="M157.167 71.426a152.69 152.69 0 0 1 8.33 11.52" id="Shape" stroke="#FFF" stroke-width="1.225"/><path d="M156.065 72.284c-.49-.612-.368-1.47.245-1.96s1.47-.368 1.96.245c.49.612.367 1.47-.245 1.96-.613.368-1.47.368-1.96-.245zm8.33 11.397c.49.613 1.347.736 1.96.368s.735-1.348.368-1.96a1.529 1.529 0 0 0-1.96-.368 1.53 1.53 0 0 0-.368 1.96z" id="Shape" fill="#FFF" fill-rule="nonzero"/><path d="M147.98 60.397a199.087 199.087 0 0 1 9.188 11.03" id="Shape" stroke="#FFF" stroke-width="1.225"/><ellipse id="Oval" fill="#FFF" fill-rule="nonzero" cx="147.98" cy="60.397" rx="1.347" ry="1.348"/><path d="M156.065 72.284c.49.613 1.347.736 1.96.245.612-.49.735-1.348.245-1.96-.49-.613-1.347-.736-1.96-.245-.613.49-.735 1.348-.245 1.96z" id="Shape" fill="#FFF" fill-rule="nonzero"/><path d="M91.017 14.196c21.438 12.132 40.793 27.819 57.085 46.079" id="Shape" stroke="#FFF" stroke-width="1.225"/><path d="M90.282 15.422c-.612-.368-.857-1.226-.49-1.839.368-.612 1.225-.858 1.838-.49s.858 1.226.49 1.838c-.245.613-1.103.858-1.838.49zM147 61.255c.49.613 1.347.613 1.96.122.612-.49.612-1.348.123-1.96-.49-.613-1.348-.613-1.96-.123-.613.49-.613 1.47-.123 1.96z" id="Shape" fill="#FFF" fill-rule="nonzero"/><path d="M85.382 11.255c1.838.98 3.675 1.96 5.635 3.064" id="Shape" stroke="#FFF" stroke-width="1.225"/><path d="M84.77 12.48c-.735-.367-.98-1.225-.612-1.838.367-.735 1.224-.98 1.837-.613.735.368.98 1.226.612 1.839-.367.612-1.102.857-1.837.612zm5.512 2.942c.613.367 1.47.122 1.838-.49.367-.613.123-1.471-.49-1.839-.612-.368-1.47-.122-1.837.49-.368.613-.123 1.47.49 1.839z" id="Shape" fill="#FFF" fill-rule="nonzero"/><path d="M79.135 8.069c2.082.98 4.165 2.083 6.247 3.186" id="Shape" stroke="#FFF" stroke-width="1.225"/><path d="M78.522 9.294c-.735-.368-.98-1.103-.612-1.838.368-.735 1.103-.98 1.838-.613.734.368.98 1.103.612 1.838-.245.613-1.103.858-1.838.613z" id="Shape" fill="#FFF" fill-rule="nonzero"/><ellipse id="Oval" fill="#FFF" fill-rule="nonzero" cx="85.382" cy="11.255" rx="1.347" ry="1.348"/><path d="M56.718 3.534c1.224-1.225 3.062-2.083 4.9-2.083" id="Shape" stroke="#FFF" stroke-width="1.225"/><path d="M57.697 4.515c-.49.49-1.47.49-1.96 0s-.49-1.47 0-1.961c.49-.49 1.47-.49 1.96 0 .613.49.613 1.348 0 1.96zm4.043-1.716a1.36 1.36 0 0 0 1.347-1.348A1.36 1.36 0 0 0 61.74.103a1.36 1.36 0 0 0-1.348 1.348c0 .735.49 1.348 1.348 1.348z" id="Shape" fill="#FFF" fill-rule="nonzero"/><path d="M54.758 8.436c0-1.96.734-3.676 2.082-4.902" id="Shape" stroke="#FFF" stroke-width="1.225"/><path d="M56.105 8.436a1.36 1.36 0 0 1-1.347 1.348 1.36 1.36 0 0 1-1.348-1.348 1.36 1.36 0 0 1 1.348-1.348 1.36 1.36 0 0 1 1.347 1.348zm1.592-3.921c.49-.49.49-1.47 0-1.961-.49-.49-1.47-.49-1.96 0s-.49 1.47 0 1.96 1.47.49 1.96 0z" id="Shape" fill="#FFF" fill-rule="nonzero"/><path d="M56.718 13.338c-1.226-1.225-2.083-3.063-2.083-4.902" id="Shape" stroke="#FFF" stroke-width="1.225"/><path d="M57.697 12.358c.49.49.49 1.47 0 1.96s-1.47.49-1.96 0-.49-1.47 0-1.96 1.47-.49 1.96 0z" id="Shape" fill="#FFF" fill-rule="nonzero"/><ellipse id="Oval" fill="#FFF" fill-rule="nonzero" cx="54.758" cy="8.436" rx="1.347" ry="1.348"/><path d="M61.74 15.422c-1.96 0-3.675-.736-4.9-2.084" id="Shape" stroke="#FFF" stroke-width="1.225"/><path d="M61.74 14.074a1.36 1.36 0 0 1 1.347 1.348 1.36 1.36 0 0 1-1.347 1.348 1.36 1.36 0 0 1-1.348-1.348c-.122-.736.49-1.348 1.348-1.348zm-4.043-1.716c-.49-.49-1.47-.49-1.96 0s-.49 1.47 0 1.96 1.47.49 1.96 0c.613-.49.613-1.347 0-1.96z" id="Shape" fill="#FFF" fill-rule="nonzero"/><path d="M68.722 8.436c0 3.8-3.184 6.986-6.982 6.986" id="Shape" stroke="#FFF" stroke-width="1.225"/><ellipse id="Oval" fill="#FFF" fill-rule="nonzero" cx="68.722" cy="8.436" rx="1.347" ry="1.348"/><ellipse id="Oval" fill="#FFF" fill-rule="nonzero" cx="61.74" cy="15.422" rx="1.347" ry="1.348"/><path d="M61.74 1.451c3.797 0 6.982 3.186 6.982 6.985" id="Shape" stroke="#FFF" stroke-width="1.225"/><ellipse id="Oval" fill="#FFF" fill-rule="nonzero" cx="61.74" cy="1.451" rx="1.347" ry="1.348"/><path d="M67.375 8.436a1.36 1.36 0 0 0 1.347 1.348 1.36 1.36 0 0 0 1.348-1.348 1.36 1.36 0 0 0-1.347-1.348 1.36 1.36 0 0 0-1.348 1.348z" id="Shape" fill="#FFF" fill-rule="nonzero"/><path d="M228.708 168.24c0-3.799 3.185-6.985 6.982-6.985" id="Shape" stroke="#FFF" stroke-width="1.225"/><ellipse id="Oval" fill="#FFF" fill-rule="nonzero" cx="228.708" cy="168.24" rx="1.347" ry="1.348"/><ellipse id="Oval" fill="#FFF" fill-rule="nonzero" cx="235.69" cy="161.255" rx="1.347" ry="1.348"/><path d="M230.178 172.652c-.98-1.226-1.47-2.696-1.47-4.29" id="Shape" stroke="#FFF" stroke-width="1.225"/><path d="M231.28 171.794c.49.613.368 1.47-.245 1.96-.612.491-1.47.369-1.96-.244s-.367-1.47.245-1.961c.613-.49 1.47-.368 1.96.245zm-1.225-3.554a1.36 1.36 0 0 0-1.347-1.348 1.36 1.36 0 0 0-1.348 1.348 1.36 1.36 0 0 0 1.347 1.348 1.36 1.36 0 0 0 1.348-1.348z" id="Shape" fill="#FFF" fill-rule="nonzero"/><path d="M235.69 175.225c-2.205 0-4.165-.98-5.512-2.573" id="Shape" stroke="#FFF" stroke-width="1.225"/><ellipse id="Oval" fill="#FFF" fill-rule="nonzero" cx="235.69" cy="175.225" rx="1.347" ry="1.348"/><path d="M231.28 171.794c-.49-.613-1.347-.735-1.96-.245-.612.49-.735 1.348-.245 1.96.49.614 1.348.736 1.96.246.613-.49.735-1.47.245-1.96z" id="Shape" fill="#FFF" fill-rule="nonzero"/><path d="M240.222 173.51c-1.225 1.103-2.817 1.715-4.532 1.715" id="Shape" stroke="#FFF" stroke-width="1.225"/><path d="M239.365 172.53c.612-.49 1.47-.49 1.96.122.49.613.49 1.47-.123 1.96-.612.49-1.47.49-1.96-.122-.49-.613-.49-1.47.123-1.96zm-3.675 1.347a1.36 1.36 0 0 0-1.347 1.348 1.36 1.36 0 0 0 1.347 1.349 1.36 1.36 0 0 0 1.347-1.349 1.36 1.36 0 0 0-1.347-1.348z" id="Shape" fill="#FFF" fill-rule="nonzero"/><path d="M242.673 168.24c0 2.084-.98 4.044-2.45 5.27" id="Shape" stroke="#FFF" stroke-width="1.225"/><path d="M241.325 168.24a1.36 1.36 0 0 1 1.348-1.348 1.36 1.36 0 0 1 1.347 1.348 1.36 1.36 0 0 1-1.347 1.348 1.36 1.36 0 0 1-1.348-1.348zm-1.96 4.29c-.613.49-.613 1.347-.123 1.96s1.348.613 1.96.123c.613-.49.613-1.348.123-1.961s-1.347-.613-1.96-.123z" id="Shape" fill="#FFF" fill-rule="nonzero"/><path d="M241.202 164.074c.858 1.225 1.47 2.696 1.47 4.289" id="Shape" stroke="#FFF" stroke-width="1.225"/><path d="M240.1 164.809c-.49-.613-.368-1.47.245-1.961.613-.49 1.47-.368 1.96.245s.368 1.47-.245 1.96c-.613.491-1.47.369-1.96-.244z" id="Shape" fill="#FFF" fill-rule="nonzero"/><ellipse id="Oval" fill="#FFF" fill-rule="nonzero" cx="242.673" cy="168.24" rx="1.347" ry="1.348"/><path d="M235.69 161.255c2.205 0 4.287 1.103 5.512 2.696" id="Shape" stroke="#FFF" stroke-width="1.225"/><path d="M235.69 162.603a1.36 1.36 0 0 1-1.347-1.348 1.36 1.36 0 0 1 1.347-1.348 1.36 1.36 0 0 1 1.347 1.348 1.36 1.36 0 0 1-1.347 1.348zm4.41 2.206c.49.613 1.347.735 1.96.245s.735-1.348.245-1.96c-.49-.614-1.347-.736-1.96-.246-.49.49-.613 1.47-.245 1.96z" id="Shape" fill="#FFF" fill-rule="nonzero"/><path d="M3.675 239.564c0-3.8 3.185-6.986 6.983-6.986" id="Shape" stroke="#FFF" stroke-width="1.225"/><ellipse id="Oval" fill="#FFF" fill-rule="nonzero" cx="3.675" cy="239.564" rx="1.347" ry="1.348"/><ellipse id="Oval" fill="#FFF" fill-rule="nonzero" transform="rotate(-76.714 10.692 232.656)" cx="10.692" cy="232.656" rx="1.347" ry="1.348"/><path d="M10.658 246.549c-3.798 0-6.983-3.186-6.983-6.985" id="Shape" stroke="#FFF" stroke-width="1.225"/><ellipse id="Oval" fill="#FFF" fill-rule="nonzero" cx="10.658" cy="246.549" rx="1.347" ry="1.348"/><path d="M5.145 239.564a1.36 1.36 0 0 0-1.347-1.348 1.36 1.36 0 0 0-1.348 1.348 1.36 1.36 0 0 0 1.347 1.348 1.36 1.36 0 0 0 1.348-1.348z" id="Shape" fill="#FFF" fill-rule="nonzero"/><path d="M15.557 244.588a6.761 6.761 0 0 1-4.777 1.961" id="Shape" stroke="#FFF" stroke-width="1.225"/><path d="M14.578 243.608c.612-.49 1.47-.49 1.96 0 .49.613.49 1.47 0 1.96-.613.49-1.47.49-1.96 0s-.49-1.47 0-1.96zm-3.92 1.593a1.36 1.36 0 0 0-1.348 1.348 1.36 1.36 0 0 0 1.348 1.348 1.36 1.36 0 0 0 1.347-1.348c0-.735-.49-1.348-1.348-1.348z" id="Shape" fill="#FFF" fill-rule="nonzero"/><path d="M17.762 239.564c0 1.96-.857 3.799-2.205 5.024" id="Shape" stroke="#FFF" stroke-width="1.225"/><path d="M16.293 239.564a1.36 1.36 0 0 1 1.347-1.348 1.36 1.36 0 0 1 1.348 1.348 1.36 1.36 0 0 1-1.348 1.348 1.36 1.36 0 0 1-1.348-1.348zm-1.715 4.044c-.613.49-.613 1.348 0 1.96.612.613 1.347.613 1.96 0 .612-.49.612-1.347 0-1.96-.49-.49-1.348-.49-1.96 0z" id="Shape" fill="#FFF" fill-rule="nonzero"/><path d="M15.557 234.54a6.847 6.847 0 0 1 2.205 5.024" id="Shape" stroke="#FFF" stroke-width="1.225"/><path d="M14.578 235.52c-.613-.49-.613-1.348 0-1.961.612-.613 1.347-.613 1.96 0 .612.49.612 1.348 0 1.96-.49.49-1.348.49-1.96 0z" id="Shape" fill="#FFF" fill-rule="nonzero"/><ellipse id="Oval" fill="#FFF" fill-rule="nonzero" cx="17.762" cy="239.564" rx="1.347" ry="1.348"/><path d="M10.658 232.578c1.837 0 3.552.736 4.777 1.961" id="Shape" stroke="#FFF" stroke-width="1.225"/><path d="M10.658 233.926a1.36 1.36 0 0 1-1.348-1.348 1.36 1.36 0 0 1 1.348-1.348 1.36 1.36 0 0 1 1.347 1.348c.122.736-.49 1.348-1.348 1.348zm3.92 1.594c.612.49 1.47.49 1.96 0 .49-.613.49-1.471 0-1.961-.613-.49-1.47-.49-1.96 0s-.49 1.47 0 1.96z" id="Shape" fill="#FFF" fill-rule="nonzero"/></g><g id="Group" transform="translate(2.225 1.451)" stroke="#FFF" stroke-width=".5"><path id="Shape" d="M224.645 182.23l-8.085-11.397-3.675 2.451-7.105 4.412z"/><path id="Shape" d="M200.39 196.078l16.17-25.245-21.56 28.31 29.645-16.913-39.568 6.128 10.903-5.27 9.8-5.392 14.822 7.23-4.042-14.093"/><path id="Shape" d="M208.475 193.137l8.085-22.304-1.838 17.157m-92.854 17.035l-79.748 7.352.123-14.583"/><path id="Shape" d="M48.612 213.97l-6.37-16.176 4.656 1.348zm0 0l6.983-12.745 13.108 2.574z"/><path id="Shape" d="M28.155 200l14.087-2.206-14.21 8.824 72.643 13.603 45.08-18.996 22.907-6.372 55.983-12.623-55.983 12.623-23.03 20.71L195 199.144l21.56-28.31-70.928 44.73"/><path id="Shape" d="M100.675 206.25l-66.028 3.922 7.596-12.378-14.21 10.172 14.822-19.486-14.332 4.78 13.72 4.534-12.863-13.97 14.945-6.128-11.27-15.073-2.205 10.906 15.313-5.514 8.33-59.314L91.12 82.966l-20.213 1.838-26.582 43.015 40.302-37.5"/><path id="Shape" d="M42.855 188.48L30.85 173.53l11.27 38.847 78.155-7.107L195 199.142"/><path id="Shape" d="M38.568 143.505l-3.92 66.667 10.534-83.579"/><path id="Shape" d="M56.453 135.662L80.34 74.02l-4.655 27.696 3.675-4.902 3.063-21.079 2.204 14.584 3.186-5.025-1.103-6.127L54.493 108.7l-26.46 99.265m157.044-35.048L195 151.593l-63.945 38.235-13.965 1.716 80.972-25.613-83.055 11.765 76.93-8.21 5.145-8.702-52.307 26.348 37.485-28.431-81.585 33.456-36.872-17.77 20.947 17.157 15.925-13.358-29.767 11.765-11.638-16.544-1.103 6.618 28.788-2.329-24.867 10.662 10.902-12.255-15.925 11.152"/><path id="Shape" d="M173.93 131.495l24.132 34.436-12.005-41.911 5.88 45.465-28.665-88.112"/><path id="Shape" d="M195 151.593l-33.688-47.059-6.37-34.559 43.12 95.956-52.307-106.985 40.303 65.074m-52.676-57.966l-44.59-53.309 2.328 17.77-7.963-20.711zM95.775 50.98l-5.023 13.48-13.597-26.102 27.195 37.867-14.822-30.024-32.218 11.52 24.623-16.422-15.558 6.985L72.01 62.5l1.225-20.71-6.248 26.225L43.59 74.02l32.953-15.074-37.976 22.672 40.18-25.858-1.592-17.402-48.633 59.436L.349 195.221l8.33 25.367 4.41-89.093-1.103 89.583-8.942-50.735 11.514 51.348-3.797-83.333 3.308 68.26L4.513 221.2l-4.41-14.583 23.03-61.03L.715 222.55"/><path id="Shape" d="M109.618 62.132l-30.87-6.372L126.4 79.167m24.378 70.71l1.715-32.107.367 38.603 7.105-22.304-3.43 20.956-13.965-25.736 21.315 15.441-2.572 7.598-26.46-38.357 31.114 37.5-17.517-8.334m-147 94.976l11.883-5.025v10.05l-4.9-12.01v13.97l7.104-7.843zm226.502-66.912l11.76-8.578-6.247-2.82v13.972l4.532-1.716-11.515-5.27h13.965zM59.515 13.97l6.983-6.985H52.532l1.96 4.902L59.516 0l-5.023 2.083zm19.722 9.56l-4.9-2.697 14.456-8.088-17.15 6.863 11.514-9.804-8.33 5.515L91.12 30.515 76.542 10.907l69.213 48.04L76.91 6.616l-10.412.368m166.967 166.791l-16.905-2.942M1.45 237.5l3.063-16.299"/></g></g></g></g></svg>