<svg width="1438" height="346" viewBox="0 0 1438 346" xmlns="http://www.w3.org/2000/svg" xmlns:xlink="http://www.w3.org/1999/xlink"><defs><filter x="-4.2%" y="-27.1%" width="108.3%" height="154.2%" filterUnits="objectBoundingBox" id="filter-1"><feGaussianBlur stdDeviation="20" in="SourceGraphic"/></filter><linearGradient x1="50%" y1="99.043%" x2="50%" y2="-110.826%" id="linearGradient-2"><stop stop-color="#233250" offset="0%"/><stop stop-color="#242644" offset="48.851%"/><stop stop-color="#261A37" offset="100%"/></linearGradient><linearGradient x1="50%" y1="97.665%" x2="50%" y2="1.371%" id="linearGradient-3"><stop stop-color="#3F487B" stop-opacity="0" offset="0%"/><stop stop-color="#3F487B" stop-opacity=".6" offset="100%"/></linearGradient><path id="path-4" d="M1440.077 925.752l-76.523 12.35-58.706 48.414-69.17 28.413-82.584 6.566-48.1-65.316-70.348-19.934-54.283-23.493-44.32 19.124-60.744-23.788-58.456 8.33-38.936-22.854h-30.256l-60.174 22.854h-67.958l-16.235 14.234-66.178 25.527-46.49 26.447-59.179-35.054-66.788 31.88-57.865-28.684-31.962 9.329-59.418-46.068-72.06-17.76-61.014 23.614-52-38.685L0 842.495V97.743l76.523-12.35 58.706-48.414L204.4 8.566 286.984 2l48.1 65.316L405.43 87.25l54.283 23.493 44.32-19.124 60.745 23.788 58.456-8.33 38.935 22.854h30.257l60.174-22.854h67.957l16.235-14.234 66.178-25.527 46.49-26.447 59.179 35.054 66.788-31.88 57.866 28.684 31.96-9.329 59.419 46.068 72.06 17.76 61.015-23.614 51.999 38.685 30.33 38.702z"/><linearGradient x1="0%" y1="50%" y2="50%" id="linearGradient-5"><stop stop-color="#00B6F2" offset="0%"/><stop stop-color="#00E0B7" offset="100%"/></linearGradient></defs><g id="Artboard" fill="none" fill-rule="evenodd"><g id="Group-25-Copy" transform="translate(0 -737)"><path id="Path-2" fill-opacity=".8" fill="#000" filter="url(#filter-1)" transform="rotate(180 720.039 910.624)" d="M0 895.743l76.523-12.35 58.706-48.414 69.17-28.413L286.984 800l48.1 65.316 70.348 19.934 54.283 23.493 44.32-19.124 60.745 23.788 58.456-8.33 38.935 22.854h30.257l60.174-22.854h67.957l16.235-14.234 66.178-25.527 46.49-26.447 59.179 35.054 66.788-31.88 57.866 28.684 31.96-9.329 59.419 46.068 72.06 17.76 61.015-23.614 51.999 38.685 30.33 38.702v42.249H3.514z"/><g id="Path-2" transform="rotate(180 720.039 511.747)"><use fill="url(#linearGradient-2)" xlink:href="#path-4"/><use fill="url(#linearGradient-3)" xlink:href="#path-4"/></g><g id="Group-41" transform="translate(0 2)" stroke="url(#linearGradient-5)" stroke-width="2"><path id="Path-2" transform="rotate(180 720 929.5)" d="M0 935.743l76.52-12.35 58.702-48.414 69.167-28.413L286.967 840l48.098 65.316 70.345 19.934 54.28 23.493 44.317-19.124 60.741 23.788 58.453-8.33 38.934 22.854h30.254l60.171-22.854h67.954l16.234-14.234 66.174-25.527 46.489-26.447 59.175 35.054 66.784-31.88 57.863 28.684 31.96-9.329 59.414 46.069 72.057 17.76 61.01-23.615 51.997 38.685L1440 1019"/></g><g id="Untitled-2-Copy" transform="rotate(180 720 512)" fill="#FFF" fill-rule="nonzero"><path d="M755.276 141.602c-.5-.1-1 0-1.3.3l-11.292-12.392c.2-.2.4-.4.4-.7.2-.899-.3-1.698-1.2-1.898-.899-.2-1.698.3-1.898 1.199v.2l-76.047 1.1c-.1-.6-.5-1.2-1.2-1.3-.599-.1-1.298.1-1.598.6l-35.975-21.485c0-.1.1-.2.1-.3.2-.9-.3-1.7-1.2-1.899-.899-.2-1.698.3-1.898 1.2v.399l-55.761 7.994c-.1-.6-.6-.999-1.2-1.199-.699-.2-1.399.2-1.698.8l-57.66-22.385c.2-.9-.3-1.699-1.2-1.898-.899-.2-1.698.3-1.898 1.199-.1.3 0 .6.1.8l-41.471 17.487c-.2-.4-.6-.7-1-.8-.7-.2-1.399.2-1.699.8l-51.364-21.685v-.1c.2-.9-.3-1.699-1.199-1.899-.8-.2-1.499.2-1.799.9l-67.353-19.287c.1-.8-.4-1.599-1.2-1.799-.399-.1-.799 0-1.098.2L288.3 2.798c.2-.2.4-.5.5-.8C289 1.1 288.5.3 287.6.1c-.9-.2-1.699.3-1.898 1.2v.299l-79.445 6.395c-.1-.6-.6-1.099-1.2-1.199-.899-.2-1.698.3-1.898 1.2-.1.3 0 .5 0 .799l-66.054 26.881c-.2-.4-.6-.7-1-.8-.899-.2-1.698.3-1.898 1.2-.1.4 0 .9.2 1.2L77.946 83.641c-.2-.2-.4-.3-.7-.4-.899-.2-1.698.3-1.898 1.2v.4l-72.25 11.89c-.2-.499-.6-.998-1.1-1.098-.899-.2-1.698.3-1.898 1.199-.2.9.3 1.699 1.2 1.898.399.1.799 0 1.198-.2l25.682 34.876c-.2.2-.4.5-.5.8-.2.9.3 1.699 1.2 1.898.6.1 1.1-.1 1.499-.5l49.466 36.076c-.1.1-.2.3-.2.4-.2.899.3 1.698 1.199 1.898.9.2 1.699-.3 1.899-1.199.1-.3 0-.5 0-.7l58.06-22.284c.2.4.599.7.999.8.799.2 1.498-.3 1.798-1l69.152 17.188c-.1.8.4 1.5 1.2 1.699.599.1 1.099-.1 1.498-.4l56.761 44.07c-.1.1-.2.3-.2.4-.2.899.3 1.698 1.2 1.898.899.2 1.698-.3 1.898-1.2.1-.199 0-.499 0-.699l28.88-8.594c.2.5.6.9 1.1 1 .699.2 1.298-.1 1.698-.7l55.162 27.481c0 .1-.1.1-.1.2-.2.9.3 1.699 1.199 1.899.9.2 1.699-.3 1.899-1.2.1-.3 0-.6-.1-.899l64.155-30.978c.2.3.6.6 1 .7.599.099 1.199-.1 1.598-.6l56.361 33.976c0 .1-.1.2-.1.3-.2.9.3 1.699 1.2 1.898.899.2 1.698-.3 1.898-1.199.1-.4 0-.7-.1-1l43.57-25.282c.2.3.5.5.9.6.899.2 1.698-.3 1.898-1.2.1-.199 0-.499 0-.699l63.356-23.383c.2.4.6.7 1 .8.899.199 1.698-.3 1.898-1.2.1-.5 0-.9-.2-1.2l15.29-13.09 65.354-.1c.1.6.5 1.2 1.2 1.299.899.2 1.698-.3 1.898-1.2.1-.299 0-.499 0-.699L753.577 144c.2.4.6.7.999.8.9.2 1.699-.3 1.899-1.2.2-.9-.3-1.798-1.2-1.998zM3.098 97.132l72.15-11.891c.1.2.2.4.3.5l-45.569 47.466-.6-.3c-.4-.1-.799 0-1.199.2L2.598 98.333c.2-.2.4-.5.5-.8.1-.2 0-.3 0-.4zm533.73 110.824c-.1-.2-.3-.3-.5-.5l13.79-36.475c.5-.1 1-.5 1.2-.999l36.774 10.293-51.265 27.68zm-173.18 22.884h-.5l-14.99-69.152c.5-.2.9-.5 1-1.1l37.973 6.396c0 .6.3 1.2.8 1.499l-24.284 62.357c.1 0 .1 0 0 0zm-57.96-28.88c-.3-.1-.6 0-.8.1l-25.882-58.96c.3-.2.5-.4.6-.799l66.354 17.788c-.1.5.1.9.3 1.199l-40.173 40.972c.1-.1-.1-.2-.4-.3zm-275.31-68.453l45.57-47.467.599.3h.5l7.095 36.175c-.5.2-1 .6-1.1 1.1v.499l-52.363 9.893c-.1-.1-.2-.3-.3-.5zm106.427-95.833l36.175 38.873c-.2.2-.3.4-.4.6l-37.674-5.896c.1-.8-.4-1.5-1.199-1.7h-.1l2.299-31.677c.3.1.6 0 .899-.2zM287.001 3.098l-8.295 51.764c-.799 0-1.499.4-1.598 1.2v.099l-36.175-3.598c0-.4-.1-.699-.4-.999l45.868-48.666c.2.1.4.1.6.2zm47.067 63.756v.4l-26.582 8.393-27.48-18.587c0-.1.1-.2.1-.3l53.962 10.094zm288.4 40.372c.2.3.4.4.7.6l-16.79 59.957L576.7 129.51l45.768-22.284zm40.871 23.583c.3-.2.5-.5.6-.8l52.164 12.092v.1l-45.169 1.999-7.595-13.39zm52.764 11.792c0 .2.1.5.3.7l-29.88 25.382c-.2-.2-.4-.4-.7-.4-.399-.1-.699 0-.999.1l-13.59-23.783 44.869-1.999zm.5.8c.2.2.4.4.699.4.9.199 1.699-.3 1.899-1.2v-.2l2.898.1-33.077 24.383 27.58-23.484zm2.598-1.2v-.1l4.996-1.099-1.699 1.3-3.297-.1zM648.15 144.2c-.2-.2-.4-.3-.7-.3h-.6l12.392-11.192L648.15 144.2zm-2.598.8c-.1.399 0 .799.1 1.099l-4.397 2.698 4.297-3.798zm2.698-.6l13.09-13.59c.2.199.4.299.7.299.4.1.7 0 1-.1l7.594 13.19-21.984 1c0-.3-.2-.6-.4-.8zm90.937-6.895l-13.79 2.997 5.396-3.997 8.394.8v.2zm.1-.5l-7.895-.8 9.094-6.695c.2.2.5.4.8.5h.1l-.5 5.796c-.8-.1-1.5.4-1.6 1.199zm-8.494-.9l-1.9-.2 10.394-5.995-8.494 6.195zm-.5.4l-5.696 4.197-5.396 1.2c0-.1-.1-.2-.1-.3l9.193-5.397 1.999.3zM719 141.402c-.2-.3-.5-.6-.9-.7-.8-.2-1.599.3-1.798 1l-50.965-11.792 62.656 6.195-8.993 5.297zm-72.65 2.398l-.9-1.499 13.891-10.293-12.99 11.792zm-.2.2l-6.695 6.096-28.08 17.588 33.976-25.083.8 1.399zm-145.299 51.764c-.2-.2-.4-.4-.6-.5l12.792-35.075 8.494 2.198 5.696 19.187-26.382 14.19zM349.257 160.39c0-.4-.1-.7-.3-1l19.987-17.887 18.687 24.583c-.2.2-.4.4-.4.7l-37.974-6.396zm-69.451-18.49v-.6l48.566-19.386 18.387 37.075c-.3.2-.4.4-.6.7L279.807 141.9zm-145-70.25c0-.1.1-.1.1-.2l37.674 5.895c0 .6.2 1.1.7 1.4l-4.497 9.992-33.977-17.088zm200.461-3.099h.3l1 25.583c-.4 0-.8.2-1 .5l-13.59-9.194 12.79-17.088c.1.1.3.2.5.2zm33.877 72.65l30.878-27.68-11.192 52.063c-.3 0-.7 0-.9.2l-18.786-24.583zM316.28 95.434l11.692 6.795-6.395 5.096-5.696-11.492c.2-.1.3-.2.4-.4zm.1-.2c0-.1.1-.2.1-.3v-.1l18.587 1c0 .2.1.5.2.699l-7.095 5.596-11.792-6.895zm19.287 1.599c.2.2.4.4.7.4h.4l1.898 10.992-10.093-5.896 7.095-5.496zm10.892 17.388l-6.095 2.398-1.3-7.895 7.495 4.397c0 .1-.1.2-.1.3-.1.3-.1.6 0 .8zm.1.4c.2.4.6.699 1 .799h.2l-.4 43.07-6.995-41.371 6.195-2.499zm.1-1.7l-7.694-4.496-1.9-11.193c.1 0 .2-.1.3-.1l9.694 15.49c-.2 0-.3.2-.4.3zm-33.277-18.587l-54.362-2.798v-.2l40.472-12.79 14.29 14.989c-.2.2-.3.4-.4.8 0-.1 0-.1 0 0zm1.2 1.8c.3.1.6 0 .899-.1l5.796 11.591-41.871 32.977 34.776-44.669c.1.1.2.1.4.2zm-35.076 44.768l41.87-32.877 6.796 13.59-48.666 19.287zm42.17-33.177l6.596-5.196 10.293 5.996 1.399 8.294-11.592 4.597-6.695-13.69zm18.388 9.494l7.095 41.57h-.1l-18.387-37.074 11.392-4.496zm7.894 41.47h-.2l.4-43.37c.2 0 .5-.099.7-.199l19.786 25.982-19.986 17.888c-.3-.1-.5-.2-.7-.3zm1.1-43.769c.2-.2.4-.5.5-.8v-.299l51.463-4.997-.899 4.098-31.278 27.98-19.786-25.982zm51.364-1.799l4.197-3.797c.1.1.3.2.4.3l-15.09 52.264 10.493-48.767zm3.697-4.996l-2.598.3.2-.8 2.398.5zm0 .4c0 .2.1.4.2.6l-3.797 3.397.8-3.698 2.797-.3zm4.397 4.896l28.38 48.866-.899 2.099-1.699.1-25.782-51.065zm112.322-9.293l13.79 31.478-16.188 11.192c-.2-.2-.5-.5-.8-.5h-.1l2.599-42.67.7.5zm40.772 30.978c-.1.1-.2.3-.2.4v.6l-2.498.6.9-3.099 1.798 1.5zm-12.391 32.877l-11.193-25.482 20.386-5.296-8.594 30.678c-.1 0-.3 0-.6.1zm-30.58-20.985l16.19-11.192 2.798 6.495-18.887 4.897c-.1 0-.1-.1-.1-.2zm-.1 1.499c.1-.1.1-.3.2-.4v-.6l18.888-4.896 11.192 25.482c-.2.1-.3.2-.4.4l-29.88-19.986zm40.273-11.392l2.698-.7c.1.4.4.7.7.8l-1.1 2.798-10.492 26.881 8.194-29.78zm-.2-.2l-20.586 5.296-2.898-6.595 14.29-9.893 10.193 7.694-.999 3.498zm-23.684-1.599l-13.49-30.779 27.58 20.986-14.09 9.793zm-45.968 18.187l-15.389-3.997v-.1l41.671-1.499-26.282 5.596zm-49.066 10.393l19.787-8.894-17.988 8.494-1.799.4zm-2.398-.7c-.3.2-.5.5-.6.9v.3h-.4l.7-1.699.3.5zm-1.2 1.5h.5c0 .2.1.4.2.6l-.6.399c-.1-.2-.299-.3-.399-.4l.3-.6zm.3 1.199l.6-.5c0 .1.1.1.2.2l-.8.3zm3.298-1.6c0 .1.1.1 0 0zm2.898-.998l27.881-13.191c.1.1.2.2.2.3l-6.895 8.394-21.186 4.497zm28.38-12.592c.2.1.3.2.5.2.4.1.7 0 1-.1l3.197 5.496-11.292 2.399 6.596-7.995zm1.7-.1c.2-.2.4-.4.5-.7l14.59 3.798-11.893 2.499-3.197-5.597zm-2.299-1.898c0 .1-.1.2-.1.3-.1.3 0 .6.1.899l-30.778 13.79c-.1-.3-.4-.5-.6-.6l10.792-27.18 20.586 12.79zm-34.676 16.089l-.2.5h-.1c-.3-.1-.6 0-.899.1l-.2-.4 1.4-.2zm.8 1.399l.899-.4c.1.1.2.1.4.2l-.4 1.699-.8-.4s0-.1.1-.1c0-.4-.1-.7-.2-1zm3.197-1.5l1.2-.599 22.384-4.697-10.493 12.691-13.29-6.995c0-.1.1-.1.1-.2.1-.1.1-.2.1-.2zm49.966-10.892l25.882-5.496c.1.4.4.7.8.9l-3.798 10.492-22.884-5.896zm26.981-4.497c.3.1.5.1.7 0l3.797 12.592-8.194-2.099 3.697-10.493zm1-.1c.2-.1.499-.2.599-.5l29.88 19.987c0 .1-.1.1-.1.2l-26.582-6.895-3.798-12.792zm44.069-14.39l-1.999-1.599 4.697-16.888-1.599 17.988c-.4 0-.8.2-1.1.5zm-102.23-23.283c.2.1.5 0 .7 0l11.093 36.374c-.2.1-.5.2-.6.5l-20.686-12.891 9.494-23.983c-.1 0 0 0 0 0zm-55.46-3.898s0 .1-.1.1l-2.499-.4.2-.999 2.398 1.3zm-68.953-12.591c-.1.1-.1.2-.2.4v.1l-18.587-1c0-.4-.2-.8-.5-1.099l5.697-7.595 13.59 9.194zm-36.175-16.788l-40.272 12.69c-.1-.199-.3-.499-.5-.599l19.487-32.577c.1.1.2.1.3.1.5.1 1 0 1.299-.3l19.686 20.686zM277.607 57.66l-19.486 32.577c-.1-.1-.2-.1-.3-.1-.3-.1-.6 0-.9.1l-9.593-20.585 29.78-12.392c.2.1.4.3.5.4zm-38.573-3.598c.3.1.6 0 .9-.1l7.094 15.29-31.678 13.19 23.184-28.58c.1.1.3.2.5.2zm-24.383 28.68l-4.697 2c0-.1-.1-.1-.1-.2v-.1l26.482-28.48-21.685 26.78zm-6.795 4.098c.1.1.2.1.3.2h.3l.2 3.097-9.794 12.092 8.994-15.39zm.999.2c.6-.1 1.1-.6 1.2-1.2l1.898.2-2.898 3.598-.2-2.598zm1.2-1.5v-.5l4.096-1.698-1.898 2.398-2.199-.2zm-34.777-6.895c.2-.2.3-.4.4-.6l28.88 6.696c-.1.8.4 1.599 1.2 1.799.499.1.998 0 1.298-.3 0 .1.1.1.1.1.1.2.3.4.5.5l-9.094 15.489c-.1-.1-.2-.1-.3-.2-.5-.1-.9 0-1.299.3l-21.685-23.784zm37.274 7.195l2.199-2.698 32.377-13.39 9.594 20.585c-.4.2-.7.6-.8 1l-43.37-5.497zm176.778 79.945l16.188-56.061c.3 0 .6 0 .8-.1l27.78 54.862-43.77 2.398c-.099-.5-.499-.9-.998-1.1zm74.848-6.596l11.991-2.498 22.485 38.673c-.1.1-.3.2-.4.4l-44.769-23.584 10.693-12.99zm35.775 35.876c-.4-.1-.7 0-1 .1L476.57 156.49l12.591-2.698 23.684 6.096-12.891 35.176c0 .1 0 0 0 0zm50.565-26.982l5.296-13.39-5.096 13.49c-.1-.1-.2-.1-.2-.1zm13.89-31.378c.1-.1.2-.3.2-.5.1-.3 0-.6-.1-.899l8.894-4.297 11.192 21.085-20.186-15.389zm0-20.486l-4.697 16.789-9.693-7.695 13.79-9.493c.2.2.4.3.6.4zm-43.17-12.391l-.3-.6.3-.3 28.18 22.285-28.18-21.385zm-2.698-1.599l.2.1c.1.2.1.3.2.4l-9.494 9.393-1.898-8.494 10.992-1.399zm.6.9c.2.1.4.3.6.3h.099l-2.698 42.77h-.1l-7.595-33.477 9.693-9.594zm-2.299 43.17c-.3.1-.5.2-.7.5l-24.682-16.29 17.787-17.487 7.595 33.276zm-.9.799c-.1.1-.1.2-.2.3v.3l-42.07 1.498c0-.3-.2-.5-.3-.8l17.888-17.687 24.683 16.389zm-42.87 1l11.892-21.486 5.896 3.897-17.788 17.588zm-.4-.2c-.1 0-.1-.1-.2-.1-.199-.1-.499 0-.699 0l-11.092-36.375c.2-.1.5-.2.6-.4l23.383 15.39-11.991 21.484zm-22.783-12.592l-.5-.3 6.895-15.889-6.395 16.189zm-.2.4l-10.793 27.18h-.1c-.3-.099-.5 0-.8 0l-.399-1.098 11.592-26.482.5.4zm-12.192 25.782l-18.987-45.169 30.48 18.887-11.493 26.282zm-.4.3l-30.378-52.364.3-.3 10.792 6.696 19.286 45.968zm-32.577-54.562l-2.398-1.4 3.697-17.188-.1 17.988c-.5 0-.9.2-1.199.6zm-2.898-1.2l-.3 1.2-27.68-4.997 11.991-5.596 15.99 9.393zm-.3 1.5l-.2.899-51.564 4.996c0-.1 0-.1-.1-.2l23.584-10.892 28.28 5.196zm-51.864 5.496c-.2-.4-.6-.6-.999-.7h-.6l-3.997-15.09 28.68 5.197-23.084 10.593zm-1.898-.6c-.1 0-.1 0-.2.1l-9.693-15.49c.3-.2.5-.499.6-.799l5.195.9 4.098 15.289zm-9.294-16.589c0-.1 0-.1 0 0l4.597-.7.4 1.6-4.997-.9zm0-.5c-.1-.599-.6-.999-1.2-1.198h-.299l-1-25.583h.1l6.996 26.182-4.597.6zm-16.788-9.692l-5.696 7.594c-.1-.1-.3-.2-.5-.2-.5-.1-1 0-1.299.3l-14.19-14.89 7.495-2.398 14.19 9.594zm-21.885-7.495L279.806 57.46l27.18 18.387-7.394 2.299zM277.108 56.86l-29.78 12.39-7.095-15.288c.4-.2.7-.6.8-1v-.1l36.174 3.598c-.2.1-.2.2-.1.4zm-38.873-3.298l-28.68 30.678c-.2-.2-.5-.4-.8-.5h-.2l-.9-18.886 30.38-11.692c0 .2.1.3.2.4zm-30.08 30.179c-.3 0-.5.2-.7.3-.199-.4-.599-.6-.998-.7-.8-.2-1.6.3-1.8 1.1l-28.88-6.696v-.6l31.579-12.091.8 18.687zm-34.476-4.697c.1 0 .1 0 0 0 .6.2 1 0 1.4-.3l21.584 23.884-.2.2-27.28-13.79 4.496-9.994zm25.283 23.584l9.693-11.992.7 10.593-10.093 1.998c0-.2-.1-.4-.3-.6zm10.093-12.492l3.298-4.097 43.67 5.496v.2l-46.169 9.294-.8-10.893zm49.965 1.9c.1-.1 0-.1 0 0l54.362 2.697c0 .4.2.7.5 1l-34.776 44.668c-.1-.1-.3-.2-.5-.2-.3-.1-.5 0-.799 0l-19.586-47.167c.4-.2.7-.6.8-.999zm175.178 72.848l.3.6c-.3.2-.6.5-.7 1v.2l-38.473.399 38.873-2.199zm2.499 2.699l.9.4-6.696 28.88 4.297-28.58c.6 0 1.199-.2 1.499-.7zm-5.996 30.978l6.995-30.479 13.49 6.296-20.085 24.383c-.1-.1-.2-.2-.4-.2zm7.195-30.878l.4-1.7c.6.1 1.199-.2 1.499-.699l13.19 6.895-1.499 1.8-13.59-6.296zm15.39 4.796l39.572 20.886-40.972-19.087 1.4-1.799zm68.552-9.993l26.381 6.795c0 .3 0 .5.1.8l-20.885 11.292-5.596-18.887zm26.681 7.895c.2.2.4.4.6.5l-12.192 33.676-1 2.798c-.199 0-.399-.1-.599 0l-7.594-25.582 20.785-11.392zm.9.6h.2l-5.697 15.189 5.496-15.19zm1.598-2.499l11.692-31.078c.4.1.9 0 1.2-.2l26.181 32.377-38.773-.3c0-.3-.1-.6-.3-.799zm13.191-31.478l20.886 15.789 8.993 16.888h-3.497l-26.382-32.677zm37.274 45.668l-3.697-6.995 7.595-4.097-3.098 10.992c-.3 0-.6 0-.8.1zm-3.997-7.395l-2.798-5.296 10.992.1-.3.9-7.894 4.296zm8.694-5.196h.2c0 .1.1.3.1.4l-.4.2.1-.6zm1.899-1.699c-.4 0-.7 0-1 .2l-.3-.4 13.591-48.366-12.291 48.566zm-1.3.5s-.1 0 0 0l-.2-.1v-.1l.2.2zm-.3.3c-.1.1-.199.3-.199.5v.199h-.1l.3-.7zm-.699.6l-11.292-.1-8.694-16.29 20.286 15.39-.3 1zm-11.492.199l2.898 5.496-1.299.7-4.996-6.196h3.397zm3.098 5.896l3.498 6.595-4.797-5.996 1.3-.6zm8.394-4.597l.8-.4c.1.2.4.4.6.5l-4.298 10.393 2.898-10.493zm-32.477-40.472l-8.794 4.297c-.2-.3-.6-.6-1-.7h-.1l1.6-17.987c.2 0 .4 0 .6-.1l7.694 14.49zm-65.954-27.38l-2.399-10.593c.2-.1.4-.2.6-.4l12.591 9.593-10.792 1.4zm-101.93-14.79l-3.697 16.988-15.59-9.194 18.388-8.494c.2.3.5.5.9.7zm-70.85-20.486L321.777 85.34l-13.89-9.394 26.38-8.294c0 .2.1.4.3.5zM142.5 147.498h-.3l-8.394-74.848c.4-.1.7-.3.9-.6l34.076 17.188-26.282 58.26c.1 0 0 0 0 0zm466.476 21.385c-.2-.2-.4-.3-.6-.4l15.19-60.558c.3 0 .6 0 .9-.1l20.585 34.376-36.075 26.682zm-2.698-.7l-.1.3-20.686-15.789-11.691-21.785 2.498-1.2 29.979 38.474zm-32.677-37.574l-7.395-13.89 9.893 12.691-2.498 1.2zm-10.193-16.089c-.1.4 0 .7.2 1l-13.89 9.593-28.281-22.384c.1-.1.1-.2.1-.3l41.87 12.091zm-44.77-12.69l-10.092-7.695 10.293 6.895c-.1.1-.2.3-.2.4v.4zm-14.589-8.994h.5l2.398 10.592-9.893 1.3 6.695-12.092c.2.2.3.2.3.2zm3.098 10.992l1.998 8.694-17.987 17.688-5.996-3.998 11.792-21.085 10.193-1.3zm-22.285 22.284l-23.383-15.389c.1-.1.1-.2.2-.3v-.4l34.775-4.696-11.592 20.785zm-25.482-14.79l-10.293 23.484-30.878-19.186-2.898-6.995 43.37 1.399c-.1.6.2.999.699 1.299zm-41.87 3.898l-10.394-6.396c0-.1.1-.2.1-.3v-.1l7.495.2 2.798 6.596zm-10.194-7.095c0-.7-.5-1.3-1.199-1.4h-.2l.1-17.987h.3l8.294 19.687-7.295-.3zm-2.898-20.486l-18.687 8.594-8.994-5.296 27.681-3.398v.1zm-19.087 8.794l-12.291 5.696-29.38-5.296-.4-1.7 32.878-4.096 9.193 5.396zm-42.17-1.699l-6.995-26.282c.3-.1.5-.3.7-.5l38.772 22.685-32.477 4.097zm-105.327-41.87l-30.28 11.591-2.597-54.662c.2 0 .4-.1.6-.2l32.677 41.771c-.2.2-.4.5-.5.8 0 .2 0 .5.1.7zm-33.477-42.97h.2l2.598 54.761-31.678 12.192a.9.9 0 0 0-.6-.6l29.48-66.354c0-.1 0 0 0 0zm-72.15 62.256L85.54 122.815l-.6-.3h-.5L77.346 86.34c.5-.2 1-.6 1.1-1.1v-.599l53.462-12.99c.1.2.1.299.3.499zM85.74 123.115l46.668-50.665.6.3h.3l8.394 74.848c-.4.1-.8.4-1 .699L85.94 124.613v-.1c.3-.6.1-1.099-.2-1.398zM143 147.697l26.083-58.26 27.28 13.791c0 .1-.1.1-.1.2-.1.4 0 .9.2 1.2l-53.262 43.27c-.1-.1-.1-.2-.2-.2zm56.362-43.67v-.499l9.993-1.999 4.496 63.356-15.489-59.758c.5-.2.9-.5 1-1.1zm15.289 61.358h-.3l-4.497-63.955 46.168-9.294c.2.5.6.9 1.1 1.1.3.1.5 0 .799 0l19.586 47.166c-.4.2-.7.6-.8 1-.1.3 0 .5 0 .8l-61.157 24.182c-.1-.6-.5-.899-.9-.999zm175.678 1.899l43.47-.4c.1.7.5 1.2 1.199 1.4l-4.597 30.178c-.5 0-.9.1-1.2.5l-39.072-30.979c.1-.1.2-.3.2-.5 0 0-.1-.1 0-.2zm41.071 31.678l20.186-24.483 46.468 21.685s0 .1-.1.1v.2L431.8 199.66c0-.2-.2-.5-.4-.7zm69.552-2.898l26.282-14.19 7.595 25.582c-.4.2-.7.4-.8.8l-32.977-11.193c.1-.4.1-.7-.1-1zm50.365-26.282c0-.1 0-.1 0 0l39.073.2 5.096 6.396-7.095 3.797-37.074-10.393zm44.47 6.895l5.096 6.296c-.1.1-.3.3-.3.5l-11.492-3.198 6.695-3.598zm6.894 5.996l4.697-11.292c.1 0 .1.1.2.1.9.2 1.699-.3 1.899-1.2v-.2h7.794l-14.19 12.792c-.2 0-.3-.1-.4-.2zm6.696-12.89c0-.2-.1-.3-.2-.5l28.88-18.088-20.486 18.587h-8.194zm39.273-24.284l22.184-1 13.69 23.984-.3.3-35.674-22.684c.1-.1.1-.2.2-.4-.1 0-.1-.1-.1-.2zm74.048-2.898l8.494.2-42.87 25.082 34.376-25.282zm.3-.3l1.999-1.499 14.19-3.098c0 .1 0 .1.1.2l-7.795 4.597-8.494-.2zm16.488-4.097c.2.3.5.5.9.6.7.2 1.399-.2 1.799-.9l11.292 4.697c0 .1-.1.1-.1.2v.2l-21.185-.5 7.294-4.297zm-99.33 11.692l5.296-3.298-26.981 23.084h-.3l21.984-19.786zm113.42-7.395l-11.291-4.697c0-.1.1-.1.1-.2.2-.899-.3-1.698-1.2-1.898h-.1l.5-5.796c.4 0 .7-.1 1-.3l11.291 12.391c-.2.2-.3.3-.3.5zm-13.39-13.39l-11.692 6.795-62.457-6.196 73.95-1c0 .1.1.3.199.4zm-79.145 1.199L645.25 142l-20.485-34.376c.1-.1.3-.2.4-.3l35.975 21.486c0 .1-.1.2-.1.3-.3.499-.2.899 0 1.199zm-38.673-23.384L576.5 129.21l-10.393-13.29c.2-.2.4-.4.5-.8v-.4l55.76-7.994c-.1.1 0 .2 0 .2zm-100.63-4.797c.2-.8-.4-1.599-1.2-1.799-.6-.1-1.199.1-1.598.6l-12.991-8.794h-.1v-.1l55.761 21.585-39.872-11.492zm-18.188-9.493l-6.795 12.291-35.076 4.697v-.1l41.472-17.488c0 .2.2.4.4.6zm-44.968 17.088l-43.47-1.4-8.394-19.885c.2-.1.4-.4.6-.6l51.363 21.685v.1l-.1.1zm-54.163-22.585l-28.18 3.498-39.173-22.984 67.353 19.287v.2zm-70.351-20.585l-53.963-9.993c.1-.7-.4-1.4-1.099-1.6L287.3 3.199c.3 0 .6 0 .8-.2l46.368 62.956c-.1.1-.3.3-.4.6zM286.201 2.598l-45.868 48.666-.6-.3c-.4-.1-.899 0-1.199.2l-32.677-41.77c.2-.2.4-.5.5-.8v-.3L285.9 1.8c0 .4.1.6.3.8zm-82.243 7.095l-29.28 66.354h-.1c-.499-.1-.899 0-1.298.3l-36.175-38.873c.2-.2.3-.4.4-.7.1-.3 0-.5 0-.799l66.054-26.881c-.1.2.1.4.4.6zm-68.452 28.28h.1l-2.299 31.679c-.7 0-1.399.5-1.499 1.199v.6L78.346 84.44c0-.1-.1-.2-.1-.3l56.56-46.467c.2 0 .4.2.7.3zM30.679 134.408l52.363-9.893c.2.5.6.999 1.1 1.099h.1l-3.098 45.268c-.4 0-.8.2-1.1.5L30.58 135.306c.1-.1.2-.3.2-.4-.1-.2-.1-.3-.1-.5zm50.864 36.474c-.1 0-.1 0 0 0l3.098-45.268c.6 0 1-.3 1.3-.8l54.761 23.684v.1c-.1.3 0 .5 0 .7l-58.06 22.284c-.3-.3-.699-.6-1.099-.7zm61.957-22.684l53.263-43.37c.2.2.4.4.7.4h.6l15.589 60.258c-.4.2-.7.5-.9.9L143.6 149.195c.1-.4.1-.7-.1-.999zm72.25 18.387l61.158-24.183c.2.4.6.7.999.8h.1l-4.597 68.152c-.4 0-.7.2-1 .5l-56.76-44.07c.1-.1.2-.3.2-.4 0-.299 0-.599-.1-.799zm58.06 44.87c0-.1 0 0 0 0l4.597-68.154c.1 0 .3 0 .4-.1l25.881 58.96c-.4.2-.6.6-.799.999-.1.2 0 .5 0 .7l-28.88 8.593c-.3-.5-.7-.899-1.2-.999zm32.777-8.895l40.172-40.971c.2.1.4.3.6.3h.5l14.989 69.152c-.3.1-.6.3-.8.6l-55.261-27.582c0-.1.1-.1.1-.2.1-.5 0-.999-.3-1.299zm58.06 28.98c-.1-.2-.4-.4-.6-.5l24.283-62.356c.6.1 1.1-.1 1.5-.5l39.072 30.979c-.1.1-.2.3-.2.5-.1.3 0 .599.1.899l-64.155 30.978zm67.153-31.378l66.154-3.198c.1.6.5 1 1 1.2l-9.494 35.974c-.6-.1-1.2.1-1.499.6l-56.36-33.976c0-.1.1-.2.1-.3.1-.1.1-.2.1-.3zm58.76 34.576c-.2-.3-.4-.4-.7-.5l9.493-35.975c.7.1 1.4-.3 1.699-.9l32.977 11.193c-.1.4 0 .7.1 1l-43.57 25.182zm98.031-54.162l11.792 3.297v.6l-62.357 23.184 50.565-27.081zm29.18-10.393h.3l-5.097 4.397 4.797-4.397zm28.28-23.584c.2.2.4.3.7.4.6.1 1.199-.1 1.599-.6l35.675 22.685c-.1.1-.1.2-.2.4v.2l-64.855.1 27.081-23.185zm85.74-3.797l21.586.5v.3l-65.954 25.282 44.369-26.082z" id="Shape"/><path d="M683.725 134.207c.5.1 1 0 1.3-.3l11.291 12.391c-.2.2-.4.4-.4.7-.2.9.3 1.699 1.2 1.899.9.2 1.699-.3 1.899-1.2v-.2l76.047-1.099c.1.6.5 1.2 1.199 1.3.6.1 1.299-.1 1.599-.6l35.975 21.485c0 .1-.1.2-.1.3-.2.9.3 1.699 1.2 1.898.898.2 1.698-.3 1.898-1.199v-.4l55.761-7.994c.1.6.6 1 1.2 1.2.699.2 1.398-.2 1.698-.8l57.66 22.384c-.2.9.3 1.7 1.2 1.899.899.2 1.698-.3 1.898-1.2.1-.299 0-.599-.1-.799l41.471-17.488c.2.4.6.7 1 .8.699.2 1.398-.2 1.698-.8l51.365 21.685v.1c-.2.9.3 1.7 1.199 1.899.8.2 1.499-.2 1.798-.9l67.354 19.287c-.1.8.4 1.6 1.199 1.799.4.1.8 0 1.1-.2l46.367 62.956c-.2.2-.4.5-.5.8-.2.9.3 1.699 1.2 1.899.899.2 1.698-.3 1.898-1.2v-.3l79.545-6.495c.1.6.6 1.1 1.199 1.2.9.2 1.699-.3 1.899-1.2.1-.3 0-.5 0-.8l66.054-26.88c.2.399.6.699 1 .799.899.2 1.698-.3 1.898-1.2.1-.4 0-.899-.2-1.199l56.56-46.467c.2.2.4.3.7.4.9.2 1.699-.3 1.899-1.2v-.4l72.15-11.891c.2.5.6 1 1.099 1.099.9.2 1.699-.3 1.899-1.2.2-.899-.3-1.698-1.2-1.898-.4-.1-.799 0-1.199.2l-25.682-34.876c.2-.2.4-.5.5-.8.2-.899-.3-1.698-1.2-1.898-.599-.1-1.099.1-1.498.5l-49.466-36.075c.1-.1.2-.3.2-.4.2-.9-.3-1.699-1.2-1.899-.899-.2-1.698.3-1.898 1.2-.1.3 0 .5 0 .7l-58.06 22.284c-.2-.4-.6-.7-.999-.8-.8-.2-1.499.3-1.799 1l-69.152-17.189c.1-.799-.4-1.499-1.199-1.698-.6-.1-1.099.1-1.499.4l-56.76-44.07c.1-.1.2-.3.2-.4.2-.9-.3-1.699-1.2-1.898-.899-.2-1.698.3-1.898 1.199-.1.2 0 .5 0 .7l-28.88 8.593c-.2-.5-.6-.9-1.1-1-.699-.199-1.299.1-1.698.7l-55.162-27.48c0-.1.1-.1.1-.2.2-.9-.3-1.7-1.2-1.899-.899-.2-1.698.3-1.898 1.2-.1.299 0 .599.1.899l-64.155 30.978c-.2-.3-.6-.6-1-.7-.6-.1-1.199.1-1.599.6l-56.36-33.976c0-.1.1-.2.1-.3.2-.9-.3-1.699-1.2-1.899-.9-.2-1.699.3-1.898 1.2-.1.4 0 .699.1.999l-43.57 25.282c-.2-.3-.5-.5-.9-.6-.899-.2-1.698.3-1.898 1.2-.1.2 0 .5 0 .7l-63.456 23.583c-.2-.4-.6-.7-1-.8-.899-.2-1.698.3-1.898 1.2-.1.5 0 .899.2 1.199l-15.29 13.09-65.354.1c-.1-.599-.5-1.199-1.2-1.299-.899-.2-1.698.3-1.898 1.2-.1.3 0 .5 0 .7l-66.554 25.581c-.2-.4-.6-.7-1-.799-.899-.2-1.698.3-1.898 1.2-.2.799.3 1.698 1.2 1.898zm752.178 44.469l-72.15 11.892c-.1-.2-.2-.4-.3-.5l45.569-47.467.6.3c.399.1.799 0 1.198-.2l25.682 34.876c-.2.2-.4.5-.5.8-.2 0-.1.199-.1.299zM902.173 67.853c.1.2.3.3.5.5l-13.79 36.474c-.5.1-1 .5-1.2 1L850.91 95.534l51.264-27.681zm173.18-22.884h.5l14.99 69.152c-.5.2-.9.5-1 1.099l-37.973-6.396c0-.6-.3-1.199-.8-1.499l24.283-62.356c-.1-.1-.1 0 0 0zm57.96 28.88c.3.1.6 0 .8-.1l25.782 58.959c-.3.2-.5.4-.6.8l-66.354-17.788c.1-.4-.1-.9-.3-1.2l40.172-40.971c0 .1.2.2.5.3zm275.309 68.352l-45.569 47.467-.6-.3h-.499l-7.095-36.174c.5-.2 1-.6 1.1-1.1v-.5l52.363-9.892c.1.2.2.4.3.5zm-106.426 95.934l-36.175-38.873c.2-.2.3-.4.4-.7l37.673 5.896c0 .8.4 1.499 1.2 1.699h.1l-2.299 31.678c-.3 0-.6.1-.9.3zM1152 272.71l8.294-51.764c.8 0 1.5-.4 1.6-1.2v-.1l36.174 3.598c0 .4.1.7.4 1L1152.6 272.91c-.2-.1-.4-.2-.6-.2zm-47.067-63.756v-.4l26.581-8.394 27.481 18.587c0 .1-.1.2-.1.3l-53.962-10.093zm-288.4-40.472c-.2-.3-.4-.4-.7-.6l16.789-59.958 29.68 38.273-45.769 22.285zm-40.872-23.484c-.3.2-.5.5-.6.8l-52.163-12.092v-.1l45.169-1.998 7.594 13.39zm-52.763-11.792c0-.2-.1-.5-.3-.699l29.78-25.482c.2.2.4.4.699.4.4.1.7 0 1-.1l13.59 23.783-44.769 2.098zm-.5-.799c-.2-.2-.4-.4-.7-.4-.899-.2-1.698.3-1.898 1.2v.2l-2.898-.1 33.077-24.384-27.58 23.484zm-2.598 1.2v.1l-4.996 1.098 1.698-1.299 3.298.1zm71.05-2c.2.2.4.3.7.3h.6L779.759 143.1l11.092-11.492zm2.599-.799c0-.1 0-.1 0 0 .1-.4 0-.8-.1-1.1l4.397-2.697-4.297 3.797zm-2.698.6l-13.091 13.59c-.2-.2-.4-.3-.7-.3-.4-.1-.7 0-.999.1l-7.595-13.19 21.985-1c0 .3.2.6.4.8zm-90.937 6.795l13.79-2.998-5.396 3.997-8.394-.8v-.199zm-.1.6l7.895.8-9.094 6.694c-.2-.2-.5-.4-.8-.5h-.1l.5-5.795c.8.1 1.5-.4 1.6-1.2zm8.494.899l1.899.2-10.393 5.996 8.494-6.196zm.5-.4l5.696-4.197 5.396-1.199c0 .1.1.2.1.3l-9.194 5.396-1.998-.3zM720 134.407c.2.3.5.6.9.7.799.199 1.598-.3 1.798-1l50.965 11.792-62.657-6.196 8.994-5.296zm72.65-2.399l.899 1.5-13.89 10.292 12.99-11.792zm.2-.2l6.695-6.095 28.08-17.588-33.976 25.082-.8-1.399zm145.299-51.764c.2.2.4.4.6.5l-12.792 35.076-8.494-2.199-5.696-19.186 26.382-14.19zm151.594 35.376c0 .4.1.7.3 1l-19.986 17.887-18.687-24.583c.2-.2.4-.4.4-.7l37.973 6.396zm69.452 18.487v.6l-48.566 19.386-18.387-37.074c.3-.2.4-.4.6-.7l66.353 17.788zm145 70.251c0 .1-.1.1-.1.2l-37.674-5.896c0-.6-.2-1.1-.7-1.399l4.497-9.993 33.976 17.088zm-200.461 3.098h-.3l-1-25.582c.4 0 .8-.2 1-.5l13.59 9.194-12.79 17.188c-.1-.2-.3-.3-.5-.3zm-33.877-72.75l-30.879 27.681 11.193-52.063c.3 0 .7 0 .9-.2l18.786 24.583zm52.863 45.769l-11.692-6.795 6.396-5.097 5.696 11.492c-.2.1-.3.3-.4.4zm-.1.3c0 .1-.1.2-.1.3v.1l-18.587-1c0-.2-.1-.5-.2-.7l7.096-5.596 11.791 6.896zm-19.286-1.6c-.2-.2-.4-.399-.7-.399h-.4l-1.898-10.992 10.093 5.896-7.095 5.496zm-10.893-17.387l6.096-2.399 1.3 7.895-7.496-4.397c0-.1.1-.2.1-.3.1-.3.1-.6 0-.8zm-.1-.4c-.2-.4-.6-.7-.999-.8h-.2l.4-43.07 6.995 41.372-6.196 2.498zm-.1 1.699l7.695 4.497 1.899 11.192c-.1 0-.2.1-.3.1l-9.693-15.49c.2-.1.3-.2.4-.3zm33.277 18.587l54.363 2.798v.2l-40.472 12.791-14.29-14.99c.2-.2.4-.4.4-.799 0 .1 0 0 0 0zm-1.199-1.799c-.3-.1-.6 0-.9.1l-5.795-11.592 41.87-32.977-34.775 44.67c-.1-.1-.2-.2-.4-.2zm35.076-44.769l-41.871 32.877-6.795-13.59 48.666-19.287zm-42.17 33.177l-6.596 5.197-10.293-5.996-1.4-8.294 11.593-4.597 6.695 13.69zm-18.388-9.493l-7.095-41.571h.1l18.387 37.074-11.392 4.497zm-7.895-41.571h.2l-.4 43.37c-.2 0-.5.1-.699.2l-19.786-25.982 19.986-17.888c.3.1.5.3.7.3zm-1.099 43.87c-.2.2-.4.499-.5.799v.3l-51.464 4.996.9-4.097 31.278-27.98 19.786 25.981zm-51.364 1.798l-4.197 3.797c-.1-.1-.3-.2-.4-.3l15.09-52.263-10.493 48.766zm-3.698 4.997l2.599-.3-.2.8-2.399-.5zm0-.4c0-.2-.1-.4-.2-.6l3.798-3.397-.8 3.697-2.798.3zm-4.397-4.997l-28.38-48.866.9-2.098 1.698-.1 25.782 51.064zm-112.322 9.394l-13.79-31.478 16.189-11.193c.2.2.5.4.8.5h.1l-2.599 42.67-.7-.5zm-40.771-30.979c.1-.1.2-.3.2-.4v-.599l2.498-.6-.9 3.098-1.798-1.499zm12.391-32.877l11.192 25.482-20.385 5.297 8.594-30.679c.1 0 .3 0 .6-.1zm30.579 20.986l-16.089 11.092-2.798-6.496 18.887-4.896v.3zm.1-1.5c-.1.1-.1.2-.2.4v.6l-18.887 4.896-11.192-25.482c.2-.1.3-.2.4-.4l29.879 19.987zm-40.372 11.393l-2.698.7c-.1-.4-.4-.7-.7-.8l1.1-2.798 10.592-26.782-8.294 29.68zm.3.2l20.585-5.297 2.898 6.596-14.29 9.893-10.193-7.695 1-3.497zm23.683 1.598l13.49 30.78-27.58-20.986 14.09-9.794zm45.968-18.287l15.39 3.997v.1l-41.671 1.5 26.281-5.597zm49.066-10.393l-19.786 8.894 17.987-8.494 1.8-.4zm2.399.8c.3-.2.5-.5.6-.9v-.3h.399l-.7 1.7-.3-.5zm1.199-1.5h-.5c0-.199-.1-.399-.2-.599l.6-.4c.1.2.3.3.4.4l-.3.6zm-.3-1.298c0 .1 0 .1 0 0l-.6.5c0-.1-.1-.1-.2-.2l.8-.3zm-3.298 1.599s-.1 0 0 0zm-2.898 1.099l-27.88 13.19c-.1-.1-.2-.2-.2-.3l6.895-8.393 21.185-4.497zm-28.38 12.591c-.2-.1-.3-.2-.5-.2-.4-.1-.7 0-.999.1l-3.198-5.496 11.292-2.398-6.595 7.994zm-1.699.1c-.2.2-.4.4-.5.7l-14.59-3.798 11.892-2.498 3.198 5.596zm2.299 1.899c0-.1.1-.2.1-.3.1-.3 0-.6-.1-.9l30.778-13.79c.1.3.4.5.6.6l-10.693 27.18-20.685-12.79zm34.675-16.09l.2-.499h.1c.3.1.6 0 .9-.1l.2.4-1.4.2zm-.799-1.398l-.9.4c-.1-.1-.2-.1-.4-.2l.4-1.6.8.4s0 .1-.1.1c0 .3.1.6.2.9zm-3.198 1.499l-1.199.6-22.384 4.696 10.492-12.691 13.291 6.995c0 .1-.1.1-.1.2-.1.1-.1.2-.1.2zm-49.965 10.892l-25.882 5.496c-.1-.4-.4-.7-.8-.899l3.798-10.493 22.884 5.896zm-26.981 4.497c-.3-.1-.5-.1-.7 0l-3.797-12.591 8.194 2.098-3.697 10.493zm-1 .1c-.2.1-.5.2-.6.5l-29.878-19.986c0-.1.1-.1.1-.2l26.581 6.895 3.797 12.791zm-44.069 14.39l1.999 1.499-4.697 16.888 1.599-17.987c.4.1.8-.1 1.099-.4zm102.229 23.284c-.2-.1-.5 0-.7 0l-10.992-36.375c.2-.1.5-.2.6-.5l20.685 12.892-9.593 23.983c.1 0 0 0 0 0zm55.461 3.897s0-.1.1-.1l2.499.4-.2 1-2.399-1.3zm68.953 12.591c.1-.1.1-.2.2-.4v-.1l18.587 1c0 .4.2.8.5 1.1l-5.697 7.594-13.59-9.194zm36.174 16.789l40.273-12.691c.1.2.3.5.5.6l-19.487 32.477c-.1 0-.2-.1-.3-.1-.5-.1-1 0-1.3.3l-19.686-20.586zm21.486 20.486l19.486-32.578c.1.1.2.1.3.1.3.1.6 0 .9-.1l9.593 20.586-29.78 12.391c-.1 0-.3-.2-.5-.4zm38.673 3.697c-.3-.1-.6 0-.9.1l-7.095-15.29 31.678-13.19-23.184 28.58c-.1-.1-.3-.2-.5-.2zm24.383-28.68l4.697-1.999c0 .1.1.1.1.2v.1l-26.682 28.48 21.885-26.781zm6.795-4.097c-.1-.1-.2-.1-.3-.2h-.3l-.2-3.098 9.794-12.092-8.994 15.39zm-1-.2c-.599.1-1.099.6-1.198 1.2l-1.9-.2 2.899-3.598.2 2.598zm-1.198 1.499v.5l-4.098 1.698 1.999-2.398 2.099.2zm34.775 6.895c-.2.2-.3.4-.4.6l-28.88-6.696c.1-.8-.399-1.599-1.198-1.798-.5-.1-1 0-1.3.3 0-.1-.1-.1-.1-.1-.1-.2-.3-.4-.5-.5l9.095-15.49c.1.1.2.1.3.2.499.1.899 0 1.298-.3l21.685 23.784zm-37.274-7.195l-2.198 2.698-32.378 13.39-9.593-20.585c.4-.2.7-.6.8-1l43.37 5.497zm-176.777-79.944l-16.189 55.96c-.3 0-.6 0-.8.1l-27.78-54.861 43.77-2.399c.1.6.5 1 1 1.2zm-74.848 6.595l-11.992 2.498-22.484-38.673c.1-.1.3-.2.4-.4l44.769 23.584-10.693 12.991zm-35.775-35.975c.4.1.7 0 1-.1l22.384 38.573-12.592 2.698-23.683-6.095 12.89-35.076zm-50.565 27.081l-5.296 13.39 5.096-13.49c.1 0 .2.1.2.1zm-13.89 31.378c-.1.1-.2.3-.2.5-.1.3 0 .6.1.9l-8.894 4.296-11.192-21.085 20.186 15.39zm0 20.386l4.696-16.788 9.694 7.695-13.79 9.493c-.2-.1-.4-.3-.6-.4zm43.17 12.492l.3.6-.3.299-28.18-22.285 28.18 21.386zm2.698 1.598l-.2-.1c-.1-.2-.1-.3-.2-.4l9.493-9.393 1.9 8.494-10.993 1.4zm-.6-.899c-.2-.1-.4-.3-.6-.3h-.1l2.699-42.77h.1l7.594 33.477-9.693 9.593zm2.299-43.17c.3-.1.5-.2.7-.5l24.682 16.29-17.788 17.587-7.594-33.377zm.899-.8c.1-.1.1-.2.2-.3v-.299l42.07-1.499c0 .3.2.5.3.8l-17.887 17.687-24.683-16.388zm42.87-.999l-11.892 21.485-5.895-3.897 17.787-17.588zm.4.2c.1 0 .1.1.2.1.2.1.5 0 .7 0l11.092 36.375c-.2.1-.5.2-.6.4l-23.384-15.39 11.992-21.485zm22.784 12.591l.5.3-6.895 15.89 6.395-16.19zm.2-.4l10.792-27.18h.1c.3.1.5 0 .8 0l.4 1.099-11.592 26.481-.5-.4zm12.192-25.781l18.986 45.168-30.479-18.887 11.493-26.281zm.4-.3l30.478 52.363-.3.3-10.792-6.695-19.387-45.968zm32.577 54.562l2.398 1.399-3.697 17.188.1-17.987c.5 0 .899-.2 1.199-.6zm2.898 1.2l.3-1.2 27.68 4.996-11.992 5.597-15.988-9.394zm.3-1.6l.2-.9 51.563-4.996c0 .1 0 .1.1.2l-23.583 10.893-28.28-5.197zm51.863-5.396c.2.4.6.6 1 .7h.6l3.996 15.089-28.68-5.196 23.084-10.593zm1.9.6c.099 0 .099 0 .199-.1l9.693 15.489c-.3.2-.5.5-.6.8l-5.196-.9-4.097-15.29zm9.293 16.588c0 .1 0 .1 0 0l-4.597.7-.4-1.6 4.997.9zm0 .5c.1.6.6.999 1.199 1.199h.3l.999 25.582h-.1l-6.995-26.182 4.597-.6zm16.788 9.693l5.696-7.595c.1.1.3.2.5.2.5.1.999 0 1.299-.3l14.19 14.89-7.495 2.398-14.19-9.593zm21.885 7.495l19.786 20.685-27.181-18.387 7.395-2.298zm22.484 21.285l29.78-12.391 7.095 15.289c-.4.2-.7.6-.8 1v.1l-36.175-3.598c.2-.1.2-.2.1-.4zm38.873 3.298l28.68-30.679c.2.2.5.4.8.5h.2l.899 18.887-30.379 11.691c0-.2-.1-.3-.2-.4zm30.08-30.18c.299 0 .499-.2.699-.3.2.3.6.6 1 .7.799.2 1.598-.3 1.798-1.099l28.88 6.695v.6l-31.578 12.092-.8-18.687zm34.475 4.697c-.1 0-.1-.1 0 0-.6-.2-.999 0-1.399.3l-21.585-23.883.2-.2 27.281 13.79-4.497 9.993zm-25.282-23.583l-9.693 11.991-.7-10.592 10.093-1.999c0 .2.1.4.3.6zm-10.093 12.491l-3.298 4.097-43.67-5.496v-.2l46.168-9.293.8 10.892zm-49.965-1.899c-.1.1 0 .1 0 0l-54.363-2.698c0-.4-.2-.7-.5-1l34.777-44.668c.1.1.3.2.5.2.299.1.499 0 .799 0l19.586 47.167c-.4.2-.7.6-.8 1zm-175.179-72.849l-.3-.6c.3-.2.6-.5.7-.999v-.2l38.473-.4-38.873 2.199zm-2.498-2.698l-.9-.4 6.696-28.88-4.297 28.58c-.6 0-1.2.2-1.499.7zm5.996-30.979l-6.995 30.48-13.491-6.296 20.086-24.384c.1.1.2.2.4.2zm-7.195 30.879l-.4 1.699c-.6-.1-1.2.2-1.499.7l-13.19-6.896 1.498-1.799 13.59 6.296zm-15.39-4.797l-39.572-20.885 40.972 19.086-1.4 1.8zm-68.552 9.993l-26.382-6.795c0-.3 0-.5-.1-.8l20.886-11.292 5.596 18.887zm-26.681-7.894c-.2-.2-.4-.4-.6-.5l12.192-33.676.999-2.799h.6l7.594 25.583-20.785 11.392zm-.9-.6h-.2l5.696-15.19-5.496 15.19zm-1.599 2.498l-11.692 31.079c-.4-.1-.899 0-1.199.2l-26.182-32.378 38.774.3c0 .3.1.5.3.8zm-13.19 31.479l-20.886-15.79-8.994-16.888h3.498l26.382 32.678zm-37.275-45.669l3.698 6.995-7.595 4.098 3.098-10.993c.3 0 .6 0 .8-.1zm3.998 7.395l2.798 5.297-10.993-.1.3-.9 7.895-4.297zm-8.694 5.197h-.2c0-.1-.1-.3-.1-.4l.4-.2-.1.6zm-1.899 1.698c.4 0 .7 0 1-.2l.3.4-13.591 48.367 12.291-48.567zm1.3-.5l.199.1v.1l-.2-.2zm.299-.299c.1-.1.2-.3.2-.5v-.2h.1l-.3.7zm.7-.6l11.292.1 8.693 16.289-20.285-15.39.3-.999zm11.491-.2l-2.898-5.496 1.3-.7 4.996 6.197h-3.398zm-3.097-5.895l-3.498-6.596 4.797 5.996-1.3.6zm-8.395 4.596l-.8.4c-.099-.2-.399-.4-.599-.5l4.297-10.392-2.898 10.492zM865.7 145l8.894-4.297c.2.3.6.6.999.7h.1l-1.599 17.987c-.2 0-.4 0-.6.1L865.7 145zm65.954 27.381l2.398 10.593c-.2.1-.4.2-.6.4l-12.59-9.594 10.792-1.399zm101.93 14.79l3.697-16.988 15.589 9.193-18.387 8.495c-.2-.3-.5-.5-.9-.7zm70.85 20.486l12.791-17.188 13.89 9.393-26.381 8.294c0-.2-.1-.4-.3-.5zM1296.5 128.31h.3l8.394 74.848c-.4.1-.7.3-.9.6l-34.076-17.189 26.282-58.26c-.1 0 0 0 0 0zm-466.476-21.385c.2.2.4.3.6.4l-15.19 60.457c-.3 0-.6 0-.9.1l-20.585-34.376 36.075-26.581zm2.698.7l.1-.3 20.685 15.789 11.592 21.784-2.498 1.2-29.88-38.474zm32.677 37.573l7.395 13.89-9.893-12.69 2.498-1.2zm10.193 16.089c.1-.4 0-.7-.2-1l13.89-9.593 28.28 22.385c-.1.1-.1.2-.1.3l-41.87-12.092zm44.769 12.691l10.093 7.695-10.293-6.895c.1-.1.2-.3.2-.4v-.4zm14.59 8.894h-.5l-2.398-10.593 9.893-1.299-6.695 11.992c-.2 0-.3 0-.3-.1zm-3.098-10.892l-1.999-8.694 17.988-17.688 5.996 3.997-11.792 21.085-10.193 1.3zm22.284-22.285l23.384 15.39c-.1.1-.1.2-.2.3v.399l-34.776 4.697 11.592-20.786zm25.483 14.79l10.293-23.484 30.878 19.187 2.898 6.995-43.37-1.4c.1-.599-.2-1.098-.7-1.298zm41.87-3.997l10.393 6.395c0 .1-.1.2-.1.3v.1l-7.494-.2-2.798-6.595zm10.194 7.195c0 .7.5 1.299 1.199 1.399h.2l-.1 17.987h-.3l-8.294-19.686 7.295.3zm2.898 20.485l18.687-8.594 8.993 5.297-27.68 3.397v-.1zm19.086-8.794l12.292-5.696 29.38 5.297.4 1.699-32.878 4.097-9.194-5.397zm42.171 1.7l6.995 26.281c-.3.1-.5.3-.7.5l-38.772-22.685 32.477-4.097zm105.327 41.87l30.279-11.592 2.598 54.662c-.2 0-.4.1-.6.2l-32.677-41.77c.2-.2.4-.5.5-.8 0-.3 0-.5-.1-.7zm33.477 42.97h-.2l-2.598-54.762 31.678-12.191c.1.3.3.5.6.6l-29.48 66.353zm72.15-62.256l46.667-50.665.6.3h.5l7.094 36.174c-.5.2-.999.6-1.099 1.1v.6l-53.463 12.99c0-.2-.1-.4-.3-.5zm46.467-50.965l-46.667 50.665-.6-.3h-.3l-8.394-74.848c.4-.1.8-.4 1-.8l54.761 23.684v.1c-.3.7-.1 1.2.2 1.499zM1296 128.111l-26.082 58.26-27.28-13.79c0-.1.099-.1.099-.2.1-.4 0-.9-.2-1.2l53.263-43.37c.1.2.1.2.2.3zm-56.36 43.67v.5l-9.994 1.998-4.497-63.356 15.49 59.758c-.5.1-.9.5-1 1.1zm-15.29-61.358h.3l4.496 63.956-46.168 9.393c-.2-.5-.6-.899-1.099-1.099-.3-.1-.6 0-.8 0l-19.586-47.167c.4-.2.7-.6.8-1 .1-.3 0-.5 0-.799l61.157-24.183c.1.4.5.7.9.9zm-175.678-1.898l-43.47.4c-.1-.7-.5-1.2-1.2-1.4l4.598-30.179c.5 0 .899-.1 1.199-.5l39.073 30.98c-.1.1-.2.299-.2.499 0 0 .1.1 0 .2zM1007.6 76.847l-20.186 24.483-46.467-21.685s0-.1.1-.1v-.2l66.154-3.198c0 .2.2.5.4.7zm-69.551 2.898l-26.382 14.19-7.595-25.582c.4-.2.7-.4.8-.8l32.977 11.192c0 .4 0 .7.2 1zm-50.365 26.281c0 .1 0 .1 0 0l-39.073-.2-5.097-6.395 7.095-3.797 37.075 10.392zm-44.47-6.895l-5.096-6.295c.1-.1.3-.3.3-.5l11.492 3.198-6.696 3.597zm-6.895-6.096l-4.697 11.293c-.1 0-.1-.1-.2-.1-.899-.2-1.698.3-1.898 1.199v.2h-7.795l14.19-12.791c.2.1.3.2.4.2zm-6.695 12.991c0 .2.1.3.2.5l-28.88 18.087 20.585-18.587h8.095zM790.35 130.21l-22.184.999-13.69-23.983.299-.3 35.675 22.684c-.1.1-.1.2-.2.4.1.1.1.2.1.2zm-74.048 2.997l-8.495-.2 42.87-25.182-34.375 25.382zm-.3.3l-1.999 1.5-14.19 3.097c0-.1 0-.1-.1-.2l7.795-4.597 8.494.2zm-16.489 3.998c-.2-.3-.5-.5-.9-.6-.699-.2-1.398.2-1.798.9l-11.292-4.697c0-.1.1-.1.1-.2v-.2l21.185.5-7.295 4.297zm99.331-11.692l-5.296 3.297 26.981-23.084h.3l-21.985 19.787zm-113.421 7.494l11.292 4.697c0 .1-.1.1-.1.2-.2.9.3 1.699 1.2 1.899h.1l-.5 5.796c-.4 0-.7.1-1 .3l-11.292-12.392c.2-.2.3-.4.3-.5zm13.39 13.391l11.693-6.795 62.456 6.196-73.948.999c0-.1-.1-.3-.2-.4zm79.146-1.199l15.789-11.692 20.486 34.376c-.1.1-.3.2-.4.3l-35.975-21.485c0-.1.1-.2.1-.3.3-.5.2-.9 0-1.199zm38.673 23.384l45.868-22.285 10.393 13.291c-.2.2-.4.4-.5.8v.4l-55.761 7.994c.1-.1 0-.2 0-.2zm100.63 4.696c-.2.8.4 1.6 1.2 1.8.599.1 1.198-.1 1.598-.6l12.991 8.794h.1v.1l-55.761-21.586 39.872 11.492zm18.187 9.594l6.896-12.292 35.075-4.696v.1l-41.471 17.487c-.1-.3-.3-.5-.5-.6zm44.97-17.188l43.469 1.399 8.394 19.886c-.2.1-.4.4-.6.6l-51.364-21.685v-.1c.1 0 .1 0 .1-.1zm54.162 22.684l28.18-3.498 39.173 22.984-67.353-19.286v-.2zm70.35 20.586l53.963 9.993c-.1.7.4 1.399 1.1 1.599l-8.295 51.764c-.3 0-.6 0-.8.2l-46.367-62.957c.1-.1.3-.4.4-.6zm47.867 63.955l45.869-48.666.6.3c.399.1.899 0 1.198-.2l32.678 41.771c-.2.2-.4.5-.5.8v.3l-79.545 6.495c0-.4-.1-.6-.3-.8zm82.243-7.095l29.28-66.354h.1c.5.1.9 0 1.299-.3l36.175 38.873c-.2.2-.3.4-.4.7-.1.3 0 .5 0 .8l-66.054 26.88c.1-.299-.1-.399-.4-.599zm68.453-28.28h-.1l2.298-31.678c.7 0 1.4-.5 1.5-1.2v-.599l53.462-12.99c0 .099.1.199.1.299l-56.56 46.468c-.2 0-.4-.2-.7-.3zm104.827-96.433l-52.364 9.893c-.2-.5-.6-1-1.099-1.1h-.1l3.198-45.268c.4 0 .8-.2 1.1-.5l49.465 36.075c-.1.1-.2.3-.2.4v.5zm-50.865-36.475c.1 0 .1 0 0 0l-3.098 45.269c-.6 0-.999.3-1.299.8l-54.762-23.684v-.1c.1-.3 0-.5 0-.7l58.06-22.284c.3.3.7.6 1.1.7zm-61.957 22.684l-53.263 43.37c-.2-.2-.4-.4-.7-.4h-.599l-15.589-60.258c.4-.2.7-.5.9-.899l69.151 17.188c-.1.4-.1.7.1 1zm-72.25-18.387l-61.157 24.183c-.2-.4-.6-.7-1-.8h-.1l4.598-68.152c.4 0 .7-.2.999-.5l56.76 44.07c-.1.1-.2.3-.2.4 0 .3 0 .6.1.8zm-58.06-44.869l-4.596 68.153c-.1 0-.2 0-.4.1l-25.882-58.96c.4-.199.6-.599.8-.998.1-.2 0-.5 0-.7l28.88-8.594c.3.5.7.9 1.199 1zm-32.776 8.894l-40.172 40.972c-.2-.1-.4-.3-.6-.3h-.5l-14.99-69.052c.3-.1.6-.3.8-.6l55.162 27.481c0 .1-.1.1-.1.2 0 .5.1 1 .4 1.3zm-58.06-28.98c.1.2.4.4.6.5l-24.284 62.357c-.6-.1-1.099.1-1.499.5l-39.072-30.98c.1-.1.2-.299.2-.499.1-.3 0-.6-.1-.9l64.155-30.978zM1007.2 75.647l-66.155 3.198c-.1-.6-.5-1-.999-1.199l9.494-35.975c.6.1 1.199-.1 1.499-.6l56.36 33.977c0 .1-.1.2-.1.3-.1.1-.1.2-.1.3zm-58.76-34.576c.2.3.4.4.7.5l-9.494 35.975c-.699-.1-1.399.3-1.698.9l-32.977-11.193c.1-.4 0-.7-.1-.999l43.57-25.183zm-98.03 54.163l-11.791-3.298v-.6l62.356-23.183-50.565 27.08zm-29.18 10.393h-.3l5.097-4.397-4.796 4.397zm-28.28 23.583c-.2-.2-.4-.3-.7-.4-.599-.1-1.198.1-1.598.6l-35.675-22.684c.1-.1.1-.2.2-.4v-.2l64.855-.1-27.082 23.184zm-85.74 3.798l-21.585-.5v-.3l65.954-25.282-44.37 26.082z" id="Shape"/></g></g></g></svg>