<svg width="264" height="264" viewBox="0 0 264 264" xmlns="http://www.w3.org/2000/svg"><defs><linearGradient x1="100%" y1="50%" x2="0%" y2="50%" id="linearGradient-1"><stop stop-color="#6A85FF" offset="0%"/><stop stop-color="#8C5DFF" offset="100%"/></linearGradient><filter x="-5.8%" y="-5.8%" width="111.7%" height="111.7%" filterUnits="objectBoundingBox" id="filter-2"><feGaussianBlur stdDeviation="4" in="SourceGraphic"/></filter><linearGradient x1="100%" y1="0%" x2="0%" y2="100%" id="linearGradient-3"><stop stop-color="#6A85FF" offset="0%"/><stop stop-color="#533799" offset="100%"/></linearGradient></defs><g id="DEF" fill="none" fill-rule="evenodd"><g id="01B.Home" transform="translate(-206 -1673)"><g id="Group-25" transform="translate(0 1419)"><g id="Group-22" transform="translate(218 266)"><g id="Group-17-Copy"><g id="Group-72"><path d="M120 240c66.274 0 120-53.726 120-120S186.274 0 120 0 0 53.726 0 120s53.726 120 120 120z" id="Oval-Copy-3" stroke="url(#linearGradient-1)" stroke-width="4" stroke-linecap="round" stroke-linejoin="round" stroke-dasharray="24,1,20" filter="url(#filter-2)" transform="matrix(-1 0 0 1 240 0)"/><circle id="Oval-Copy-3" fill="url(#linearGradient-3)" transform="matrix(-1 0 0 1 238 0)" cx="119" cy="121" r="101"/><path d="M120 240c66.274 0 120-53.726 120-120S186.274 0 120 0 0 53.726 0 120s53.726 120 120 120z" id="Oval-Copy-3" stroke="url(#linearGradient-1)" stroke-width="4" stroke-linecap="round" stroke-linejoin="round" stroke-dasharray="24,1,20" transform="matrix(-1 0 0 1 240 0)"/></g></g></g></g></g></g></svg>