<svg width="1403" height="787" viewBox="0 0 1403 787" xmlns="http://www.w3.org/2000/svg"><defs><linearGradient x1="78.781%" y1="10.328%" x2="16.396%" y2="89.902%" id="linearGradient-1"><stop stop-color="#248CB8" offset="0%"/><stop stop-color="#100941" stop-opacity="0" offset="100%"/></linearGradient><linearGradient x1="0%" y1="50%" y2="50%" id="linearGradient-2"><stop stop-color="#32FBFC" offset="0%"/><stop stop-color="#147AFF" stop-opacity="0" offset="100%"/></linearGradient><filter x="-16.7%" y="-150%" width="133.3%" height="400%" filterUnits="objectBoundingBox" id="filter-3"><feGaussianBlur stdDeviation="2" in="SourceGraphic"/></filter><filter x="-8.3%" y="-75%" width="116.7%" height="250%" filterUnits="objectBoundingBox" id="filter-4"><feGaussianBlur stdDeviation="0.961261696 -0.275637356" in="SourceGraphic"/></filter></defs><g id="DEF" fill="none" fill-rule="evenodd"><g id="01A.Home" transform="translate(-19 -6)"><g id="Group-33" transform="translate(19 6)"><g id="original_Group-10_86044008" fill="#52A8C3"><circle id="Oval-3" cx="56" cy="129" r="1"/><circle id="Oval-4" cx="84.5" cy="129.5" r="1"/><circle id="Oval-2" cx="184.5" cy="203.5" r="2.5"/><circle id="Oval-5" cx="282.5" cy="34.5" r="1.5"/><circle id="Oval-6" cx="413.5" cy="88.5" r="1.5"/><circle id="Oval-7" cx="566" cy="100" r="1"/><circle id="Oval-8" cx="585.5" cy="63.5" r="1.5"/><circle id="Oval-9" cx="784.5" cy="48.5" r="1.5"/><circle id="Oval-10" cx="799.5" cy="34.5" r="1.5"/><circle id="Oval-11" cx="853" cy="2" r="2"/><circle id="Oval-12" cx="947.5" cy="88.5" r="1.5"/><circle id="Oval-13" cx="1112.5" cy="6.5" r="1.5"/><circle id="Oval-14" cx="1286.5" cy="18.5" r="2.5"/><circle id="Oval-15" cx="1330.5" cy="47.5" r="1"/><circle id="Oval-16" cx="1399.5" cy="88.5" r="1.5"/><circle id="Oval-17" cx="1402" cy="98" r="1"/><circle id="Oval-18" cx="1289.5" cy="220.5" r="1.5"/><circle id="Oval-19" cx="724" cy="139" r="1"/><circle id="Oval-20" cx="657.5" cy="172.5" r="1.5"/><circle id="Oval-21" cx="628.5" cy="182.5" r="1.5"/><circle id="Oval-22" cx="516" cy="234" r="3"/><circle id="Oval-23" cx="523.5" cy="274.5" r="1.5"/><circle id="Oval-24" cx="361.5" cy="267.5" r="1.5"/><circle id="Oval-25" cx="299" cy="237" r="1"/><circle id="Oval-26" cx="330.5" cy="335.5" r="1.5"/><circle id="Oval-27" cx="243.5" cy="359.5" r="1.5"/><circle id="Oval-28" cx="1.5" cy="294.5" r="1.5"/><circle id="Oval-29" cx="43.5" cy="335.5" r="1.5"/><circle id="Oval-30" cx="76" cy="357" r="1"/><circle id="Oval-31" cx="74" cy="431" r="1"/><circle id="Oval-32" cx="68" cy="474" r="1"/><circle id="Oval-33" cx="145.5" cy="530.5" r="2.5"/><circle id="Oval-34" cx="192" cy="517" r="1"/><circle id="Oval-35" cx="314.5" cy="574.5" r="1.5"/><circle id="Oval-36" cx="329.5" cy="595.5" r="1.5"/><circle id="Oval-37" cx="500" cy="476" r="1"/><circle id="Oval-38" cx="476.5" cy="521.5" r="1.5"/><circle id="Oval-39" cx="466.5" cy="569.5" r="1.5"/><circle id="Oval-40" cx="536.5" cy="540.5" r="1.5"/><circle id="Oval-41" cx="614.5" cy="525.5" r="1.5"/><circle id="Oval-42" cx="630" cy="533" r="1"/><circle id="Oval-43" cx="617.5" cy="603.5" r="1.5"/><circle id="Oval-44" cx="583.5" cy="605.5" r="1"/><circle id="Oval-45" cx="597.5" cy="639.5" r="1"/><circle id="Oval-46" cx="1399.5" cy="499.5" r="1.5"/><circle id="Oval-47" cx="1356.5" cy="319.5" r="1.5"/><circle id="Oval-48" cx="827.5" cy="227.5" r="2.5"/></g><g id="Group-8" transform="translate(15 27)"><circle id="Oval" fill="url(#linearGradient-1)" opacity=".7" cx="551" cy="18" r="18"/><circle id="Oval-Copy" fill="url(#linearGradient-1)" opacity=".7" cx="13.5" cy="212.5" r="13.5"/><circle id="Oval-Copy-2" fill="url(#linearGradient-1)" opacity=".7" cx="391.5" cy="495.5" r="13.5"/><circle id="Oval-Copy-5" fill="url(#linearGradient-1)" opacity=".7" cx="53" cy="721" r="9"/><circle id="Oval-Copy-3" fill="url(#linearGradient-1)" opacity=".7" cx="1331" cy="745" r="15"/><circle id="Oval-Copy-6" fill="url(#linearGradient-1)" opacity=".7" cx="1362" cy="86" r="10"/><g id="Group-11" transform="translate(113 574)" fill="url(#linearGradient-2)"><path d="M2 5h34v4H2a2 2 0 1 1 0-4z" id="Rectangle-7" style="mix-blend-mode:overlay" filter="url(#filter-3)" transform="rotate(-16 18 7)"/><path d="M2 5h34v4H2a2 2 0 1 1 0-4z" id="Rectangle-7" filter="url(#filter-4)" transform="rotate(-16 18 7)"/></g></g></g></g></g></svg>