<svg width="1440" height="304" viewBox="0 0 1440 304" xmlns="http://www.w3.org/2000/svg"><defs><linearGradient x1="0%" y1="0%" y2="100%" id="linearGradient-1"><stop stop-color="#32FBFC" offset="0%"/><stop stop-color="#147AFF" offset="100%"/></linearGradient></defs><g id="DEF" fill="none" fill-rule="evenodd"><g id="01A.Home" transform="translate(0 -455)" stroke="url(#linearGradient-1)"><g id="Looper_Group" transform="translate(-270 440)"><g id="original_Group-14_76475596-Group"><g id="duplicate_341_original_Group-14_76475596" opacity=".682" transform="rotate(42.139 863.176 2328.8)"><path d="M.997 33.068l243.033 83.937" id="Line"/></g><g id="duplicate_340_original_Group-14_76475596" opacity=".68" transform="rotate(43.08 864.626 2269.591)"><path d="M.997 33.068l243.033 83.937" id="Line"/></g><g id="duplicate_339_original_Group-14_76475596" opacity=".678" transform="rotate(44.01 865.872 2213.42)"><path d="M.997 33.068l243.033 83.937" id="Line"/></g><g id="duplicate_338_original_Group-14_76475596" opacity=".676" transform="rotate(44.928 866.924 2160.104)"><path d="M.997 33.068l243.033 83.937" id="Line"/></g><g id="duplicate_337_original_Group-14_76475596" opacity=".674" transform="rotate(45.833 867.794 2109.48)"><path d="M.997 33.068l243.033 83.937" id="Line"/></g><g id="duplicate_336_original_Group-14_76475596" opacity=".672" transform="rotate(46.724 868.492 2061.392)"><path d="M.997 33.068l243.033 83.937" id="Line"/></g><g id="duplicate_335_original_Group-14_76475596" opacity=".67" transform="rotate(47.6 869.026 2015.7)"><path d="M.997 33.068l243.033 83.937" id="Line"/></g><g id="duplicate_334_original_Group-14_76475596" opacity=".668" transform="rotate(48.461 869.406 1972.275)"><path d="M.997 33.068l243.033 83.937" id="Line"/></g><g id="duplicate_333_original_Group-14_76475596" opacity=".666" transform="rotate(49.305 869.64 1930.996)"><path d="M.997 33.068l243.033 83.937" id="Line"/></g><g id="duplicate_332_original_Group-14_76475596" opacity=".664" transform="rotate(50.132 869.733 1891.751)"><path d="M.997 33.068l243.033 83.937" id="Line"/></g><g id="duplicate_331_original_Group-14_76475596" opacity=".662" transform="rotate(50.941 869.693 1854.438)"><path d="M.997 33.068l243.033 83.937" id="Line"/></g><g id="duplicate_330_original_Group-14_76475596" opacity=".66" transform="rotate(51.731 869.527 1818.96)"><path d="M.997 33.068l243.033 83.937" id="Line"/></g><g id="duplicate_329_original_Group-14_76475596" opacity=".658" transform="rotate(52.502 869.24 1785.23)"><path d="M.997 33.068l243.033 83.937" id="Line"/></g><g id="duplicate_328_original_Group-14_76475596" opacity=".656" transform="rotate(53.252 868.837 1753.164)"><path d="M.997 33.068l243.033 83.937" id="Line"/></g><g id="duplicate_327_original_Group-14_76475596" opacity=".654" transform="rotate(53.981 868.323 1722.688)"><path d="M.997 33.068l243.033 83.937" id="Line"/></g><g id="duplicate_326_original_Group-14_76475596" opacity=".652" transform="rotate(54.688 867.702 1693.729)"><path d="M.997 33.068l243.033 83.937" id="Line"/></g><g id="duplicate_325_original_Group-14_76475596" opacity=".65" transform="rotate(55.373 866.98 1666.222)"><path d="M.997 33.068l243.033 83.937" id="Line"/></g><g id="duplicate_324_original_Group-14_76475596" opacity=".648" transform="rotate(56.034 866.159 1640.105)"><path d="M.997 33.068l243.033 83.937" id="Line"/></g><g id="duplicate_323_original_Group-14_76475596" opacity=".646" transform="rotate(56.671 865.243 1615.322)"><path d="M.997 33.068l243.033 83.937" id="Line"/></g><g id="duplicate_322_original_Group-14_76475596" opacity=".644" transform="rotate(57.284 864.236 1591.82)"><path d="M.997 33.068l243.033 83.937" id="Line"/></g><g id="duplicate_321_original_Group-14_76475596" opacity=".642" transform="rotate(57.872 863.14 1569.55)"><path d="M.997 33.068l243.033 83.937" id="Line"/></g><g id="duplicate_320_original_Group-14_76475596" opacity=".64" transform="rotate(58.434 861.96 1548.463)"><path d="M.997 33.068l243.033 83.937" id="Line"/></g><g id="duplicate_319_original_Group-14_76475596" opacity=".638" transform="rotate(58.97 860.695 1528.52)"><path d="M.997 33.068l243.033 83.937" id="Line"/></g><g id="duplicate_318_original_Group-14_76475596" opacity=".636" transform="rotate(59.479 859.35 1509.68)"><path d="M.997 33.068l243.033 83.937" id="Line"/><path d="M111.97.068l243.033 83.937" id="Line" transform="matrix(-1 0 0 1 466.973 0)"/></g><g id="duplicate_317_original_Group-14_76475596" opacity=".634" transform="rotate(59.961 857.928 1491.906)"><path d="M.997 33.068l243.033 83.937" id="Line"/><path d="M111.97.068l243.033 83.937" id="Line" transform="matrix(-1 0 0 1 466.973 0)"/></g><g id="duplicate_316_original_Group-14_76475596" opacity=".632" transform="rotate(60.415 856.428 1475.163)"><path d="M.997 33.068l243.033 83.937" id="Line"/><path d="M111.97.068l243.033 83.937" id="Line" transform="matrix(-1 0 0 1 466.973 0)"/></g><g id="duplicate_315_original_Group-14_76475596" opacity=".63" transform="rotate(60.84 854.854 1459.42)"><path d="M.997 33.068l243.033 83.937" id="Line"/><path d="M111.97.068l243.033 83.937" id="Line" transform="matrix(-1 0 0 1 466.973 0)"/></g><g id="duplicate_314_original_Group-14_76475596" opacity=".628" transform="rotate(61.238 853.208 1444.645)"><path d="M.997 33.068l243.033 83.937" id="Line"/><path d="M111.97.068l243.033 83.937" id="Line" transform="matrix(-1 0 0 1 466.973 0)"/></g><g id="duplicate_313_original_Group-14_76475596" opacity=".626" transform="rotate(61.606 851.49 1430.814)"><path d="M.997 33.068l243.033 83.937" id="Line"/><path d="M111.97.068l243.033 83.937" id="Line" transform="matrix(-1 0 0 1 466.973 0)"/></g><g id="duplicate_312_original_Group-14_76475596" opacity=".624" transform="rotate(61.944 849.702 1417.9)"><path d="M.997 33.068l243.033 83.937" id="Line"/><path d="M111.97.068l243.033 83.937" id="Line" transform="matrix(-1 0 0 1 466.973 0)"/></g><g id="duplicate_311_original_Group-14_76475596" opacity=".622" transform="rotate(62.253 847.846 1405.878)"><path d="M.997 33.068l243.033 83.937" id="Line"/><path d="M111.97.068l243.033 83.937" id="Line" transform="matrix(-1 0 0 1 466.973 0)"/></g><g id="duplicate_310_original_Group-14_76475596" opacity=".62" transform="rotate(62.532 845.922 1394.728)"><path d="M.997 33.068l243.033 83.937" id="Line"/><path d="M111.97.068l243.033 83.937" id="Line" transform="matrix(-1 0 0 1 466.973 0)"/></g><g id="duplicate_309_original_Group-14_76475596" opacity=".618" transform="rotate(62.781 843.932 1384.43)"><path d="M.997 33.068l243.033 83.937" id="Line"/><path d="M111.97.068l243.033 83.937" id="Line" transform="matrix(-1 0 0 1 466.973 0)"/></g><g id="duplicate_308_original_Group-14_76475596" opacity=".616" transform="rotate(62.999 841.876 1374.964)"><path d="M.997 33.068l243.033 83.937" id="Line"/><path d="M111.97.068l243.033 83.937" id="Line" transform="matrix(-1 0 0 1 466.973 0)"/></g><g id="duplicate_307_original_Group-14_76475596" opacity=".614" transform="rotate(63.187 839.755 1366.314)"><path d="M.997 33.068l243.033 83.937" id="Line"/><path d="M111.97.068l243.033 83.937" id="Line" transform="matrix(-1 0 0 1 466.973 0)"/></g><g id="duplicate_306_original_Group-14_76475596" opacity=".612" transform="rotate(63.343 837.57 1358.465)"><path d="M.997 33.068l243.033 83.937" id="Line"/><path d="M111.97.068l243.033 83.937" id="Line" transform="matrix(-1 0 0 1 466.973 0)"/></g><g id="duplicate_305_original_Group-14_76475596" opacity=".61" transform="rotate(63.468 835.322 1351.403)"><path d="M.997 33.068l243.033 83.937" id="Line"/><path d="M111.97.068l243.033 83.937" id="Line" transform="matrix(-1 0 0 1 466.973 0)"/></g><g id="duplicate_304_original_Group-14_76475596" opacity=".608" transform="rotate(63.563 833.01 1345.115)"><path d="M.997 33.068l243.033 83.937" id="Line"/><path d="M111.97.068l243.033 83.937" id="Line" transform="matrix(-1 0 0 1 466.973 0)"/></g><g id="duplicate_303_original_Group-14_76475596" opacity=".606" transform="rotate(63.625 830.636 1339.59)"><path d="M.997 33.068l243.033 83.937" id="Line"/><path d="M111.97.068l243.033 83.937" id="Line" transform="matrix(-1 0 0 1 466.973 0)"/></g><g id="duplicate_302_original_Group-14_76475596" opacity=".604" transform="rotate(63.657 828.198 1334.817)"><path d="M.997 33.068l243.033 83.937" id="Line"/><path d="M111.97.068l243.033 83.937" id="Line" transform="matrix(-1 0 0 1 466.973 0)"/></g><g id="duplicate_301_original_Group-14_76475596" opacity=".602" transform="rotate(63.657 825.698 1330.79)"><path d="M.997 33.068l243.033 83.937" id="Line"/><path d="M111.97.068l243.033 83.937" id="Line" transform="matrix(-1 0 0 1 466.973 0)"/></g><g id="duplicate_300_original_Group-14_76475596" opacity=".6" transform="rotate(63.625 823.136 1327.5)"><path d="M.997 33.068l243.033 83.937" id="Line"/><path d="M111.97.068l243.033 83.937" id="Line" transform="matrix(-1 0 0 1 466.973 0)"/></g><g id="duplicate_299_original_Group-14_76475596" opacity=".598" transform="rotate(63.563 820.51 1324.94)"><path d="M.997 33.068l243.033 83.937" id="Line"/><path d="M111.97.068l243.033 83.937" id="Line" transform="matrix(-1 0 0 1 466.973 0)"/></g><g id="duplicate_298_original_Group-14_76475596" opacity=".596" transform="rotate(63.468 817.822 1323.106)"><path d="M.997 33.068l243.033 83.937" id="Line"/><path d="M111.97.068l243.033 83.937" id="Line" transform="matrix(-1 0 0 1 466.973 0)"/></g><g id="duplicate_297_original_Group-14_76475596" opacity=".594" transform="rotate(63.343 815.07 1321.994)"><path d="M.997 33.068l243.033 83.937" id="Line"/><path d="M111.97.068l243.033 83.937" id="Line" transform="matrix(-1 0 0 1 466.973 0)"/></g><g id="duplicate_296_original_Group-14_76475596" opacity=".592" transform="rotate(63.187 812.255 1321.602)"><path d="M.997 33.068l243.033 83.937" id="Line"/><path d="M111.97.068l243.033 83.937" id="Line" transform="matrix(-1 0 0 1 466.973 0)"/></g><g id="duplicate_295_original_Group-14_76475596" opacity=".59" transform="rotate(62.999 809.376 1321.928)"><path d="M.997 33.068l243.033 83.937" id="Line"/><path d="M111.97.068l243.033 83.937" id="Line" transform="matrix(-1 0 0 1 466.973 0)"/></g><g id="duplicate_294_original_Group-14_76475596" opacity=".588" transform="rotate(62.781 806.432 1322.972)"><path d="M.997 33.068l243.033 83.937" id="Line"/><path d="M111.97.068l243.033 83.937" id="Line" transform="matrix(-1 0 0 1 466.973 0)"/></g><g id="duplicate_293_original_Group-14_76475596" opacity=".586" transform="rotate(62.532 803.422 1324.735)"><path d="M.997 33.068l243.033 83.937" id="Line"/><path d="M111.97.068l243.033 83.937" id="Line" transform="matrix(-1 0 0 1 466.973 0)"/></g><g id="duplicate_292_original_Group-14_76475596" opacity=".584" transform="rotate(62.253 800.346 1327.22)"><path d="M.997 33.068l243.033 83.937" id="Line"/><path d="M111.97.068l243.033 83.937" id="Line" transform="matrix(-1 0 0 1 466.973 0)"/></g><g id="duplicate_291_original_Group-14_76475596" opacity=".582" transform="rotate(61.944 797.202 1330.429)"><path d="M.997 33.068l243.033 83.937" id="Line"/><path d="M111.97.068l243.033 83.937" id="Line" transform="matrix(-1 0 0 1 466.973 0)"/></g><g id="duplicate_290_original_Group-14_76475596" opacity=".58" transform="rotate(61.606 793.99 1334.368)"><path d="M.997 33.068l243.033 83.937" id="Line"/><path d="M111.97.068l243.033 83.937" id="Line" transform="matrix(-1 0 0 1 466.973 0)"/></g><g id="duplicate_289_original_Group-14_76475596" opacity=".578" transform="rotate(61.238 790.708 1339.043)"><path d="M.997 33.068l243.033 83.937" id="Line"/><path d="M111.97.068l243.033 83.937" id="Line" transform="matrix(-1 0 0 1 466.973 0)"/></g><g id="duplicate_288_original_Group-14_76475596" opacity=".576" transform="rotate(60.84 787.354 1344.461)"><path d="M.997 33.068l243.033 83.937" id="Line"/><path d="M111.97.068l243.033 83.937" id="Line" transform="matrix(-1 0 0 1 466.973 0)"/></g><g id="duplicate_287_original_Group-14_76475596" opacity=".574" transform="rotate(60.415 783.928 1350.632)"><path d="M.997 33.068l243.033 83.937" id="Line"/><path d="M111.97.068l243.033 83.937" id="Line" transform="matrix(-1 0 0 1 466.973 0)"/></g><g id="duplicate_286_original_Group-14_76475596" opacity=".572" transform="rotate(59.961 780.428 1357.565)"><path d="M.997 33.068l243.033 83.937" id="Line"/><path d="M111.97.068l243.033 83.937" id="Line" transform="matrix(-1 0 0 1 466.973 0)"/></g><g id="duplicate_285_original_Group-14_76475596" opacity=".57" transform="rotate(59.479 776.85 1365.273)"><path d="M.997 33.068l243.033 83.937" id="Line"/><path d="M111.97.068l243.033 83.937" id="Line" transform="matrix(-1 0 0 1 466.973 0)"/></g><g id="duplicate_284_original_Group-14_76475596" opacity=".568" transform="rotate(58.97 773.195 1373.77)"><path d="M.997 33.068l243.033 83.937" id="Line"/><path d="M111.97.068l243.033 83.937" id="Line" transform="matrix(-1 0 0 1 466.973 0)"/></g><g id="duplicate_283_original_Group-14_76475596" opacity=".566" transform="rotate(58.434 769.46 1383.07)"><path d="M.997 33.068l243.033 83.937" id="Line"/><path d="M111.97.068l243.033 83.937" id="Line" transform="matrix(-1 0 0 1 466.973 0)"/></g><g id="duplicate_282_original_Group-14_76475596" opacity=".564" transform="rotate(57.872 765.64 1393.19)"><path d="M.997 33.068l243.033 83.937" id="Line"/><path d="M111.97.068l243.033 83.937" id="Line" transform="matrix(-1 0 0 1 466.973 0)"/></g><g id="duplicate_281_original_Group-14_76475596" opacity=".562" transform="rotate(57.284 761.736 1404.15)"><path d="M.997 33.068l243.033 83.937" id="Line"/><path d="M111.97.068l243.033 83.937" id="Line" transform="matrix(-1 0 0 1 466.973 0)"/></g><g id="duplicate_280_original_Group-14_76475596" opacity=".56" transform="rotate(56.671 757.743 1415.97)"><path d="M.997 33.068l243.033 83.937" id="Line"/><path d="M111.97.068l243.033 83.937" id="Line" transform="matrix(-1 0 0 1 466.973 0)"/></g><g id="duplicate_279_original_Group-14_76475596" opacity=".558" transform="rotate(56.034 753.659 1428.674)"><path d="M.997 33.068l243.033 83.937" id="Line"/><path d="M111.97.068l243.033 83.937" id="Line" transform="matrix(-1 0 0 1 466.973 0)"/></g><g id="duplicate_278_original_Group-14_76475596" opacity=".556" transform="rotate(55.373 749.48 1442.287)"><path d="M.997 33.068l243.033 83.937" id="Line"/><path d="M111.97.068l243.033 83.937" id="Line" transform="matrix(-1 0 0 1 466.973 0)"/></g><g id="duplicate_277_original_Group-14_76475596" opacity=".554" transform="rotate(54.688 745.202 1456.836)"><path d="M.997 33.068l243.033 83.937" id="Line"/><path d="M111.97.068l243.033 83.937" id="Line" transform="matrix(-1 0 0 1 466.973 0)"/></g><g id="duplicate_276_original_Group-14_76475596" opacity=".552" transform="rotate(53.981 740.823 1472.352)"><path d="M.997 33.068l243.033 83.937" id="Line"/><path d="M111.97.068l243.033 83.937" id="Line" transform="matrix(-1 0 0 1 466.973 0)"/></g><g id="duplicate_275_original_Group-14_76475596" opacity=".55" transform="rotate(53.252 736.337 1488.867)"><path d="M.997 33.068l243.033 83.937" id="Line"/><path d="M111.97.068l243.033 83.937" id="Line" transform="matrix(-1 0 0 1 466.973 0)"/></g><g id="duplicate_274_original_Group-14_76475596" opacity=".548" transform="rotate(52.502 731.74 1506.418)"><path d="M.997 33.068l243.033 83.937" id="Line"/><path d="M111.97.068l243.033 83.937" id="Line" transform="matrix(-1 0 0 1 466.973 0)"/></g><g id="duplicate_273_original_Group-14_76475596" opacity=".546" transform="rotate(51.731 727.027 1525.045)"><path d="M.997 33.068l243.033 83.937" id="Line"/><path d="M111.97.068l243.033 83.937" id="Line" transform="matrix(-1 0 0 1 466.973 0)"/></g><g id="duplicate_272_original_Group-14_76475596" opacity=".544" transform="rotate(50.941 722.193 1544.788)"><path d="M.997 33.068l243.033 83.937" id="Line"/><path d="M111.97.068l243.033 83.937" id="Line" transform="matrix(-1 0 0 1 466.973 0)"/></g><g id="duplicate_271_original_Group-14_76475596" opacity=".542" transform="rotate(50.132 717.233 1565.696)"><path d="M.997 33.068l243.033 83.937" id="Line"/><path d="M111.97.068l243.033 83.937" id="Line" transform="matrix(-1 0 0 1 466.973 0)"/></g><g id="duplicate_270_original_Group-14_76475596" opacity=".54" transform="rotate(49.305 712.14 1587.818)"><path d="M.997 33.068l243.033 83.937" id="Line"/><path d="M111.97.068l243.033 83.937" id="Line" transform="matrix(-1 0 0 1 466.973 0)"/></g><g id="duplicate_269_original_Group-14_76475596" opacity=".538" transform="rotate(48.461 706.906 1611.208)"><path d="M.997 33.068l243.033 83.937" id="Line"/><path d="M111.97.068l243.033 83.937" id="Line" transform="matrix(-1 0 0 1 466.973 0)"/></g><g id="duplicate_268_original_Group-14_76475596" opacity=".536" transform="rotate(47.6 701.526 1635.927)"><path d="M.997 33.068l243.033 83.937" id="Line"/><path d="M111.97.068l243.033 83.937" id="Line" transform="matrix(-1 0 0 1 466.973 0)"/></g><g id="duplicate_267_original_Group-14_76475596" opacity=".534" transform="rotate(46.724 695.992 1662.038)"><path d="M.997 33.068l243.033 83.937" id="Line"/><path d="M111.97.068l243.033 83.937" id="Line" transform="matrix(-1 0 0 1 466.973 0)"/></g><g id="duplicate_266_original_Group-14_76475596" opacity=".532" transform="rotate(45.833 690.294 1689.612)"><path d="M.997 33.068l243.033 83.937" id="Line"/><path d="M111.97.068l243.033 83.937" id="Line" transform="matrix(-1 0 0 1 466.973 0)"/></g><g id="duplicate_265_original_Group-14_76475596" opacity=".53" transform="rotate(44.928 684.424 1718.724)"><path d="M.997 33.068l243.033 83.937" id="Line"/><path d="M111.97.068l243.033 83.937" id="Line" transform="matrix(-1 0 0 1 466.973 0)"/></g><g id="duplicate_264_original_Group-14_76475596" opacity=".528" transform="rotate(44.01 678.372 1749.458)"><path d="M.997 33.068l243.033 83.937" id="Line"/><path d="M111.97.068l243.033 83.937" id="Line" transform="matrix(-1 0 0 1 466.973 0)"/></g><g id="duplicate_263_original_Group-14_76475596" opacity=".526" transform="rotate(43.08 672.126 1781.904)"><path d="M.997 33.068l243.033 83.937" id="Line"/><path d="M111.97.068l243.033 83.937" id="Line" transform="matrix(-1 0 0 1 466.973 0)"/></g><g id="duplicate_262_original_Group-14_76475596" opacity=".524" transform="rotate(42.139 665.676 1816.16)"><path d="M.997 33.068l243.033 83.937" id="Line"/><path d="M111.97.068l243.033 83.937" id="Line" transform="matrix(-1 0 0 1 466.973 0)"/></g><g id="duplicate_261_original_Group-14_76475596" opacity=".522" transform="rotate(41.188 659.009 1852.33)"><path d="M.997 33.068l243.033 83.937" id="Line"/><path d="M111.97.068l243.033 83.937" id="Line" transform="matrix(-1 0 0 1 466.973 0)"/></g><g id="duplicate_260_original_Group-14_76475596" opacity=".52" transform="rotate(40.228 652.11 1890.535)"><path d="M.997 33.068l243.033 83.937" id="Line"/><path d="M111.97.068l243.033 83.937" id="Line" transform="matrix(-1 0 0 1 466.973 0)"/></g><g id="duplicate_259_original_Group-14_76475596" opacity=".518" transform="rotate(39.259 644.964 1930.9)"><path d="M.997 33.068l243.033 83.937" id="Line"/><path d="M111.97.068l243.033 83.937" id="Line" transform="matrix(-1 0 0 1 466.973 0)"/></g><g id="duplicate_258_original_Group-14_76475596" opacity=".516" transform="rotate(38.284 637.554 1973.563)"><path d="M.997 33.068l243.033 83.937" id="Line"/><path d="M111.97.068l243.033 83.937" id="Line" transform="matrix(-1 0 0 1 466.973 0)"/></g><g id="duplicate_257_original_Group-14_76475596" opacity=".514" transform="rotate(37.301 629.864 2018.677)"><path d="M.997 33.068l243.033 83.937" id="Line"/><path d="M111.97.068l243.033 83.937" id="Line" transform="matrix(-1 0 0 1 466.973 0)"/></g><g id="duplicate_256_original_Group-14_76475596" opacity=".512" transform="rotate(36.314 621.872 2066.407)"><path d="M.997 33.068l243.033 83.937" id="Line"/><path d="M111.97.068l243.033 83.937" id="Line" transform="matrix(-1 0 0 1 466.973 0)"/></g><g id="duplicate_255_original_Group-14_76475596" opacity=".51" transform="rotate(35.321 613.556 2116.936)"><path d="M.997 33.068l243.033 83.937" id="Line"/><path d="M111.97.068l243.033 83.937" id="Line" transform="matrix(-1 0 0 1 466.973 0)"/></g><g id="duplicate_254_original_Group-14_76475596" opacity=".508" transform="rotate(34.326 604.894 2170.464)"><path d="M.997 33.068l243.033 83.937" id="Line"/><path d="M111.97.068l243.033 83.937" id="Line" transform="matrix(-1 0 0 1 466.973 0)"/></g><g id="duplicate_253_original_Group-14_76475596" opacity=".506" transform="rotate(33.328 595.858 2227.211)"><path d="M.997 33.068l243.033 83.937" id="Line"/><path d="M111.97.068l243.033 83.937" id="Line" transform="matrix(-1 0 0 1 466.973 0)"/></g><g id="duplicate_252_original_Group-14_76475596" opacity=".504" transform="rotate(32.328 586.42 2287.42)"><path d="M.997 33.068l243.033 83.937" id="Line"/><path d="M111.97.068l243.033 83.937" id="Line" transform="matrix(-1 0 0 1 466.973 0)"/></g><g id="duplicate_251_original_Group-14_76475596" opacity=".502" transform="rotate(31.328 576.548 2351.356)"><path d="M.997 33.068l243.033 83.937" id="Line"/><path d="M111.97.068l243.033 83.937" id="Line" transform="matrix(-1 0 0 1 466.973 0)"/></g><g id="duplicate_250_original_Group-14_76475596" opacity=".5" transform="rotate(30.329 566.206 2419.315)"><path d="M.997 33.068l243.033 83.937" id="Line"/><path d="M111.97.068l243.033 83.937" id="Line" transform="matrix(-1 0 0 1 466.973 0)"/></g><g id="duplicate_249_original_Group-14_76475596" opacity=".498" transform="rotate(29.331 555.356 2491.624)"><path d="M.997 33.068l243.033 83.937" id="Line"/><path d="M111.97.068l243.033 83.937" id="Line" transform="matrix(-1 0 0 1 466.973 0)"/></g><g id="duplicate_248_original_Group-14_76475596" opacity=".496" transform="rotate(28.335 543.953 2568.645)"><path d="M.997 33.068l243.033 83.937" id="Line"/><path d="M111.97.068l243.033 83.937" id="Line" transform="matrix(-1 0 0 1 466.973 0)"/></g><g id="duplicate_247_original_Group-14_76475596" opacity=".494" transform="rotate(27.343 531.95 2650.78)"><path d="M.997 33.068l243.033 83.937" id="Line"/><path d="M111.97.068l243.033 83.937" id="Line" transform="matrix(-1 0 0 1 466.973 0)"/></g><g id="duplicate_246_original_Group-14_76475596" opacity=".492" transform="rotate(26.355 519.292 2738.479)"><path d="M.997 33.068l243.033 83.937" id="Line"/><path d="M111.97.068l243.033 83.937" id="Line" transform="matrix(-1 0 0 1 466.973 0)"/></g><g id="duplicate_245_original_Group-14_76475596" opacity=".49" transform="rotate(25.373 505.92 2832.24)"><path d="M.997 33.068l243.033 83.937" id="Line"/><path d="M111.97.068l243.033 83.937" id="Line" transform="matrix(-1 0 0 1 466.973 0)"/></g><g id="duplicate_244_original_Group-14_76475596" opacity=".488" transform="rotate(24.397 491.767 2932.623)"><path d="M.997 33.068l243.033 83.937" id="Line"/><path d="M111.97.068l243.033 83.937" id="Line" transform="matrix(-1 0 0 1 466.973 0)"/></g><g id="duplicate_243_original_Group-14_76475596" opacity=".486" transform="rotate(23.429 476.756 3040.256)"><path d="M.997 33.068l243.033 83.937" id="Line"/><path d="M111.97.068l243.033 83.937" id="Line" transform="matrix(-1 0 0 1 466.973 0)"/></g><g id="duplicate_242_original_Group-14_76475596" opacity=".484" transform="rotate(22.468 460.803 3155.845)"><path d="M.997 33.068l243.033 83.937" id="Line"/><path d="M111.97.068l243.033 83.937" id="Line" transform="matrix(-1 0 0 1 466.973 0)"/></g><g id="duplicate_241_original_Group-14_76475596" opacity=".482" transform="rotate(21.517 443.812 3280.184)"><path d="M.997 33.068l243.033 83.937" id="Line"/><path d="M111.97.068l243.033 83.937" id="Line" transform="matrix(-1 0 0 1 466.973 0)"/></g><g id="duplicate_240_original_Group-14_76475596" opacity=".48" transform="rotate(20.576 425.673 3414.175)"><path d="M.997 33.068l243.033 83.937" id="Line"/><path d="M111.97.068l243.033 83.937" id="Line" transform="matrix(-1 0 0 1 466.973 0)"/></g><g id="duplicate_239_original_Group-14_76475596" opacity=".478" transform="rotate(19.647 406.265 3558.836)"><path d="M.997 33.068l243.033 83.937" id="Line"/><path d="M111.97.068l243.033 83.937" id="Line" transform="matrix(-1 0 0 1 466.973 0)"/></g><g id="duplicate_238_original_Group-14_76475596" opacity=".476" transform="rotate(18.729 385.446 3715.331)"><path d="M.997 33.068l243.033 83.937" id="Line"/><path d="M111.97.068l243.033 83.937" id="Line" transform="matrix(-1 0 0 1 466.973 0)"/></g><g id="duplicate_237_original_Group-14_76475596" opacity=".474" transform="rotate(17.824 363.055 3884.985)"><path d="M.997 33.068l243.033 83.937" id="Line"/><path d="M111.97.068l243.033 83.937" id="Line" transform="matrix(-1 0 0 1 466.973 0)"/></g><g id="duplicate_236_original_Group-14_76475596" opacity=".472" transform="rotate(16.933 338.908 4069.318)"><path d="M.997 33.068l243.033 83.937" id="Line"/><path d="M111.97.068l243.033 83.937" id="Line" transform="matrix(-1 0 0 1 466.973 0)"/></g><g id="duplicate_235_original_Group-14_76475596" opacity=".47" transform="rotate(16.057 312.793 4270.078)"><path d="M.997 33.068l243.033 83.937" id="Line"/><path d="M111.97.068l243.033 83.937" id="Line" transform="matrix(-1 0 0 1 466.973 0)"/></g><g id="duplicate_234_original_Group-14_76475596" opacity=".468" transform="rotate(15.196 284.464 4489.285)"><path d="M.997 33.068l243.033 83.937" id="Line"/><path d="M111.97.068l243.033 83.937" id="Line" transform="matrix(-1 0 0 1 466.973 0)"/></g><g id="duplicate_233_original_Group-14_76475596" opacity=".466" transform="rotate(14.352 253.637 4729.284)"><path d="M.997 33.068l243.033 83.937" id="Line"/><path d="M111.97.068l243.033 83.937" id="Line" transform="matrix(-1 0 0 1 466.973 0)"/></g><g id="duplicate_232_original_Group-14_76475596" opacity=".464" transform="rotate(13.525 219.977 4992.804)"><path d="M.997 33.068l243.033 83.937" id="Line"/><path d="M111.97.068l243.033 83.937" id="Line" transform="matrix(-1 0 0 1 466.973 0)"/></g><g id="duplicate_231_original_Group-14_76475596" opacity=".462" transform="rotate(12.716 183.096 5283.044)"><path d="M.997 33.068l243.033 83.937" id="Line"/><path d="M111.97.068l243.033 83.937" id="Line" transform="matrix(-1 0 0 1 466.973 0)"/></g><g id="duplicate_230_original_Group-14_76475596" opacity=".46" transform="rotate(11.925 142.534 5603.77)"><path d="M.997 33.068l243.033 83.937" id="Line"/><path d="M111.97.068l243.033 83.937" id="Line" transform="matrix(-1 0 0 1 466.973 0)"/></g><g id="duplicate_229_original_Group-14_76475596" opacity=".458" transform="rotate(11.155 97.745 5959.439)"><path d="M.997 33.068l243.033 83.937" id="Line"/><path d="M111.97.068l243.033 83.937" id="Line" transform="matrix(-1 0 0 1 466.973 0)"/></g><g id="duplicate_228_original_Group-14_76475596" opacity=".456" transform="rotate(10.405 48.079 6355.36)"><path d="M.997 33.068l243.033 83.937" id="Line"/><path d="M111.97.068l243.033 83.937" id="Line" transform="matrix(-1 0 0 1 466.973 0)"/></g><g id="duplicate_227_original_Group-14_76475596" opacity=".454" transform="rotate(9.676 -7.244 6797.9)"><path d="M.997 33.068l243.033 83.937" id="Line"/><path d="M111.97.068l243.033 83.937" id="Line" transform="matrix(-1 0 0 1 466.973 0)"/></g><g id="duplicate_226_original_Group-14_76475596" opacity=".452" transform="rotate(8.969 -69.166 7294.737)"><path d="M.997 33.068l243.033 83.937" id="Line"/><path d="M111.97.068l243.033 83.937" id="Line" transform="matrix(-1 0 0 1 466.973 0)"/></g><g id="duplicate_225_original_Group-14_76475596" opacity=".45" transform="rotate(8.284 -138.834 7855.213)"><path d="M.997 33.068l243.033 83.937" id="Line"/><path d="M111.97.068l243.033 83.937" id="Line" transform="matrix(-1 0 0 1 466.973 0)"/></g><g id="duplicate_224_original_Group-14_76475596" opacity=".448" transform="rotate(7.623 -217.658 8490.774)"><path d="M.997 33.068l243.033 83.937" id="Line"/><path d="M111.97.068l243.033 83.937" id="Line" transform="matrix(-1 0 0 1 466.973 0)"/></g><g id="duplicate_223_original_Group-14_76475596" opacity=".446" transform="rotate(6.985 -307.38 9215.58)"><path d="M.997 33.068l243.033 83.937" id="Line"/><path d="M111.97.068l243.033 83.937" id="Line" transform="matrix(-1 0 0 1 466.973 0)"/></g><g id="duplicate_222_original_Group-14_76475596" opacity=".444" transform="rotate(6.373 -410.18 10047.31)"><path d="M.997 33.068l243.033 83.937" id="Line"/><path d="M111.97.068l243.033 83.937" id="Line" transform="matrix(-1 0 0 1 466.973 0)"/></g><g id="duplicate_221_original_Group-14_76475596" opacity=".442" transform="rotate(5.785 -528.811 11008.265)"><path d="M.997 33.068l243.033 83.937" id="Line"/><path d="M111.97.068l243.033 83.937" id="Line" transform="matrix(-1 0 0 1 466.973 0)"/></g><g id="duplicate_220_original_Group-14_76475596" opacity=".44" transform="rotate(5.223 -666.792 12126.905)"><path d="M.997 33.068l243.033 83.937" id="Line"/><path d="M111.97.068l243.033 83.937" id="Line" transform="matrix(-1 0 0 1 466.973 0)"/></g><g id="duplicate_219_original_Group-14_76475596" opacity=".438" transform="rotate(4.687 -828.675 13440.024)"><path d="M.997 33.068l243.033 83.937" id="Line"/><path d="M111.97.068l243.033 83.937" id="Line" transform="matrix(-1 0 0 1 466.973 0)"/></g><g id="duplicate_218_original_Group-14_76475596" opacity=".436" transform="rotate(4.178 -1020.436 14995.847)"><path d="M.997 33.068l243.033 83.937" id="Line"/><path d="M111.97.068l243.033 83.937" id="Line" transform="matrix(-1 0 0 1 466.973 0)"/></g><g id="duplicate_217_original_Group-14_76475596" opacity=".434" transform="rotate(3.696 -1250.042 16858.605)"><path d="M.997 33.068l243.033 83.937" id="Line"/><path d="M111.97.068l243.033 83.937" id="Line" transform="matrix(-1 0 0 1 466.973 0)"/></g><g id="duplicate_216_original_Group-14_76475596" opacity=".432" transform="rotate(3.242 -1528.307 19115.355)"><path d="M.997 33.068l243.033 83.937" id="Line"/><path d="M111.97.068l243.033 83.937" id="Line" transform="matrix(-1 0 0 1 466.973 0)"/></g><g id="duplicate_215_original_Group-14_76475596" opacity=".43" transform="rotate(2.816 -1870.202 21886.49)"><path d="M.997 33.068l243.033 83.937" id="Line"/><path d="M111.97.068l243.033 83.937" id="Line" transform="matrix(-1 0 0 1 466.973 0)"/></g><g id="duplicate_214_original_Group-14_76475596" opacity=".428" transform="rotate(2.419 -2296.94 25342.365)"><path d="M.997 33.068l243.033 83.937" id="Line"/><path d="M111.97.068l243.033 83.937" id="Line" transform="matrix(-1 0 0 1 466.973 0)"/></g><g id="duplicate_213_original_Group-14_76475596" opacity=".426" transform="rotate(2.051 -2839.368 29730.455)"><path d="M.997 33.068l243.033 83.937" id="Line"/><path d="M111.97.068l243.033 83.937" id="Line" transform="matrix(-1 0 0 1 466.973 0)"/></g><g id="duplicate_212_original_Group-14_76475596" opacity=".424" transform="rotate(1.712 -3543.768 35421.541)"><path d="M.997 33.068l243.033 83.937" id="Line"/><path d="M111.97.068l243.033 83.937" id="Line" transform="matrix(-1 0 0 1 466.973 0)"/></g><g id="duplicate_211_original_Group-14_76475596" opacity=".422" transform="rotate(1.403 -4482.127 42991.658)"><path d="M.997 33.068l243.033 83.937" id="Line"/><path d="M111.97.068l243.033 83.937" id="Line" transform="matrix(-1 0 0 1 466.973 0)"/></g><g id="duplicate_210_original_Group-14_76475596" opacity=".42" transform="rotate(1.124 -5771.422 53375.72)"><path d="M.997 33.068l243.033 83.937" id="Line"/><path d="M111.97.068l243.033 83.937" id="Line" transform="matrix(-1 0 0 1 466.973 0)"/></g><g id="duplicate_209_original_Group-14_76475596" opacity=".418" transform="rotate(.876 -7612.194 68174.481)"><path d="M.997 33.068l243.033 83.937" id="Line"/><path d="M111.97.068l243.033 83.937" id="Line" transform="matrix(-1 0 0 1 466.973 0)"/></g><g id="duplicate_208_original_Group-14_76475596" opacity=".416" transform="rotate(.657 -10372.086 90318.97)"><path d="M.997 33.068l243.033 83.937" id="Line"/><path d="M111.97.068l243.033 83.937" id="Line" transform="matrix(-1 0 0 1 466.973 0)"/></g><g id="duplicate_207_original_Group-14_76475596" opacity=".414" transform="rotate(.47 -14786.428 125664.32)"><path d="M.997 33.068l243.033 83.937" id="Line"/><path d="M111.97.068l243.033 83.937" id="Line" transform="matrix(-1 0 0 1 466.973 0)"/></g><g id="duplicate_206_original_Group-14_76475596" opacity=".412" transform="rotate(.314 -22509.59 187367.32)"><path d="M.997 33.068l243.033 83.937" id="Line"/><path d="M111.97.068l243.033 83.937" id="Line" transform="matrix(-1 0 0 1 466.973 0)"/></g><g id="duplicate_205_original_Group-14_76475596" opacity=".41" transform="rotate(.188 -37953.376 310470.556)"><path d="M.997 33.068l243.033 83.937" id="Line"/><path d="M111.97.068l243.033 83.937" id="Line" transform="matrix(-1 0 0 1 466.973 0)"/></g><g id="duplicate_204_original_Group-14_76475596" opacity=".408" transform="rotate(.094 -76559.565 617474.79)"><path d="M.997 33.068l243.033 83.937" id="Line"/><path d="M111.97.068l243.033 83.937" id="Line" transform="matrix(-1 0 0 1 466.973 0)"/></g><g id="duplicate_203_original_Group-14_76475596" opacity=".406" transform="rotate(.031 -230973.548 1842430.477)"><path d="M.997 33.068l243.033 83.937" id="Line"/><path d="M111.97.068l243.033 83.937" id="Line" transform="matrix(-1 0 0 1 466.973 0)"/></g><g id="duplicate_202_original_Group-14_76475596" opacity=".404" transform="translate(1005 127)"><path d="M.997 33.068l243.033 83.937" id="Line"/><path d="M111.97.068l243.033 83.937" id="Line" transform="matrix(-1 0 0 1 466.973 0)"/></g><g id="duplicate_201_original_Group-14_76475596" opacity=".402" transform="translate(1000 127)"><path d="M.997 33.068l243.033 83.937" id="Line"/><path d="M111.97.068l243.033 83.937" id="Line" transform="matrix(-1 0 0 1 466.973 0)"/></g><g id="duplicate_200_original_Group-14_76475596" opacity=".4" transform="rotate(.031 -230981.048 1815069.467)"><path d="M.997 33.068l243.033 83.937" id="Line"/><path d="M111.97.068l243.033 83.937" id="Line" transform="matrix(-1 0 0 1 466.973 0)"/></g><g id="duplicate_199_original_Group-14_76475596" opacity=".398" transform="rotate(.094 -76572.065 602269.069)"><path d="M.997 33.068l243.033 83.937" id="Line"/><path d="M111.97.068l243.033 83.937" id="Line" transform="matrix(-1 0 0 1 466.973 0)"/></g><g id="duplicate_198_original_Group-14_76475596" opacity=".396" transform="rotate(.188 -37970.876 299821.358)"><path d="M.997 33.068l243.033 83.937" id="Line"/><path d="M111.97.068l243.033 83.937" id="Line" transform="matrix(-1 0 0 1 466.973 0)"/></g><g id="duplicate_197_original_Group-14_76475596" opacity=".394" transform="rotate(.314 -22532.09 179146.817)"><path d="M.997 33.068l243.033 83.937" id="Line"/><path d="M111.97.068l243.033 83.937" id="Line" transform="matrix(-1 0 0 1 466.973 0)"/></g><g id="duplicate_196_original_Group-14_76475596" opacity=".392" transform="rotate(.47 -14813.928 118960.63)"><path d="M.997 33.068l243.033 83.937" id="Line"/><path d="M111.97.068l243.033 83.937" id="Line" transform="matrix(-1 0 0 1 466.973 0)"/></g><g id="duplicate_195_original_Group-14_76475596" opacity=".39" transform="rotate(.657 -10404.586 84654.458)"><path d="M.997 33.068l243.033 83.937" id="Line"/><path d="M111.97.068l243.033 83.937" id="Line" transform="matrix(-1 0 0 1 466.973 0)"/></g><g id="duplicate_194_original_Group-14_76475596" opacity=".388" transform="rotate(.876 -7649.694 63266.887)"><path d="M.997 33.068l243.033 83.937" id="Line"/><path d="M111.97.068l243.033 83.937" id="Line" transform="matrix(-1 0 0 1 466.973 0)"/></g><g id="duplicate_193_original_Group-14_76475596" opacity=".386" transform="rotate(1.124 -5813.922 49044.118)"><path d="M.997 33.068l243.033 83.937" id="Line"/><path d="M111.97.068l243.033 83.937" id="Line" transform="matrix(-1 0 0 1 466.973 0)"/></g><g id="duplicate_192_original_Group-14_76475596" opacity=".384" transform="rotate(1.403 -4529.627 39113.02)"><path d="M.997 33.068l243.033 83.937" id="Line"/><path d="M111.97.068l243.033 83.937" id="Line" transform="matrix(-1 0 0 1 466.973 0)"/></g><g id="duplicate_191_original_Group-14_76475596" opacity=".382" transform="rotate(1.712 -3596.268 31908.367)"><path d="M.997 33.068l243.033 83.937" id="Line"/><path d="M111.97.068l243.033 83.937" id="Line" transform="matrix(-1 0 0 1 466.973 0)"/></g><g id="duplicate_190_original_Group-14_76475596" opacity=".38" transform="rotate(2.051 -2896.868 26518.271)"><path d="M.997 33.068l243.033 83.937" id="Line"/><path d="M111.97.068l243.033 83.937" id="Line" transform="matrix(-1 0 0 1 466.973 0)"/></g><g id="duplicate_189_original_Group-14_76475596" opacity=".378" transform="rotate(2.419 -2359.44 22382.287)"><path d="M.997 33.068l243.033 83.937" id="Line"/><path d="M111.97.068l243.033 83.937" id="Line" transform="matrix(-1 0 0 1 466.973 0)"/></g><g id="duplicate_188_original_Group-14_76475596" opacity=".376" transform="rotate(2.816 -1937.702 19140.565)"><path d="M.997 33.068l243.033 83.937" id="Line"/><path d="M111.97.068l243.033 83.937" id="Line" transform="matrix(-1 0 0 1 466.973 0)"/></g><g id="duplicate_187_original_Group-14_76475596" opacity=".374" transform="rotate(3.242 -1600.807 16553.528)"><path d="M.997 33.068l243.033 83.937" id="Line"/><path d="M111.97.068l243.033 83.937" id="Line" transform="matrix(-1 0 0 1 466.973 0)"/></g><g id="duplicate_186_original_Group-14_76475596" opacity=".372" transform="rotate(3.696 -1327.542 14456.664)"><path d="M.997 33.068l243.033 83.937" id="Line"/><path d="M111.97.068l243.033 83.937" id="Line" transform="matrix(-1 0 0 1 466.973 0)"/></g><g id="duplicate_185_original_Group-14_76475596" opacity=".37" transform="rotate(4.178 -1102.936 12734.001)"><path d="M.997 33.068l243.033 83.937" id="Line"/><path d="M111.97.068l243.033 83.937" id="Line" transform="matrix(-1 0 0 1 466.973 0)"/></g><g id="duplicate_184_original_Group-14_76475596" opacity=".368" transform="rotate(4.687 -916.175 11301.89)"><path d="M.997 33.068l243.033 83.937" id="Line"/><path d="M111.97.068l243.033 83.937" id="Line" transform="matrix(-1 0 0 1 466.973 0)"/></g><g id="duplicate_183_original_Group-14_76475596" opacity=".366" transform="rotate(5.223 -759.292 10098.764)"><path d="M.997 33.068l243.033 83.937" id="Line"/><path d="M111.97.068l243.033 83.937" id="Line" transform="matrix(-1 0 0 1 466.973 0)"/></g><g id="duplicate_182_original_Group-14_76475596" opacity=".364" transform="rotate(5.785 -626.311 9078.516)"><path d="M.997 33.068l243.033 83.937" id="Line"/><path d="M111.97.068l243.033 83.937" id="Line" transform="matrix(-1 0 0 1 466.973 0)"/></g><g id="duplicate_181_original_Group-14_76475596" opacity=".362" transform="rotate(6.373 -512.68 8206.056)"><path d="M.997 33.068l243.033 83.937" id="Line"/><path d="M111.97.068l243.033 83.937" id="Line" transform="matrix(-1 0 0 1 466.973 0)"/></g><g id="duplicate_180_original_Group-14_76475596" opacity=".36" transform="rotate(6.985 -414.88 7454.308)"><path d="M.997 33.068l243.033 83.937" id="Line"/><path d="M111.97.068l243.033 83.937" id="Line" transform="matrix(-1 0 0 1 466.973 0)"/></g><g id="duplicate_179_original_Group-14_76475596" opacity=".358" transform="rotate(7.623 -330.158 6802.109)"><path d="M.997 33.068l243.033 83.937" id="Line"/><path d="M111.97.068l243.033 83.937" id="Line" transform="matrix(-1 0 0 1 466.973 0)"/></g><g id="duplicate_178_original_Group-14_76475596" opacity=".356" transform="rotate(8.284 -256.334 6232.724)"><path d="M.997 33.068l243.033 83.937" id="Line"/><path d="M111.97.068l243.033 83.937" id="Line" transform="matrix(-1 0 0 1 466.973 0)"/></g><g id="duplicate_177_original_Group-14_76475596" opacity=".354" transform="rotate(8.969 -191.666 5732.783)"><path d="M.997 33.068l243.033 83.937" id="Line"/><path d="M111.97.068l243.033 83.937" id="Line" transform="matrix(-1 0 0 1 466.973 0)"/></g><g id="duplicate_176_original_Group-14_76475596" opacity=".352" transform="rotate(9.676 -134.744 5291.505)"><path d="M.997 33.068l243.033 83.937" id="Line"/><path d="M111.97.068l243.033 83.937" id="Line" transform="matrix(-1 0 0 1 466.973 0)"/></g><g id="duplicate_175_original_Group-14_76475596" opacity=".35" transform="rotate(10.405 -84.421 4900.111)"><path d="M.997 33.068l243.033 83.937" id="Line"/><path d="M111.97.068l243.033 83.937" id="Line" transform="matrix(-1 0 0 1 466.973 0)"/></g><g id="duplicate_174_original_Group-14_76475596" opacity=".348" transform="rotate(11.155 -39.755 4551.405)"><path d="M.997 33.068l243.033 83.937" id="Line"/><path d="M111.97.068l243.033 83.937" id="Line" transform="matrix(-1 0 0 1 466.973 0)"/></g><g id="duplicate_173_original_Group-14_76475596" opacity=".346" transform="rotate(11.925 .034 4239.436)"><path d="M.997 33.068l243.033 83.937" id="Line"/><path d="M111.97.068l243.033 83.937" id="Line" transform="matrix(-1 0 0 1 466.973 0)"/></g><g id="duplicate_172_original_Group-14_76475596" opacity=".344" transform="rotate(12.716 35.596 3959.252)"><path d="M.997 33.068l243.033 83.937" id="Line"/><path d="M111.97.068l243.033 83.937" id="Line" transform="matrix(-1 0 0 1 466.973 0)"/></g><g id="duplicate_171_original_Group-14_76475596" opacity=".342" transform="rotate(13.525 67.477 3706.706)"><path d="M.997 33.068l243.033 83.937" id="Line"/><path d="M111.97.068l243.033 83.937" id="Line" transform="matrix(-1 0 0 1 466.973 0)"/></g><g id="duplicate_170_original_Group-14_76475596" opacity=".34" transform="rotate(14.352 96.137 3478.304)"><path d="M.997 33.068l243.033 83.937" id="Line"/><path d="M111.97.068l243.033 83.937" id="Line" transform="matrix(-1 0 0 1 466.973 0)"/></g><g id="duplicate_169_original_Group-14_76475596" opacity=".338" transform="rotate(15.196 121.964 3271.083)"><path d="M.997 33.068l243.033 83.937" id="Line"/><path d="M111.97.068l243.033 83.937" id="Line" transform="matrix(-1 0 0 1 466.973 0)"/></g><g id="duplicate_168_original_Group-14_76475596" opacity=".336" transform="rotate(16.057 145.293 3082.523)"><path d="M.997 33.068l243.033 83.937" id="Line"/><path d="M111.97.068l243.033 83.937" id="Line" transform="matrix(-1 0 0 1 466.973 0)"/></g><g id="duplicate_167_original_Group-14_76475596" opacity=".334" transform="rotate(16.933 166.408 2910.465)"><path d="M.997 33.068l243.033 83.937" id="Line"/><path d="M111.97.068l243.033 83.937" id="Line" transform="matrix(-1 0 0 1 466.973 0)"/></g><g id="duplicate_166_original_Group-14_76475596" opacity=".332" transform="rotate(17.824 185.555 2753.05)"><path d="M.997 33.068l243.033 83.937" id="Line"/><path d="M111.97.068l243.033 83.937" id="Line" transform="matrix(-1 0 0 1 466.973 0)"/></g><g id="duplicate_165_original_Group-14_76475596" opacity=".33" transform="rotate(18.729 202.946 2608.679)"><path d="M.997 33.068l243.033 83.937" id="Line"/><path d="M111.97.068l243.033 83.937" id="Line" transform="matrix(-1 0 0 1 466.973 0)"/></g><g id="duplicate_164_original_Group-14_76475596" opacity=".328" transform="rotate(19.647 218.765 2475.957)"><path d="M.997 33.068l243.033 83.937" id="Line"/><path d="M111.97.068l243.033 83.937" id="Line" transform="matrix(-1 0 0 1 466.973 0)"/></g><g id="duplicate_163_original_Group-14_76475596" opacity=".326" transform="rotate(20.576 233.173 2353.677)"><path d="M.997 33.068l243.033 83.937" id="Line"/><path d="M111.97.068l243.033 83.937" id="Line" transform="matrix(-1 0 0 1 466.973 0)"/></g><g id="duplicate_162_original_Group-14_76475596" opacity=".324" transform="rotate(21.517 246.312 2240.78)"><path d="M.997 33.068l243.033 83.937" id="Line"/><path d="M111.97.068l243.033 83.937" id="Line" transform="matrix(-1 0 0 1 466.973 0)"/></g><g id="duplicate_161_original_Group-14_76475596" opacity=".322" transform="rotate(22.468 258.303 2136.339)"><path d="M.997 33.068l243.033 83.937" id="Line"/><path d="M111.97.068l243.033 83.937" id="Line" transform="matrix(-1 0 0 1 466.973 0)"/></g><g id="duplicate_160_original_Group-14_76475596" opacity=".32" transform="rotate(23.429 269.256 2039.538)"><path d="M.997 33.068l243.033 83.937" id="Line"/><path d="M111.97.068l243.033 83.937" id="Line" transform="matrix(-1 0 0 1 466.973 0)"/></g><g id="duplicate_159_original_Group-14_76475596" opacity=".318" transform="rotate(24.397 279.267 1949.658)"><path d="M.997 33.068l243.033 83.937" id="Line"/><path d="M111.97.068l243.033 83.937" id="Line" transform="matrix(-1 0 0 1 466.973 0)"/></g><g id="duplicate_158_original_Group-14_76475596" opacity=".316" transform="rotate(25.373 288.42 1866.062)"><path d="M.997 33.068l243.033 83.937" id="Line"/><path d="M111.97.068l243.033 83.937" id="Line" transform="matrix(-1 0 0 1 466.973 0)"/></g><g id="duplicate_157_original_Group-14_76475596" opacity=".314" transform="rotate(26.355 296.792 1788.185)"><path d="M.997 33.068l243.033 83.937" id="Line"/><path d="M111.97.068l243.033 83.937" id="Line" transform="matrix(-1 0 0 1 466.973 0)"/></g><g id="duplicate_156_original_Group-14_76475596" opacity=".312" transform="rotate(27.343 304.45 1715.522)"><path d="M.997 33.068l243.033 83.937" id="Line"/><path d="M111.97.068l243.033 83.937" id="Line" transform="matrix(-1 0 0 1 466.973 0)"/></g><g id="duplicate_155_original_Group-14_76475596" opacity=".31" transform="rotate(28.335 311.453 1647.627)"><path d="M.997 33.068l243.033 83.937" id="Line"/><path d="M111.97.068l243.033 83.937" id="Line" transform="matrix(-1 0 0 1 466.973 0)"/></g><g id="duplicate_154_original_Group-14_76475596" opacity=".308" transform="rotate(29.331 317.856 1584.097)"><path d="M.997 33.068l243.033 83.937" id="Line"/><path d="M111.97.068l243.033 83.937" id="Line" transform="matrix(-1 0 0 1 466.973 0)"/></g><g id="duplicate_153_original_Group-14_76475596" opacity=".306" transform="rotate(30.329 323.706 1524.572)"><path d="M.997 33.068l243.033 83.937" id="Line"/><path d="M111.97.068l243.033 83.937" id="Line" transform="matrix(-1 0 0 1 466.973 0)"/></g><g id="duplicate_152_original_Group-14_76475596" opacity=".304" transform="rotate(31.328 329.048 1468.729)"><path d="M.997 33.068l243.033 83.937" id="Line"/><path d="M111.97.068l243.033 83.937" id="Line" transform="matrix(-1 0 0 1 466.973 0)"/></g><g id="duplicate_151_original_Group-14_76475596" opacity=".302" transform="rotate(32.328 333.92 1416.276)"><path d="M.997 33.068l243.033 83.937" id="Line"/><path d="M111.97.068l243.033 83.937" id="Line" transform="matrix(-1 0 0 1 466.973 0)"/></g><g id="duplicate_150_original_Group-14_76475596" opacity=".3" transform="rotate(33.328 338.358 1366.952)"><path d="M.997 33.068l243.033 83.937" id="Line"/><path d="M111.97.068l243.033 83.937" id="Line" transform="matrix(-1 0 0 1 466.973 0)"/></g><g id="duplicate_149_original_Group-14_76475596" opacity=".298" transform="rotate(34.326 342.394 1320.519)"><path d="M.997 33.068l243.033 83.937" id="Line"/><path d="M111.97.068l243.033 83.937" id="Line" transform="matrix(-1 0 0 1 466.973 0)"/></g><g id="duplicate_148_original_Group-14_76475596" opacity=".296" transform="rotate(35.321 346.056 1276.76)"><path d="M.997 33.068l243.033 83.937" id="Line"/><path d="M111.97.068l243.033 83.937" id="Line" transform="matrix(-1 0 0 1 466.973 0)"/></g><g id="duplicate_147_original_Group-14_76475596" opacity=".294" transform="rotate(36.314 349.372 1235.482)"><path d="M.997 33.068l243.033 83.937" id="Line"/><path d="M111.97.068l243.033 83.937" id="Line" transform="matrix(-1 0 0 1 466.973 0)"/></g><g id="duplicate_146_original_Group-14_76475596" opacity=".292" transform="rotate(37.301 352.364 1196.506)"><path d="M.997 33.068l243.033 83.937" id="Line"/><path d="M111.97.068l243.033 83.937" id="Line" transform="matrix(-1 0 0 1 466.973 0)"/></g><g id="duplicate_145_original_Group-14_76475596" opacity=".29" transform="rotate(38.284 355.054 1159.672)"><path d="M.997 33.068l243.033 83.937" id="Line"/><path d="M111.97.068l243.033 83.937" id="Line" transform="matrix(-1 0 0 1 466.973 0)"/></g><g id="duplicate_144_original_Group-14_76475596" opacity=".288" transform="rotate(39.259 357.464 1124.83)"><path d="M.997 33.068l243.033 83.937" id="Line"/><path d="M111.97.068l243.033 83.937" id="Line" transform="matrix(-1 0 0 1 466.973 0)"/></g><g id="duplicate_143_original_Group-14_76475596" opacity=".286" transform="rotate(40.228 359.61 1091.848)"><path d="M.997 33.068l243.033 83.937" id="Line"/><path d="M111.97.068l243.033 83.937" id="Line" transform="matrix(-1 0 0 1 466.973 0)"/></g><g id="duplicate_142_original_Group-14_76475596" opacity=".284" transform="rotate(41.188 361.509 1060.6)"><path d="M.997 33.068l243.033 83.937" id="Line"/><path d="M111.97.068l243.033 83.937" id="Line" transform="matrix(-1 0 0 1 466.973 0)"/></g><g id="duplicate_141_original_Group-14_76475596" opacity=".282" transform="rotate(42.139 363.176 1030.976)"><path d="M.997 33.068l243.033 83.937" id="Line"/><path d="M111.97.068l243.033 83.937" id="Line" transform="matrix(-1 0 0 1 466.973 0)"/></g><g id="duplicate_140_original_Group-14_76475596" opacity=".28" transform="rotate(43.08 364.626 1002.87)"><path d="M.997 33.068l243.033 83.937" id="Line"/><path d="M111.97.068l243.033 83.937" id="Line" transform="matrix(-1 0 0 1 466.973 0)"/></g><g id="duplicate_139_original_Group-14_76475596" opacity=".278" transform="rotate(44.01 365.872 976.19)"><path d="M.997 33.068l243.033 83.937" id="Line"/><path d="M111.97.068l243.033 83.937" id="Line" transform="matrix(-1 0 0 1 466.973 0)"/></g><g id="duplicate_138_original_Group-14_76475596" opacity=".276" transform="rotate(44.928 366.924 950.844)"><path d="M.997 33.068l243.033 83.937" id="Line"/><path d="M111.97.068l243.033 83.937" id="Line" transform="matrix(-1 0 0 1 466.973 0)"/></g><g id="duplicate_137_original_Group-14_76475596" opacity=".274" transform="rotate(45.833 367.794 926.753)"><path d="M.997 33.068l243.033 83.937" id="Line"/><path d="M111.97.068l243.033 83.937" id="Line" transform="matrix(-1 0 0 1 466.973 0)"/></g><g id="duplicate_136_original_Group-14_76475596" opacity=".272" transform="rotate(46.724 368.492 903.844)"><path d="M.997 33.068l243.033 83.937" id="Line"/><path d="M111.97.068l243.033 83.937" id="Line" transform="matrix(-1 0 0 1 466.973 0)"/></g><g id="duplicate_135_original_Group-14_76475596" opacity=".27" transform="rotate(47.6 369.026 882.047)"><path d="M.997 33.068l243.033 83.937" id="Line"/><path d="M111.97.068l243.033 83.937" id="Line" transform="matrix(-1 0 0 1 466.973 0)"/></g><g id="duplicate_134_original_Group-14_76475596" opacity=".268" transform="rotate(48.461 369.406 861.3)"><path d="M.997 33.068l243.033 83.937" id="Line"/><path d="M111.97.068l243.033 83.937" id="Line" transform="matrix(-1 0 0 1 466.973 0)"/></g><g id="duplicate_133_original_Group-14_76475596" opacity=".266" transform="rotate(49.305 369.64 841.54)"><path d="M.997 33.068l243.033 83.937" id="Line"/><path d="M111.97.068l243.033 83.937" id="Line" transform="matrix(-1 0 0 1 466.973 0)"/></g><g id="duplicate_132_original_Group-14_76475596" opacity=".264" transform="rotate(50.132 369.733 822.717)"><path d="M.997 33.068l243.033 83.937" id="Line"/><path d="M111.97.068l243.033 83.937" id="Line" transform="matrix(-1 0 0 1 466.973 0)"/></g><g id="duplicate_131_original_Group-14_76475596" opacity=".262" transform="rotate(50.941 369.693 804.779)"><path d="M.997 33.068l243.033 83.937" id="Line"/><path d="M111.97.068l243.033 83.937" id="Line" transform="matrix(-1 0 0 1 466.973 0)"/></g><g id="duplicate_130_original_Group-14_76475596" opacity=".26" transform="rotate(51.731 369.527 787.677)"><path d="M.997 33.068l243.033 83.937" id="Line"/><path d="M111.97.068l243.033 83.937" id="Line" transform="matrix(-1 0 0 1 466.973 0)"/></g><g id="duplicate_129_original_Group-14_76475596" opacity=".258" transform="rotate(52.502 369.24 771.37)"><path d="M.997 33.068l243.033 83.937" id="Line"/><path d="M111.97.068l243.033 83.937" id="Line" transform="matrix(-1 0 0 1 466.973 0)"/></g><g id="duplicate_128_original_Group-14_76475596" opacity=".256" transform="rotate(53.252 368.837 755.816)"><path d="M.997 33.068l243.033 83.937" id="Line"/><path d="M111.97.068l243.033 83.937" id="Line" transform="matrix(-1 0 0 1 466.973 0)"/></g><g id="duplicate_127_original_Group-14_76475596" opacity=".254" transform="rotate(53.981 368.323 740.977)"><path d="M.997 33.068l243.033 83.937" id="Line"/><path d="M111.97.068l243.033 83.937" id="Line" transform="matrix(-1 0 0 1 466.973 0)"/></g><g id="duplicate_126_original_Group-14_76475596" opacity=".252" transform="rotate(54.688 367.702 726.819)"><path d="M.997 33.068l243.033 83.937" id="Line"/><path d="M111.97.068l243.033 83.937" id="Line" transform="matrix(-1 0 0 1 466.973 0)"/></g><g id="duplicate_125_original_Group-14_76475596" opacity=".25" transform="rotate(55.373 366.98 713.307)"><path d="M.997 33.068l243.033 83.937" id="Line"/><path d="M111.97.068l243.033 83.937" id="Line" transform="matrix(-1 0 0 1 466.973 0)"/></g><g id="duplicate_124_original_Group-14_76475596" opacity=".248" transform="rotate(56.034 366.159 700.412)"><path d="M.997 33.068l243.033 83.937" id="Line"/><path d="M111.97.068l243.033 83.937" id="Line" transform="matrix(-1 0 0 1 466.973 0)"/></g><g id="duplicate_123_original_Group-14_76475596" opacity=".246" transform="rotate(56.671 365.243 688.104)"><path d="M.997 33.068l243.033 83.937" id="Line"/><path d="M111.97.068l243.033 83.937" id="Line" transform="matrix(-1 0 0 1 466.973 0)"/></g><g id="duplicate_122_original_Group-14_76475596" opacity=".244" transform="rotate(57.284 364.236 676.356)"><path d="M.997 33.068l243.033 83.937" id="Line"/><path d="M111.97.068l243.033 83.937" id="Line" transform="matrix(-1 0 0 1 466.973 0)"/></g><g id="duplicate_121_original_Group-14_76475596" opacity=".242" transform="rotate(57.872 363.14 665.143)"><path d="M.997 33.068l243.033 83.937" id="Line"/><path d="M111.97.068l243.033 83.937" id="Line" transform="matrix(-1 0 0 1 466.973 0)"/></g><g id="duplicate_120_original_Group-14_76475596" opacity=".24" transform="rotate(58.434 361.96 654.442)"><path d="M.997 33.068l243.033 83.937" id="Line"/><path d="M111.97.068l243.033 83.937" id="Line" transform="matrix(-1 0 0 1 466.973 0)"/></g><g id="duplicate_119_original_Group-14_76475596" opacity=".238" transform="rotate(58.97 360.695 644.23)"><path d="M.997 33.068l243.033 83.937" id="Line"/><path d="M111.97.068l243.033 83.937" id="Line" transform="matrix(-1 0 0 1 466.973 0)"/></g><g id="duplicate_118_original_Group-14_76475596" opacity=".236" transform="rotate(59.479 359.35 634.488)"><path d="M.997 33.068l243.033 83.937" id="Line"/><path d="M111.97.068l243.033 83.937" id="Line" transform="matrix(-1 0 0 1 466.973 0)"/></g><g id="duplicate_117_original_Group-14_76475596" opacity=".234" transform="rotate(59.961 357.928 625.193)"><path d="M.997 33.068l243.033 83.937" id="Line"/><path d="M111.97.068l243.033 83.937" id="Line" transform="matrix(-1 0 0 1 466.973 0)"/></g><g id="duplicate_116_original_Group-14_76475596" opacity=".232" transform="rotate(60.415 356.428 616.33)"><path d="M.997 33.068l243.033 83.937" id="Line"/><path d="M111.97.068l243.033 83.937" id="Line" transform="matrix(-1 0 0 1 466.973 0)"/></g><g id="duplicate_115_original_Group-14_76475596" opacity=".23" transform="rotate(60.84 354.854 607.878)"><path d="M.997 33.068l243.033 83.937" id="Line"/><path d="M111.97.068l243.033 83.937" id="Line" transform="matrix(-1 0 0 1 466.973 0)"/></g><g id="duplicate_114_original_Group-14_76475596" opacity=".228" transform="rotate(61.238 353.208 599.824)"><path d="M.997 33.068l243.033 83.937" id="Line"/><path d="M111.97.068l243.033 83.937" id="Line" transform="matrix(-1 0 0 1 466.973 0)"/></g><g id="duplicate_113_original_Group-14_76475596" opacity=".226" transform="rotate(61.606 351.49 592.151)"><path d="M.997 33.068l243.033 83.937" id="Line"/><path d="M111.97.068l243.033 83.937" id="Line" transform="matrix(-1 0 0 1 466.973 0)"/></g><g id="duplicate_112_original_Group-14_76475596" opacity=".224" transform="rotate(61.944 349.702 584.845)"><path d="M.997 33.068l243.033 83.937" id="Line"/><path d="M111.97.068l243.033 83.937" id="Line" transform="matrix(-1 0 0 1 466.973 0)"/></g><g id="duplicate_111_original_Group-14_76475596" opacity=".222" transform="rotate(62.253 347.846 577.892)"><path d="M.997 33.068l243.033 83.937" id="Line"/><path d="M111.97.068l243.033 83.937" id="Line" transform="matrix(-1 0 0 1 466.973 0)"/></g><g id="duplicate_110_original_Group-14_76475596" opacity=".22" transform="rotate(62.532 345.922 571.28)"><path d="M.997 33.068l243.033 83.937" id="Line"/><path d="M111.97.068l243.033 83.937" id="Line" transform="matrix(-1 0 0 1 466.973 0)"/></g><g id="duplicate_109_original_Group-14_76475596" opacity=".218" transform="rotate(62.781 343.932 564.995)"><path d="M.997 33.068l243.033 83.937" id="Line"/><path d="M111.97.068l243.033 83.937" id="Line" transform="matrix(-1 0 0 1 466.973 0)"/></g><g id="duplicate_108_original_Group-14_76475596" opacity=".216" transform="rotate(62.999 341.876 559.026)"><path d="M.997 33.068l243.033 83.937" id="Line"/><path d="M111.97.068l243.033 83.937" id="Line" transform="matrix(-1 0 0 1 466.973 0)"/></g><g id="duplicate_107_original_Group-14_76475596" opacity=".214" transform="rotate(63.187 339.755 553.364)"><path d="M.997 33.068l243.033 83.937" id="Line"/><path d="M111.97.068l243.033 83.937" id="Line" transform="matrix(-1 0 0 1 466.973 0)"/></g><g id="duplicate_106_original_Group-14_76475596" opacity=".212" transform="rotate(63.343 337.57 547.996)"><path d="M.997 33.068l243.033 83.937" id="Line"/><path d="M111.97.068l243.033 83.937" id="Line" transform="matrix(-1 0 0 1 466.973 0)"/></g><g id="duplicate_105_original_Group-14_76475596" opacity=".21" transform="rotate(63.468 335.322 542.914)"><path d="M.997 33.068l243.033 83.937" id="Line"/><path d="M111.97.068l243.033 83.937" id="Line" transform="matrix(-1 0 0 1 466.973 0)"/></g><g id="duplicate_104_original_Group-14_76475596" opacity=".208" transform="rotate(63.563 333.01 538.108)"><path d="M.997 33.068l243.033 83.937" id="Line"/><path d="M111.97.068l243.033 83.937" id="Line" transform="matrix(-1 0 0 1 466.973 0)"/></g><g id="duplicate_103_original_Group-14_76475596" opacity=".206" transform="rotate(63.625 330.636 533.57)"><path d="M.997 33.068l243.033 83.937" id="Line"/><path d="M111.97.068l243.033 83.937" id="Line" transform="matrix(-1 0 0 1 466.973 0)"/></g><g id="duplicate_102_original_Group-14_76475596" opacity=".204" transform="rotate(63.657 328.198 529.29)"><path d="M.997 33.068l243.033 83.937" id="Line"/><path d="M111.97.068l243.033 83.937" id="Line" transform="matrix(-1 0 0 1 466.973 0)"/></g><g id="duplicate_101_original_Group-14_76475596" opacity=".202" transform="rotate(63.657 325.698 525.263)"><path d="M.997 33.068l243.033 83.937" id="Line"/><path d="M111.97.068l243.033 83.937" id="Line" transform="matrix(-1 0 0 1 466.973 0)"/></g><g id="duplicate_100_original_Group-14_76475596" opacity=".2" transform="rotate(63.625 323.136 521.48)"><path d="M.997 33.068l243.033 83.937" id="Line"/><path d="M111.97.068l243.033 83.937" id="Line" transform="matrix(-1 0 0 1 466.973 0)"/></g><g id="duplicate_99_original_Group-14_76475596" opacity=".198" transform="rotate(63.563 320.51 517.933)"><path d="M.997 33.068l243.033 83.937" id="Line"/><path d="M111.97.068l243.033 83.937" id="Line" transform="matrix(-1 0 0 1 466.973 0)"/></g><g id="duplicate_98_original_Group-14_76475596" opacity=".196" transform="rotate(63.468 317.822 514.617)"><path d="M.997 33.068l243.033 83.937" id="Line"/><path d="M111.97.068l243.033 83.937" id="Line" transform="matrix(-1 0 0 1 466.973 0)"/></g><g id="duplicate_97_original_Group-14_76475596" opacity=".194" transform="rotate(63.343 315.07 511.525)"><path d="M.997 33.068l243.033 83.937" id="Line"/><path d="M111.97.068l243.033 83.937" id="Line" transform="matrix(-1 0 0 1 466.973 0)"/></g><g id="duplicate_96_original_Group-14_76475596" opacity=".192" transform="rotate(63.187 312.255 508.651)"><path d="M.997 33.068l243.033 83.937" id="Line"/><path d="M111.97.068l243.033 83.937" id="Line" transform="matrix(-1 0 0 1 466.973 0)"/></g><g id="duplicate_95_original_Group-14_76475596" opacity=".19" transform="rotate(62.999 309.376 505.99)"><path d="M.997 33.068l243.033 83.937" id="Line"/><path d="M111.97.068l243.033 83.937" id="Line" transform="matrix(-1 0 0 1 466.973 0)"/></g><g id="duplicate_94_original_Group-14_76475596" opacity=".188" transform="rotate(62.781 306.432 503.537)"><path d="M.997 33.068l243.033 83.937" id="Line"/><path d="M111.97.068l243.033 83.937" id="Line" transform="matrix(-1 0 0 1 466.973 0)"/></g><g id="duplicate_93_original_Group-14_76475596" opacity=".186" transform="rotate(62.532 303.422 501.286)"><path d="M.997 33.068l243.033 83.937" id="Line"/><path d="M111.97.068l243.033 83.937" id="Line" transform="matrix(-1 0 0 1 466.973 0)"/></g><g id="duplicate_92_original_Group-14_76475596" opacity=".184" transform="rotate(62.253 300.346 499.234)"><path d="M.997 33.068l243.033 83.937" id="Line"/><path d="M111.97.068l243.033 83.937" id="Line" transform="matrix(-1 0 0 1 466.973 0)"/></g><g id="duplicate_91_original_Group-14_76475596" opacity=".182" transform="rotate(61.944 297.202 497.374)"><path d="M.997 33.068l243.033 83.937" id="Line"/><path d="M111.97.068l243.033 83.937" id="Line" transform="matrix(-1 0 0 1 466.973 0)"/></g><g id="duplicate_90_original_Group-14_76475596" opacity=".18" transform="rotate(61.606 293.99 495.705)"><path d="M.997 33.068l243.033 83.937" id="Line"/><path d="M111.97.068l243.033 83.937" id="Line" transform="matrix(-1 0 0 1 466.973 0)"/></g><g id="duplicate_89_original_Group-14_76475596" opacity=".178" transform="rotate(61.238 290.708 494.221)"><path d="M.997 33.068l243.033 83.937" id="Line"/><path d="M111.97.068l243.033 83.937" id="Line" transform="matrix(-1 0 0 1 466.973 0)"/></g><g id="duplicate_88_original_Group-14_76475596" opacity=".176" transform="rotate(60.84 287.354 492.92)"><path d="M.997 33.068l243.033 83.937" id="Line"/><path d="M111.97.068l243.033 83.937" id="Line" transform="matrix(-1 0 0 1 466.973 0)"/></g><g id="duplicate_87_original_Group-14_76475596" opacity=".174" transform="rotate(60.415 283.928 491.798)"><path d="M.997 33.068l243.033 83.937" id="Line"/><path d="M111.97.068l243.033 83.937" id="Line" transform="matrix(-1 0 0 1 466.973 0)"/></g><g id="duplicate_86_original_Group-14_76475596" opacity=".172" transform="rotate(59.961 280.428 490.853)"><path d="M.997 33.068l243.033 83.937" id="Line"/><path d="M111.97.068l243.033 83.937" id="Line" transform="matrix(-1 0 0 1 466.973 0)"/></g><g id="duplicate_85_original_Group-14_76475596" opacity=".17" transform="rotate(59.479 276.85 490.08)"><path d="M.997 33.068l243.033 83.937" id="Line"/><path d="M111.97.068l243.033 83.937" id="Line" transform="matrix(-1 0 0 1 466.973 0)"/></g><g id="duplicate_84_original_Group-14_76475596" opacity=".168" transform="rotate(58.97 273.195 489.48)"><path d="M.997 33.068l243.033 83.937" id="Line"/><path d="M111.97.068l243.033 83.937" id="Line" transform="matrix(-1 0 0 1 466.973 0)"/></g><g id="duplicate_83_original_Group-14_76475596" opacity=".166" transform="rotate(58.434 269.46 489.049)"><path d="M.997 33.068l243.033 83.937" id="Line"/><path d="M111.97.068l243.033 83.937" id="Line" transform="matrix(-1 0 0 1 466.973 0)"/></g><g id="duplicate_82_original_Group-14_76475596" opacity=".164" transform="rotate(57.872 265.64 488.784)"><path d="M.997 33.068l243.033 83.937" id="Line"/><path d="M111.97.068l243.033 83.937" id="Line" transform="matrix(-1 0 0 1 466.973 0)"/></g><g id="duplicate_81_original_Group-14_76475596" opacity=".162" transform="rotate(57.284 261.736 488.686)"><path d="M.997 33.068l243.033 83.937" id="Line"/><path d="M111.97.068l243.033 83.937" id="Line" transform="matrix(-1 0 0 1 466.973 0)"/></g><g id="duplicate_80_original_Group-14_76475596" opacity=".16" transform="rotate(56.671 257.743 488.751)"><path d="M.997 33.068l243.033 83.937" id="Line"/><path d="M111.97.068l243.033 83.937" id="Line" transform="matrix(-1 0 0 1 466.973 0)"/></g><g id="duplicate_79_original_Group-14_76475596" opacity=".158" transform="rotate(56.034 253.659 488.98)"><path d="M.997 33.068l243.033 83.937" id="Line"/><path d="M111.97.068l243.033 83.937" id="Line" transform="matrix(-1 0 0 1 466.973 0)"/></g><g id="duplicate_78_original_Group-14_76475596" opacity=".156" transform="rotate(55.373 249.48 489.372)"><path d="M.997 33.068l243.033 83.937" id="Line"/><path d="M111.97.068l243.033 83.937" id="Line" transform="matrix(-1 0 0 1 466.973 0)"/></g><g id="duplicate_77_original_Group-14_76475596" opacity=".154" transform="rotate(54.688 245.202 489.926)"><path d="M.997 33.068l243.033 83.937" id="Line"/><path d="M111.97.068l243.033 83.937" id="Line" transform="matrix(-1 0 0 1 466.973 0)"/></g><g id="duplicate_76_original_Group-14_76475596" opacity=".152" transform="rotate(53.981 240.823 490.641)"><path d="M.997 33.068l243.033 83.937" id="Line"/><path d="M111.97.068l243.033 83.937" id="Line" transform="matrix(-1 0 0 1 466.973 0)"/></g><g id="duplicate_75_original_Group-14_76475596" opacity=".15" transform="rotate(53.252 236.337 491.519)"><path d="M.997 33.068l243.033 83.937" id="Line"/><path d="M111.97.068l243.033 83.937" id="Line" transform="matrix(-1 0 0 1 466.973 0)"/></g><g id="duplicate_74_original_Group-14_76475596" opacity=".148" transform="rotate(52.502 231.74 492.559)"><path d="M.997 33.068l243.033 83.937" id="Line"/><path d="M111.97.068l243.033 83.937" id="Line" transform="matrix(-1 0 0 1 466.973 0)"/></g><g id="duplicate_73_original_Group-14_76475596" opacity=".146" transform="rotate(51.731 227.027 493.762)"><path d="M.997 33.068l243.033 83.937" id="Line"/><path d="M111.97.068l243.033 83.937" id="Line" transform="matrix(-1 0 0 1 466.973 0)"/></g><g id="duplicate_72_original_Group-14_76475596" opacity=".144" transform="rotate(50.941 222.193 495.13)"><path d="M.997 33.068l243.033 83.937" id="Line"/><path d="M111.97.068l243.033 83.937" id="Line" transform="matrix(-1 0 0 1 466.973 0)"/></g><g id="duplicate_71_original_Group-14_76475596" opacity=".142" transform="rotate(50.132 217.233 496.662)"><path d="M.997 33.068l243.033 83.937" id="Line"/><path d="M111.97.068l243.033 83.937" id="Line" transform="matrix(-1 0 0 1 466.973 0)"/></g><g id="duplicate_70_original_Group-14_76475596" opacity=".14" transform="rotate(49.305 212.14 498.362)"><path d="M.997 33.068l243.033 83.937" id="Line"/><path d="M111.97.068l243.033 83.937" id="Line" transform="matrix(-1 0 0 1 466.973 0)"/></g><g id="duplicate_69_original_Group-14_76475596" opacity=".138" transform="rotate(48.461 206.906 500.232)"><path d="M.997 33.068l243.033 83.937" id="Line"/><path d="M111.97.068l243.033 83.937" id="Line" transform="matrix(-1 0 0 1 466.973 0)"/></g><g id="duplicate_68_original_Group-14_76475596" opacity=".136" transform="rotate(47.6 201.526 502.274)"><path d="M.997 33.068l243.033 83.937" id="Line"/><path d="M111.97.068l243.033 83.937" id="Line" transform="matrix(-1 0 0 1 466.973 0)"/></g><g id="duplicate_67_original_Group-14_76475596" opacity=".134" transform="rotate(46.724 195.992 504.49)"><path d="M.997 33.068l243.033 83.937" id="Line"/><path d="M111.97.068l243.033 83.937" id="Line" transform="matrix(-1 0 0 1 466.973 0)"/></g><g id="duplicate_66_original_Group-14_76475596" opacity=".132" transform="rotate(45.833 190.294 506.886)"><path d="M.997 33.068l243.033 83.937" id="Line"/><path d="M111.97.068l243.033 83.937" id="Line" transform="matrix(-1 0 0 1 466.973 0)"/></g><g id="duplicate_65_original_Group-14_76475596" opacity=".13" transform="rotate(44.928 184.424 509.463)"><path d="M.997 33.068l243.033 83.937" id="Line"/><path d="M111.97.068l243.033 83.937" id="Line" transform="matrix(-1 0 0 1 466.973 0)"/></g><g id="duplicate_64_original_Group-14_76475596" opacity=".128" transform="rotate(44.01 178.372 512.228)"><path d="M.997 33.068l243.033 83.937" id="Line"/><path d="M111.97.068l243.033 83.937" id="Line" transform="matrix(-1 0 0 1 466.973 0)"/></g><g id="duplicate_63_original_Group-14_76475596" opacity=".126" transform="rotate(43.08 172.126 515.183)"><path d="M.997 33.068l243.033 83.937" id="Line"/><path d="M111.97.068l243.033 83.937" id="Line" transform="matrix(-1 0 0 1 466.973 0)"/></g><g id="duplicate_62_original_Group-14_76475596" opacity=".124" transform="rotate(42.139 165.676 518.336)"><path d="M.997 33.068l243.033 83.937" id="Line"/><path d="M111.97.068l243.033 83.937" id="Line" transform="matrix(-1 0 0 1 466.973 0)"/></g><g id="duplicate_61_original_Group-14_76475596" opacity=".122" transform="rotate(41.188 159.009 521.692)"><path d="M.997 33.068l243.033 83.937" id="Line"/><path d="M111.97.068l243.033 83.937" id="Line" transform="matrix(-1 0 0 1 466.973 0)"/></g><g id="duplicate_60_original_Group-14_76475596" opacity=".12" transform="rotate(40.228 152.11 525.257)"><path d="M.997 33.068l243.033 83.937" id="Line"/><path d="M111.97.068l243.033 83.937" id="Line" transform="matrix(-1 0 0 1 466.973 0)"/></g><g id="duplicate_59_original_Group-14_76475596" opacity=".118" transform="rotate(39.259 144.964 529.04)"><path d="M.997 33.068l243.033 83.937" id="Line"/><path d="M111.97.068l243.033 83.937" id="Line" transform="matrix(-1 0 0 1 466.973 0)"/></g><g id="duplicate_58_original_Group-14_76475596" opacity=".116" transform="rotate(38.284 137.554 533.047)"><path d="M.997 33.068l243.033 83.937" id="Line"/><path d="M111.97.068l243.033 83.937" id="Line" transform="matrix(-1 0 0 1 466.973 0)"/></g><g id="duplicate_57_original_Group-14_76475596" opacity=".114" transform="rotate(37.301 129.864 537.289)"><path d="M.997 33.068l243.033 83.937" id="Line"/><path d="M111.97.068l243.033 83.937" id="Line" transform="matrix(-1 0 0 1 466.973 0)"/></g><g id="duplicate_56_original_Group-14_76475596" opacity=".112" transform="rotate(36.314 121.872 541.774)"><path d="M.997 33.068l243.033 83.937" id="Line"/><path d="M111.97.068l243.033 83.937" id="Line" transform="matrix(-1 0 0 1 466.973 0)"/></g><g id="duplicate_55_original_Group-14_76475596" opacity=".11" transform="rotate(35.321 113.556 546.514)"><path d="M.997 33.068l243.033 83.937" id="Line"/><path d="M111.97.068l243.033 83.937" id="Line" transform="matrix(-1 0 0 1 466.973 0)"/></g><g id="duplicate_54_original_Group-14_76475596" opacity=".108" transform="rotate(34.326 104.894 551.52)"><path d="M.997 33.068l243.033 83.937" id="Line"/><path d="M111.97.068l243.033 83.937" id="Line" transform="matrix(-1 0 0 1 466.973 0)"/></g><g id="duplicate_53_original_Group-14_76475596" opacity=".106" transform="rotate(33.328 95.858 556.806)"><path d="M.997 33.068l243.033 83.937" id="Line"/><path d="M111.97.068l243.033 83.937" id="Line" transform="matrix(-1 0 0 1 466.973 0)"/></g><g id="duplicate_52_original_Group-14_76475596" opacity=".104" transform="rotate(32.328 86.42 562.384)"><path d="M.997 33.068l243.033 83.937" id="Line"/><path d="M111.97.068l243.033 83.937" id="Line" transform="matrix(-1 0 0 1 466.973 0)"/></g><g id="duplicate_51_original_Group-14_76475596" opacity=".102" transform="rotate(31.328 76.548 568.271)"><path d="M.997 33.068l243.033 83.937" id="Line"/><path d="M111.97.068l243.033 83.937" id="Line" transform="matrix(-1 0 0 1 466.973 0)"/></g><g id="duplicate_50_original_Group-14_76475596" opacity=".1" transform="rotate(30.329 66.206 574.484)"><path d="M.997 33.068l243.033 83.937" id="Line"/><path d="M111.97.068l243.033 83.937" id="Line" transform="matrix(-1 0 0 1 466.973 0)"/></g><g id="duplicate_49_original_Group-14_76475596" opacity=".098" transform="rotate(29.331 55.356 581.04)"><path d="M.997 33.068l243.033 83.937" id="Line"/><path d="M111.97.068l243.033 83.937" id="Line" transform="matrix(-1 0 0 1 466.973 0)"/></g><g id="duplicate_48_original_Group-14_76475596" opacity=".096" transform="rotate(28.335 43.953 587.96)"><path d="M.997 33.068l243.033 83.937" id="Line"/><path d="M111.97.068l243.033 83.937" id="Line" transform="matrix(-1 0 0 1 466.973 0)"/></g><g id="duplicate_47_original_Group-14_76475596" opacity=".094" transform="rotate(27.343 31.95 595.268)"><path d="M.997 33.068l243.033 83.937" id="Line"/><path d="M111.97.068l243.033 83.937" id="Line" transform="matrix(-1 0 0 1 466.973 0)"/></g><g id="duplicate_46_original_Group-14_76475596" opacity=".092" transform="rotate(26.355 19.292 602.986)"><path d="M.997 33.068l243.033 83.937" id="Line"/><path d="M111.97.068l243.033 83.937" id="Line" transform="matrix(-1 0 0 1 466.973 0)"/></g><g id="duplicate_45_original_Group-14_76475596" opacity=".09" transform="rotate(25.373 5.92 611.142)"><path d="M.997 33.068l243.033 83.937" id="Line"/><path d="M111.97.068l243.033 83.937" id="Line" transform="matrix(-1 0 0 1 466.973 0)"/></g><g id="duplicate_44_original_Group-14_76475596" opacity=".088" transform="rotate(24.397 -8.233 619.765)"><path d="M.997 33.068l243.033 83.937" id="Line"/><path d="M111.97.068l243.033 83.937" id="Line" transform="matrix(-1 0 0 1 466.973 0)"/></g><g id="duplicate_43_original_Group-14_76475596" opacity=".086" transform="rotate(23.429 -23.244 628.887)"><path d="M.997 33.068l243.033 83.937" id="Line"/><path d="M111.97.068l243.033 83.937" id="Line" transform="matrix(-1 0 0 1 466.973 0)"/></g><g id="duplicate_42_original_Group-14_76475596" opacity=".084" transform="rotate(22.468 -39.197 638.546)"><path d="M.997 33.068l243.033 83.937" id="Line"/><path d="M111.97.068l243.033 83.937" id="Line" transform="matrix(-1 0 0 1 466.973 0)"/></g><g id="duplicate_41_original_Group-14_76475596" opacity=".082" transform="rotate(21.517 -56.188 648.78)"><path d="M.997 33.068l243.033 83.937" id="Line"/><path d="M111.97.068l243.033 83.937" id="Line" transform="matrix(-1 0 0 1 466.973 0)"/></g><g id="duplicate_40_original_Group-14_76475596" opacity=".08" transform="rotate(20.576 -74.327 659.635)"><path d="M.997 33.068l243.033 83.937" id="Line"/><path d="M111.97.068l243.033 83.937" id="Line" transform="matrix(-1 0 0 1 466.973 0)"/></g><g id="duplicate_39_original_Group-14_76475596" opacity=".078" transform="rotate(19.647 -93.735 671.159)"><path d="M.997 33.068l243.033 83.937" id="Line"/><path d="M111.97.068l243.033 83.937" id="Line" transform="matrix(-1 0 0 1 466.973 0)"/></g><g id="duplicate_38_original_Group-14_76475596" opacity=".076" transform="rotate(18.729 -114.554 683.406)"><path d="M.997 33.068l243.033 83.937" id="Line"/><path d="M111.97.068l243.033 83.937" id="Line" transform="matrix(-1 0 0 1 466.973 0)"/></g><g id="duplicate_37_original_Group-14_76475596" opacity=".074" transform="rotate(17.824 -136.945 696.438)"><path d="M.997 33.068l243.033 83.937" id="Line"/><path d="M111.97.068l243.033 83.937" id="Line" transform="matrix(-1 0 0 1 466.973 0)"/></g><g id="duplicate_36_original_Group-14_76475596" opacity=".072" transform="rotate(16.933 -161.092 710.324)"><path d="M.997 33.068l243.033 83.937" id="Line"/><path d="M111.97.068l243.033 83.937" id="Line" transform="matrix(-1 0 0 1 466.973 0)"/></g><g id="duplicate_35_original_Group-14_76475596" opacity=".07" transform="rotate(16.057 -187.207 725.14)"><path d="M.997 33.068l243.033 83.937" id="Line"/><path d="M111.97.068l243.033 83.937" id="Line" transform="matrix(-1 0 0 1 466.973 0)"/></g><g id="duplicate_34_original_Group-14_76475596" opacity=".068" transform="rotate(15.196 -215.536 740.972)"><path d="M.997 33.068l243.033 83.937" id="Line"/><path d="M111.97.068l243.033 83.937" id="Line" transform="matrix(-1 0 0 1 466.973 0)"/></g><g id="duplicate_33_original_Group-14_76475596" opacity=".066" transform="rotate(14.352 -246.363 757.918)"><path d="M.997 33.068l243.033 83.937" id="Line"/><path d="M111.97.068l243.033 83.937" id="Line" transform="matrix(-1 0 0 1 466.973 0)"/></g><g id="duplicate_32_original_Group-14_76475596" opacity=".064" transform="rotate(13.525 -280.023 776.09)"><path d="M.997 33.068l243.033 83.937" id="Line"/><path d="M111.97.068l243.033 83.937" id="Line" transform="matrix(-1 0 0 1 466.973 0)"/></g><g id="duplicate_31_original_Group-14_76475596" opacity=".062" transform="rotate(12.716 -316.904 795.614)"><path d="M.997 33.068l243.033 83.937" id="Line"/><path d="M111.97.068l243.033 83.937" id="Line" transform="matrix(-1 0 0 1 466.973 0)"/></g><g id="duplicate_30_original_Group-14_76475596" opacity=".06" transform="rotate(11.925 -357.466 816.635)"><path d="M.997 33.068l243.033 83.937" id="Line"/><path d="M111.97.068l243.033 83.937" id="Line" transform="matrix(-1 0 0 1 466.973 0)"/></g><g id="duplicate_29_original_Group-14_76475596" opacity=".058" transform="rotate(11.155 -402.255 839.317)"><path d="M.997 33.068l243.033 83.937" id="Line"/><path d="M111.97.068l243.033 83.937" id="Line" transform="matrix(-1 0 0 1 466.973 0)"/></g><g id="duplicate_28_original_Group-14_76475596" opacity=".056" transform="rotate(10.405 -451.921 863.854)"><path d="M.997 33.068l243.033 83.937" id="Line"/><path d="M111.97.068l243.033 83.937" id="Line" transform="matrix(-1 0 0 1 466.973 0)"/></g><g id="duplicate_27_original_Group-14_76475596" opacity=".054" transform="rotate(9.676 -507.244 890.466)"><path d="M.997 33.068l243.033 83.937" id="Line"/><path d="M111.97.068l243.033 83.937" id="Line" transform="matrix(-1 0 0 1 466.973 0)"/></g><g id="duplicate_26_original_Group-14_76475596" opacity=".052" transform="rotate(8.969 -569.166 919.415)"><path d="M.997 33.068l243.033 83.937" id="Line"/><path d="M111.97.068l243.033 83.937" id="Line" transform="matrix(-1 0 0 1 466.973 0)"/></g><g id="duplicate_25_original_Group-14_76475596" opacity=".05" transform="rotate(8.284 -638.834 951.005)"><path d="M.997 33.068l243.033 83.937" id="Line"/><path d="M111.97.068l243.033 83.937" id="Line" transform="matrix(-1 0 0 1 466.973 0)"/></g><g id="duplicate_24_original_Group-14_76475596" opacity=".048" transform="rotate(7.623 -717.658 985.596)"><path d="M.997 33.068l243.033 83.937" id="Line"/><path d="M111.97.068l243.033 83.937" id="Line" transform="matrix(-1 0 0 1 466.973 0)"/></g><g id="duplicate_23_original_Group-14_76475596" opacity=".046" transform="rotate(6.985 -807.38 1023.616)"><path d="M.997 33.068l243.033 83.937" id="Line"/><path d="M111.97.068l243.033 83.937" id="Line" transform="matrix(-1 0 0 1 466.973 0)"/></g><g id="duplicate_22_original_Group-14_76475596" opacity=".044" transform="rotate(6.373 -910.18 1065.581)"><path d="M.997 33.068l243.033 83.937" id="Line"/><path d="M111.97.068l243.033 83.937" id="Line" transform="matrix(-1 0 0 1 466.973 0)"/></g><g id="duplicate_21_original_Group-14_76475596" opacity=".042" transform="rotate(5.785 -1028.811 1112.115)"><path d="M.997 33.068l243.033 83.937" id="Line"/><path d="M111.97.068l243.033 83.937" id="Line" transform="matrix(-1 0 0 1 466.973 0)"/></g><g id="duplicate_20_original_Group-14_76475596" opacity=".04" transform="rotate(5.223 -1166.792 1163.978)"><path d="M.997 33.068l243.033 83.937" id="Line"/><path d="M111.97.068l243.033 83.937" id="Line" transform="matrix(-1 0 0 1 466.973 0)"/></g><g id="duplicate_19_original_Group-14_76475596" opacity=".038" transform="rotate(4.687 -1328.675 1222.112)"><path d="M.997 33.068l243.033 83.937" id="Line"/><path d="M111.97.068l243.033 83.937" id="Line" transform="matrix(-1 0 0 1 466.973 0)"/></g><g id="duplicate_18_original_Group-14_76475596" opacity=".036" transform="rotate(4.178 -1520.436 1287.693)"><path d="M.997 33.068l243.033 83.937" id="Line"/><path d="M111.97.068l243.033 83.937" id="Line" transform="matrix(-1 0 0 1 466.973 0)"/></g><g id="duplicate_17_original_Group-14_76475596" opacity=".034" transform="rotate(3.696 -1750.042 1362.211)"><path d="M.997 33.068l243.033 83.937" id="Line"/><path d="M111.97.068l243.033 83.937" id="Line" transform="matrix(-1 0 0 1 466.973 0)"/></g><g id="duplicate_16_original_Group-14_76475596" opacity=".032" transform="rotate(3.242 -2028.307 1447.583)"><path d="M.997 33.068l243.033 83.937" id="Line"/><path d="M111.97.068l243.033 83.937" id="Line" transform="matrix(-1 0 0 1 466.973 0)"/></g><g id="duplicate_15_original_Group-14_76475596" opacity=".03" transform="rotate(2.816 -2370.202 1546.312)"><path d="M.997 33.068l243.033 83.937" id="Line"/><path d="M111.97.068l243.033 83.937" id="Line" transform="matrix(-1 0 0 1 466.973 0)"/></g><g id="duplicate_14_original_Group-14_76475596" opacity=".028" transform="rotate(2.419 -2796.94 1661.74)"><path d="M.997 33.068l243.033 83.937" id="Line"/><path d="M111.97.068l243.033 83.937" id="Line" transform="matrix(-1 0 0 1 466.973 0)"/></g><g id="duplicate_13_original_Group-14_76475596" opacity=".026" transform="rotate(2.051 -3339.368 1798.422)"><path d="M.997 33.068l243.033 83.937" id="Line"/><path d="M111.97.068l243.033 83.937" id="Line" transform="matrix(-1 0 0 1 466.973 0)"/></g><g id="duplicate_12_original_Group-14_76475596" opacity=".024" transform="rotate(1.712 -4043.768 1962.734)"><path d="M.997 33.068l243.033 83.937" id="Line"/><path d="M111.97.068l243.033 83.937" id="Line" transform="matrix(-1 0 0 1 466.973 0)"/></g><g id="duplicate_11_original_Group-14_76475596" opacity=".022" transform="rotate(1.403 -4982.127 2163.888)"><path d="M.997 33.068l243.033 83.937" id="Line"/><path d="M111.97.068l243.033 83.937" id="Line" transform="matrix(-1 0 0 1 466.973 0)"/></g><g id="duplicate_10_original_Group-14_76475596" opacity=".02" transform="rotate(1.124 -6271.422 2415.7)"><path d="M.997 33.068l243.033 83.937" id="Line"/><path d="M111.97.068l243.033 83.937" id="Line" transform="matrix(-1 0 0 1 466.973 0)"/></g><g id="duplicate_9_original_Group-14_76475596" opacity=".018" transform="rotate(.876 -8112.194 2739.884)"><path d="M.997 33.068l243.033 83.937" id="Line"/><path d="M111.97.068l243.033 83.937" id="Line" transform="matrix(-1 0 0 1 466.973 0)"/></g><g id="duplicate_8_original_Group-14_76475596" opacity=".016" transform="rotate(.657 -10872.086 3172.622)"><path d="M.997 33.068l243.033 83.937" id="Line"/><path d="M111.97.068l243.033 83.937" id="Line" transform="matrix(-1 0 0 1 466.973 0)"/></g><g id="duplicate_7_original_Group-14_76475596" opacity=".014" transform="rotate(.47 -15286.428 3779.058)"><path d="M.997 33.068l243.033 83.937" id="Line"/><path d="M111.97.068l243.033 83.937" id="Line" transform="matrix(-1 0 0 1 466.973 0)"/></g><g id="duplicate_6_original_Group-14_76475596" opacity=".012" transform="rotate(.314 -23009.59 4689.447)"><path d="M111.97.068l243.033 83.937" id="Line" transform="matrix(-1 0 0 1 466.973 0)"/></g><g id="duplicate_5_original_Group-14_76475596" opacity=".01" transform="rotate(.188 -38453.376 6207.756)"><path d="M111.97.068l243.033 83.937" id="Line" transform="matrix(-1 0 0 1 466.973 0)"/></g><g id="duplicate_4_original_Group-14_76475596" opacity=".008" transform="rotate(.094 -77059.565 9245.933)"><path d="M111.97.068l243.033 83.937" id="Line" transform="matrix(-1 0 0 1 466.973 0)"/></g><g id="duplicate_3_original_Group-14_76475596" opacity=".006" transform="rotate(.031 -231473.548 18363.173)"><path d="M111.97.068l243.033 83.937" id="Line" transform="matrix(-1 0 0 1 466.973 0)"/></g><g id="duplicate_2_original_Group-14_76475596" opacity=".004" transform="translate(5 127)"><path d="M111.97.068l243.033 83.937" id="Line" transform="matrix(-1 0 0 1 466.973 0)"/></g><g id="duplicate_1_original_Group-14_76475596" opacity=".002" transform="translate(0 127)"><path d="M111.97.068l243.033 83.937" id="Line" transform="matrix(-1 0 0 1 466.973 0)"/></g></g></g></g></g></svg>